0
SECTION
2
HEADER
9
$INSUNITS
70
4
9
$ACADVER
1
AC1014
9
$HANDSEED
5
FFFF
0
ENDSEC
0
SECTION
2
TABLES
0
TABLE
2
VPORT
5
8
100
AcDbSymbolTable
0
ENDTAB
0
TABLE
2
LTYPE
5
5
100
AcDbSymbolTable
0
LTYPE
5
14
100
AcDbSymbolTableRecord
100
AcDbLinetypeTableRecord
2
BYBLOCK
70
0
0
LTYPE
5
15
100
AcDbSymbolTableRecord
100
AcDbLinetypeTableRecord
2
BYLAYER
70
0
0
ENDTAB
0
TABLE
2
LAYER
5
2
100
AcDbSymbolTable
70
2
0
LAYER
5
50
100
AcDbSymbolTableRecord
100
AcDbLayerTableRecord
2
0
70
0
6
CONTINUOUS
0
ENDTAB
0
TABLE
2
STYLE
5
3
100
AcDbSymbolTable
70
1
0
STYLE
5
11
100
AcDbSymbolTableRecord
100
AcDbTextStyleTableRecord
2
STANDARD
70
0
0
ENDTAB
0
TABLE
2
VIEW
5
6
100
AcDbSymbolTable
70
0
0
ENDTAB
0
TABLE
2
UCS
5
7
100
AcDbSymbolTable
70
0
0
ENDTAB
0
TABLE
2
APPID
5
9
100
AcDbSymbolTable
70
2
0
APPID
5
12
100
AcDbSymbolTableRecord
100
AcDbRegAppTableRecord
2
ACAD
70
0
0
ENDTAB
0
TABLE
2
DIMSTYLE
5
A
100
AcDbSymbolTable
70
1
0
ENDTAB
0
TABLE
2
BLOCK_RECORD
5
1
100
AcDbSymbolTable
70
1
0
BLOCK_RECORD
5
1F
100
AcDbSymbolTableRecord
100
AcDbBlockTableRecord
2
*MODEL_SPACE
0
BLOCK_RECORD
5
1B
100
AcDbSymbolTableRecord
100
AcDbBlockTableRecord
2
*PAPER_SPACE
0
ENDTAB
0
ENDSEC
0
SECTION
2
BLOCKS
0
BLOCK
5
20
100
AcDbEntity
100
AcDbBlockBegin
2
*MODEL_SPACE
0
ENDBLK
5
21
100
AcDbEntity
100
AcDbBlockEnd
0
BLOCK
5
1C
100
AcDbEntity
100
AcDbBlockBegin
2
*PAPER_SPACE
0
ENDBLK
5
1D
100
AcDbEntity
100
AcDbBlockEnd
0
ENDSEC
0
SECTION
2
ENTITIES
0
LWPOLYLINE
5
100
100
AcDbEntity
8
0
100
AcDbPolyline
90
4
70
1
43
0.0
10
0
20
-300
10
300
20
-300
10
300
20
-400
10
0
20
-400
0
SPLINE
5
101
100
AcDbEntity
8
0
100
AcDbSpline
70
0
71
3
72
10
73
6
74
0
42
0.000000001
43
0.0000000001
44
0.0000000001
40
-0.40583097478767882
40
-0.40583097478767882
40
-0.40583097478767882
40
-0.40583097478767882
40
-0.08285480566707154
40
-0.08285480566707154
40
-0.064139941353116708
40
-0.064139941353116708
40
-0.064139941353116708
40
-0.064139941353116708
10
193.04981594532936
20
-317.62700816114619
30
0
10
193.75862683002947
20
-317.76294811745555
30
0
10
194.13475960909955
20
-317.94417513441232
30
0
10
194.88563150668125
20
-317.80561407319948
30
0
10
194.91829031341121
20
-317.79931527887464
30
0
10
194.94737801791348
20
-317.79376682380587
30
0
0
SPLINE
5
102
100
AcDbEntity
8
0
100
AcDbSpline
70
0
71
3
72
10
73
6
74
0
42
0.000000001
43
0.0000000001
44
0.0000000001
40
-0.71150925341213966
40
-0.71150925341213966
40
-0.71150925341213966
40
-0.71150925341213966
40
-0.31286343452199666
40
-0.31286343452199666
40
0
40
0
40
0
40
0
10
185.36373901367188
20
-316.58887234691468
30
0
10
185.76251839968037
20
-316.50939851017193
30
0
10
187.28202626542731
20
-316.20427904768468
30
0
10
190.82489735603517
20
-316.67665361285304
30
0
10
192.11859415490619
20
-317.15751828911527
30
0
10
193.0498159453295
20
-317.62700816114625
30
0
0
SPLINE
5
103
100
AcDbEntity
8
0
100
AcDbSpline
70
0
71
3
72
10
73
6
74
0
42
0.000000001
43
0.0000000001
44
0.0000000001
40
-0.081364542736934581
40
-0.081364542736934581
40
-0.081364542736934581
40
-0.081364542736934581
40
-0.040676038026452019
40
-0.040676038026452019
40
0
40
0
40
0
40
0
10
184.56498449997682
20
-316.74460950948111
30
0
10
184.69824364634943
20
-316.7192669851359
30
0
10
184.83145625080954
20
-316.69358073352834
30
0
10
185.09767682794137
20
-316.6416415363334
30
0
10
185.23076716922719
20
-316.61537267022015
30
0
10
185.36373901367193
20
-316.58887234691468
30
0
0
SPLINE
5
104
100
AcDbEntity
8
0
100
AcDbSpline
70
0
71
3
72
10
73
6
74
0
42
0.000000001
43
0.0000000001
44
0.0000000001
40
-1.3448403430048965
40
-1.3448403430048965
40
-1.3448403430048965
40
-1.3448403430048965
40
-0.47797056636750318
40
-0.47797056636750318
40
0
40
0
40
0
40
0
10
175.66948115551963
20
-316.74460950948111
30
0
10
176.65545729192195
20
-316.99469706731543
30
0
10
177.46376491679413
20
-317.16536293401447
30
0
10
181.57403211364158
20
-317.00585809992958
30
0
10
182.97899790709337
20
-316.8964152977303
30
0
10
184.56498449997679
20
-316.74460950948111
30
0
0
SPLINE
5
105
100
AcDbEntity
8
0
100
AcDbSpline
70
0
71
3
72
10
73
6
74
0
42
0.000000001
43
0.0000000001
44
0.0000000001
40
-0.033946767067020406
40
-0.033946767067020406
40
-0.033946767067020406
40
-0.033946767067020406
40
-0.016734621229634681
40
-0.016734621229634681
40
0
40
0
40
0
40
0
10
175.36373901367188
20
-316.58887234691468
30
0
10
175.41695641778784
20
-316.61609441111057
30
0
10
175.46894350453198
20
-316.64268713648335
30
0
10
175.56934505714619
20
-316.69388293673217
30
0
10
175.619684126462
20
-316.71947198144187
30
0
10
175.66948115551958
20
-316.74460950948111
30
0
0
LINE
5
106
100
AcDbEntity
8
0
100
AcDbLine
10
175.36373901367188
20
-316.58887234691468
30
0
11
166.89308850000037
21
-312.25591782019882
31
0
0
LINE
5
107
100
AcDbEntity
8
0
100
AcDbLine
10
166.89308850000037
20
-312.25591782019882
30
0
11
164.83743953704834
21
-311.23533995986003
31
0
0
LINE
5
108
100
AcDbEntity
8
0
100
AcDbLine
10
164.83743953704834
20
-311.23533995986003
30
0
11
164.61156449380445
21
-311.1502183082647
31
0
0
LINE
5
109
100
AcDbEntity
8
0
100
AcDbLine
10
164.61156449380445
20
-311.1502183082647
30
0
11
164.37197387508402
21
-310.94801364346296
31
0
0
LINE
5
110
100
AcDbEntity
8
0
100
AcDbLine
10
164.37197387508402
20
-310.94801364346296
30
0
11
160.51934127706826
21
-308.11239697645095
31
0
0
LINE
5
111
100
AcDbEntity
8
0
100
AcDbLine
10
160.51934127706826
20
-308.11239697645095
30
0
11
161.35068104242595
21
-311.07777268652183
31
0
0
LINE
5
112
100
AcDbEntity
8
0
100
AcDbLine
10
161.35068104242595
20
-311.07777268652183
30
0
11
161.68631863180846
21
-313.40000225422239
31
0
0
LINE
5
113
100
AcDbEntity
8
0
100
AcDbLine
10
161.68631863180846
20
-313.40000225422239
30
0
11
164.83743953704834
21
-321.30368040115621
31
0
0
LINE
5
114
100
AcDbEntity
8
0
100
AcDbLine
10
164.83743953704834
20
-321.30368040115621
30
0
11
165.50171448249449
21
-323.37232878625082
31
0
0
LINE
5
115
100
AcDbEntity
8
0
100
AcDbLine
10
165.50171448249449
20
-323.37232878625082
30
0
11
167.58193602282626
21
-326.67680795185663
31
0
0
LINE
5
116
100
AcDbEntity
8
0
100
AcDbLine
10
167.58193602282626
20
-326.67680795185663
30
0
11
172.70643893112162
21
-335.83642713172452
31
0
0
LINE
5
117
100
AcDbEntity
8
0
100
AcDbLine
10
172.70643893112162
20
-335.83642713172452
30
0
11
175.36373901367188
21
-338.27690865578336
31
0
0
SPLINE
5
118
100
AcDbEntity
8
0
100
AcDbSpline
70
0
71
3
72
16
73
12
74
0
42
0.000000001
43
0.0000000001
44
0.0000000001
40
-1.1233256120204502
40
-1.1233256120204502
40
-1.1233256120204502
40
-1.1233256120204502
40
-0.81024456860715932
40
-0.81024456860715932
40
-0.6030033157351018
40
-0.6030033157351018
40
-0.47046448751917164
40
-0.47046448751917164
40
-0.31744532984181156
40
-0.31744532984181156
40
0
40
0
40
0
40
0
10
185.36373901367188
20
-338.27690865578336
30
0
10
184.04122035895801
20
-338.90262955949322
30
0
10
183.00348715143406
20
-339.54654239174857
30
0
10
181.40629512047747
20
-340.33218003682924
30
0
10
180.7995393803817
20
-340.57280060218284
30
0
10
179.79020359305295
20
-340.72498559208623
30
0
10
179.40455656625664
20
-340.72196209558314
30
0
10
178.56233381518712
20
-340.56274955010576
30
0
10
178.14017271137868
20
-340.38931369823047
30
0
10
176.91300796602246
20
-339.69976724779485
30
0
10
176.14308374408895
20
-338.99266387964582
30
0
10
175.36373901367188
20
-338.27690865578336
30
0
0
SPLINE
5
119
100
AcDbEntity
8
0
100
AcDbSpline
70
0
71
3
72
10
73
6
74
0
42
0.000000001
43
0.0000000001
44
0.0000000001
40
-0.10754947675647863
40
-0.10754947675647863
40
-0.10754947675647863
40
-0.10754947675647863
40
-0.050907574693102559
40
-0.050907574693102559
40
0
40
0
40
0
40
0
10
187.80700130130526
20
-337.46335095239556
30
0
10
187.26978918664369
20
-337.60732097029569
30
0
10
186.72399966763436
20
-337.75721893912373
30
0
10
185.76171903437159
20
-338.09021469317025
30
0
10
185.51712899692293
20
-338.20433552526617
30
0
10
185.36373901367188
20
-338.27690865578336
30
0
0
SPLINE
5
120
100
AcDbEntity
8
0
100
AcDbSpline
70
0
71
3
72
10
73
6
74
0
42
0.000000001
43
0.0000000001
44
0.0000000001
40
-0.97771437841380004
40
-0.97771437841380004
40
-0.97771437841380004
40
-0.97771437841380004
40
-0.40348645001506883
40
-0.40348645001506883
40
0
40
0
40
0
40
0
10
193.41679223219273
20
-330.77142171957263
30
0
10
193.12534158215192
20
-331.51511899800397
30
0
10
192.21827422643526
20
-333.72930538547217
30
0
10
190.00257025256658
20
-336.14121565767249
30
0
10
188.96539729268571
20
-336.77996070444385
30
0
10
187.80700130130526
20
-337.46335095239556
30
0
0
SPLINE
5
121
100
AcDbEntity
8
0
100
AcDbSpline
70
0
71
3
72
10
73
6
74
0
42
0.000000001
43
0.0000000001
44
0.0000000001
40
-1.125637972119323
40
-1.125637972119323
40
-1.125637972119323
40
-1.125637972119323
40
-0.48472315801752458
40
-0.48472315801752458
40
0
40
0
40
0
40
0
10
194.75624864374765
20
-323.49446203200478
30
0
10
194.51023845114091
20
-324.32752318301078
30
0
10
194.33333060661857
20
-324.88117604493135
30
0
10
193.86038560235409
20
-328.09330470459668
30
0
10
193.75328684580836
20
-329.19110542328121
30
0
10
193.41679223219273
20
-330.77142171957263
30
0
0
SPLINE
5
122
100
AcDbEntity
8
0
100
AcDbSpline
70
0
71
3
72
10
73
6
74
0
42
0.000000001
43
0.0000000001
44
0.0000000001
40
-0.58309258529448993
40
-0.58309258529448993
40
-0.58309258529448993
40
-0.58309258529448993
40
-0.34140317923635788
40
-0.34140317923635788
40
0
40
0
40
0
40
0
10
194.94737801791348
20
-317.79376682380581
30
0
10
194.9440412812354
20
-318.59474101071078
30
0
10
194.9309766015424
20
-319.40536942346938
30
0
10
194.88165761400307
20
-321.24478612809332
30
0
10
194.83446213274146
20
-322.35914235453146
30
0
10
194.75624864374765
20
-323.49446203200478
30
0
0
SPLINE
5
123
100
AcDbEntity
8
0
100
AcDbSpline
70
0
71
3
72
10
73
6
74
0
42
0.000000001
43
0.0000000001
44
0.0000000001
40
0.11892717857099384
40
0.11892717857099384
40
0.11892717857099384
40
0.11892717857099384
40
0.34117209557630185
40
0.34117209557630185
40
0.67985804393390448
40
0.67985804393390448
40
0.67985804393390448
40
0.67985804393390448
10
194.94737801791348
20
-317.79376682380587
30
0
10
194.94419827471418
20
-318.55705517088455
30
0
10
194.93218513383664
20
-319.32784835729257
30
0
10
194.88497433228844
20
-321.16466013441391
30
0
10
194.83713047135936
20
-322.32040968350475
30
0
10
194.75624864374765
20
-323.49446203200472
30
0
0
SPLINE
5
124
100
AcDbEntity
8
0
100
AcDbSpline
70
0
71
3
72
10
73
6
74
0
42
0.000000001
43
0.0000000001
44
0.0000000001
40
0
40
0
40
0
40
0
40
0.20307430885461983
40
0.20307430885461983
40
0.43312284186005012
40
0.43312284186005012
40
0.43312284186005012
40
0.43312284186005012
10
194.75624864374765
20
-323.49446203200478
30
0
10
194.56453466328134
20
-324.14366061820522
30
0
10
194.37877985653734
20
-324.74582088583753
30
0
10
193.90986034904191
20
-327.62459271977576
30
0
10
193.81447678657292
20
-328.90373244122873
30
0
10
193.41679223219273
20
-330.77142171957263
30
0
0
SPLINE
5
125
100
AcDbEntity
8
0
100
AcDbSpline
70
0
71
3
72
10
73
6
74
0
42
0.000000001
43
0.0000000001
44
0.0000000001
40
0
40
0
40
0
40
0
40
0.2703629743463728
40
0.2703629743463728
40
0.57124294170458167
40
0.57124294170458167
40
0.57124294170458167
40
0.57124294170458167
10
193.41679223219273
20
-330.77142171957263
30
0
10
193.08796275822186
20
-331.61049888349703
30
0
10
192.41679955746989
20
-333.20741673545751
30
0
10
190.42593830980417
20
-335.87849498870293
30
0
10
189.23933619060361
20
-336.61835174449863
30
0
10
187.80700130130529
20
-337.46335095239556
30
0
0
SPLINE
5
126
100
AcDbEntity
8
0
100
AcDbSpline
70
0
71
3
72
10
73
6
74
0
42
0.000000001
43
0.0000000001
44
0.0000000001
40
0
40
0
40
0
40
0
40
0.14856434403365584
40
0.14856434403365584
40
0.30121648311899518
40
0.30121648311899518
40
0.30121648311899518
40
0.30121648311899518
10
187.80700130130526
20
-337.46335095239567
30
0
10
187.32866629190499
20
-337.59154221611834
30
0
10
186.78458971350867
20
-337.74024518023617
30
0
10
185.79084392193244
20
-338.0766307881787
30
0
10
185.51112068576404
20
-338.20717822686044
30
0
10
185.36373901367188
20
-338.27690865578336
30
0
0
SPLINE
5
127
100
AcDbEntity
8
0
100
AcDbSpline
70
0
71
3
72
14
73
10
74
0
42
0.000000001
43
0.0000000001
44
0.0000000001
40
0
40
0
40
0
40
0
40
0.78867117296429123
40
0.78867117296429123
40
1.0151590864494575
40
1.0151590864494575
40
1.2610373315411265
40
1.2610373315411265
40
1.581142559543854
40
1.581142559543854
40
1.581142559543854
40
1.581142559543854
10
185.36373901367188
20
-338.27690865578336
30
0
10
182.98738817117183
20
-339.40122731200881
30
0
10
181.45413009682829
20
-340.62039907975185
30
0
10
179.34743958043254
20
-340.72633555987522
30
0
10
178.90078854837861
20
-340.65426099826544
30
0
10
177.97903703364412
20
-340.32487069401918
30
0
10
177.52212380129782
20
-340.05854941033391
30
0
10
176.49269699275169
20
-339.31375094073104
30
0
10
175.93247379598319
20
-338.79923834577016
30
0
10
175.36373901367188
20
-338.27690865578336
30
0
0
LINE
5
128
100
AcDbEntity
8
0
100
AcDbLine
10
175.36373901367188
20
-338.27690865578336
30
0
11
172.70643893112162
21
-335.83642713172452
31
0
0
LINE
5
129
100
AcDbEntity
8
0
100
AcDbLine
10
172.70643893112162
20
-335.83642713172452
30
0
11
167.58193602282626
21
-326.67680795185663
31
0
0
LINE
5
130
100
AcDbEntity
8
0
100
AcDbLine
10
167.58193602282626
20
-326.67680795185663
30
0
11
165.50171448249449
21
-323.37232878625082
31
0
0
LINE
5
131
100
AcDbEntity
8
0
100
AcDbLine
10
165.50171448249449
20
-323.37232878625082
30
0
11
164.83743953704834
21
-321.30368040115621
31
0
0
LINE
5
132
100
AcDbEntity
8
0
100
AcDbLine
10
164.83743953704834
20
-321.30368040115621
30
0
11
161.68631863180846
21
-313.40000225422239
31
0
0
LINE
5
133
100
AcDbEntity
8
0
100
AcDbLine
10
161.68631863180846
20
-313.40000225422239
30
0
11
161.35068104242595
21
-311.07777268652183
31
0
0
LINE
5
134
100
AcDbEntity
8
0
100
AcDbLine
10
161.35068104242595
20
-311.07777268652183
30
0
11
160.51934127706826
21
-308.11239697645095
31
0
0
LINE
5
135
100
AcDbEntity
8
0
100
AcDbLine
10
160.51934127706826
20
-308.11239697645095
30
0
11
158.4558953826058
21
-306.59365844612012
31
0
0
LINE
5
136
100
AcDbEntity
8
0
100
AcDbLine
10
158.4558953826058
20
-306.59365844612012
30
0
11
157.42587322278831
21
-304.46204168387965
31
0
0
LINE
5
137
100
AcDbEntity
8
0
100
AcDbLine
10
157.42587322278831
20
-304.46204168387965
30
0
11
156.8189526062902
21
-303.54518532276012
31
0
0
LINE
5
138
100
AcDbEntity
8
0
100
AcDbLine
10
156.8189526062902
20
-303.54518532276012
30
0
11
156.93341325287781
21
-304.60843738477087
31
0
0
LINE
5
139
100
AcDbEntity
8
0
100
AcDbLine
10
156.93341325287781
20
-304.60843738477087
30
0
11
156.88168706400714
21
-307.62038461756026
31
0
0
LINE
5
140
100
AcDbEntity
8
0
100
AcDbLine
10
156.88168706400714
20
-307.62038461756026
30
0
11
157.50931539429286
21
-309.85912488133289
31
0
0
LINE
5
141
100
AcDbEntity
8
0
100
AcDbLine
10
157.50931539429286
20
-309.85912488133289
30
0
11
158.21472528309459
21
-314.7397573043508
31
0
0
LINE
5
142
100
AcDbEntity
8
0
100
AcDbLine
10
158.21472528309459
20
-314.7397573043508
30
0
11
160.53824255473958
21
-320.56763038068573
31
0
0
LINE
5
143
100
AcDbEntity
8
0
100
AcDbLine
10
160.53824255473958
20
-320.56763038068573
30
0
11
161.55826752999059
21
-324.41993040174748
31
0
0
LINE
5
144
100
AcDbEntity
8
0
100
AcDbLine
10
161.55826752999059
20
-324.41993040174748
30
0
11
164.83743953704834
21
-329.72821713716093
31
0
0
LINE
5
145
100
AcDbEntity
8
0
100
AcDbLine
10
164.83743953704834
20
-329.72821713716093
30
0
11
168.51676212093366
21
-336.3046976878349
31
0
0
LINE
5
146
100
AcDbEntity
8
0
100
AcDbLine
10
168.51676212093366
20
-336.3046976878349
30
0
11
175.36373901367188
21
-342.59300539990505
31
0
0
SPLINE
5
147
100
AcDbEntity
8
0
100
AcDbSpline
70
0
71
3
72
18
73
14
74
0
42
0.000000001
43
0.0000000001
44
0.0000000001
40
-1.5398270082783214
40
-1.5398270082783214
40
-1.5398270082783214
40
-1.5398270082783214
40
-1.2114332576286728
40
-1.2114332576286728
40
-0.96588198544252624
40
-0.96588198544252624
40
-0.81330256334646278
40
-0.81330256334646278
40
-0.65639330421052744
40
-0.65639330421052744
40
-0.37511907206976625
40
-0.37511907206976625
40
0
40
0
40
0
40
0
10
175.36373901367188
20
-342.59300539990505
30
0
10
176.01495417244917
20
-343.19108559928463
30
0
10
176.65500800560301
20
-343.7789151652687
30
0
10
177.79667002386077
20
-344.60670932418782
30
0
10
178.29080985827378
20
-344.89614546711914
30
0
10
179.11762376421046
20
-345.18840272637613
30
0
10
179.44202330437136
20
-345.25865788469724
30
0
10
180.12390628071972
20
-345.29277008729059
30
0
10
180.45990062552363
20
-345.25257052783104
30
0
10
181.39551978297246
20
-345.00893425475772
30
0
10
181.98056192065096
20
-344.70509609803628
30
0
10
183.4066660625939
20
-343.83898014121229
30
0
10
184.27952067506897
20
-343.21587217460115
30
0
10
185.36373901367188
20
-342.59300539990505
30
0
0
SPLINE
5
148
100
AcDbEntity
8
0
100
AcDbSpline
70
0
71
3
72
12
73
8
74
0
42
0.000000001
43
0.0000000001
44
0.0000000001
40
-0.63099838065232483
40
-0.63099838065232483
40
-0.63099838065232483
40
-0.63099838065232483
40
-0.55765838502907639
40
-0.55765838502907639
40
-0.41020785671537141
40
-0.41020785671537141
40
0
40
0
40
0
40
0
10
185.36373901367188
20
-342.59300539990505
30
0
10
185.45350167632304
20
-342.54143812956568
30
0
10
185.59721433368153
20
-342.45956409837191
30
0
10
186.29064858316013
20
-342.15501971639833
30
0
10
186.80495374596705
20
-342.00854813026433
30
0
10
188.67082239058217
20
-341.58399383061317
30
0
10
190.22384067300544
20
-341.45853934494113
30
0
10
191.54838979114683
20
-341.11906666991905
30
0
0
SPLINE
5
149
100
AcDbEntity
8
0
100
AcDbSpline
70
0
71
3
72
12
73
8
74
0
42
0.000000001
43
0.0000000001
44
0.0000000001
40
-0.37612680262298248
40
-0.37612680262298248
40
-0.37612680262298248
40
-0.37612680262298248
40
-0.27769441661292293
40
-0.27769441661292293
40
-0.18347507666693852
40
-0.18347507666693852
40
0
40
0
40
0
40
0
10
191.54838979114683
20
-341.11906666991905
30
0
10
192.14929142419999
20
-340.7329878393403
30
0
10
192.67558725326921
20
-340.29637639109251
30
0
10
193.55576094863392
20
-339.20101684224568
30
0
10
193.88276045445141
20
-338.59578547615479
30
0
10
194.70499782278137
20
-336.52394835017787
30
0
10
195.12462383709877
20
-334.63460242149176
30
0
10
195.25593081804701
20
-334.03728093104166
30
0
0
SPLINE
5
150
100
AcDbEntity
8
0
100
AcDbSpline
70
0
71
3
72
10
73
6
74
0
42
0.000000001
43
0.0000000001
44
0.0000000001
40
-0.40118312770807313
40
-0.40118312770807313
40
-0.40118312770807313
40
-0.40118312770807313
40
-0.22547909135520405
40
-0.22547909135520405
40
0
40
0
40
0
40
0
10
195.25593081804701
20
-334.03728093104166
30
0
10
195.42526973697491
20
-332.12071497426803
30
0
10
195.4070447089145
20
-331.12698517092872
30
0
10
195.59259257462111
20
-327.9164209974511
30
0
10
195.75384703908759
20
-327.29683915684825
30
0
10
195.93256189733393
20
-326.566798742532
30
0
0
SPLINE
5
151
100
AcDbEntity
8
0
100
AcDbSpline
70
0
71
3
72
10
73
6
74
0
42
0.000000001
43
0.0000000001
44
0.0000000001
40
-0.65348811457443223
40
-0.65348811457443223
40
-0.65348811457443223
40
-0.65348811457443223
40
-0.33761482918460456
40
-0.33761482918460456
40
0
40
0
40
0
40
0
10
195.93256189733393
20
-326.566798742532
30
0
10
195.97347869981877
20
-325.46225203504201
30
0
10
195.98909770200135
20
-324.38193147354627
30
0
10
195.99495749922181
20
-322.2646567757451
30
0
10
195.98394810253757
20
-321.02964057750904
30
0
10
195.95416420227684
20
-319.90465200659906
30
0
0
SPLINE
5
152
100
AcDbEntity
8
0
100
AcDbSpline
70
0
71
3
72
10
73
6
74
0
42
0.000000001
43
0.0000000001
44
0.0000000001
40
-0.29700423063005899
40
-0.29700423063005899
40
-0.29700423063005899
40
-0.29700423063005899
40
-0.17020428464189896
40
-0.17020428464189896
40
0
40
0
40
0
40
0
10
195.95416420227684
20
-319.90465200659906
30
0
10
195.8321750205551
20
-318.72241139296318
30
0
10
195.76748726443645
20
-318.15656456255613
30
0
10
195.58965210831556
20
-316.41836171358426
30
0
10
195.53750294753013
20
-315.75564752076787
30
0
10
195.49003068295153
20
-315.19028949183513
30
0
0
SPLINE
5
153
100
AcDbEntity
8
0
100
AcDbSpline
70
0
71
3
72
12
73
8
74
0
42
0.000000001
43
0.0000000001
44
0.0000000001
40
-0.27815137267808288
40
-0.27815137267808288
40
-0.27815137267808288
40
-0.27815137267808288
40
-0.19394436800962886
40
-0.19394436800962886
40
-0.11484325378891434
40
-0.11484325378891434
40
0
40
0
40
0
40
0
10
195.49003068295153
20
-315.19028949183513
30
0
10
195.46028855100599
20
-315.3466130028329
30
0
10
195.42811251152574
20
-315.5124623966264
30
0
10
195.39974616185307
20
-316.04886861869801
30
0
10
195.40584360118021
20
-316.32423054085075
30
0
10
195.42200512844315
20
-316.97050972317874
30
0
10
195.45557355652886
20
-317.37573055572688
30
0
10
195.31601616036517
20
-317.73219637030513
30
0
0
SPLINE
5
154
100
AcDbEntity
8
0
100
AcDbSpline
70
0
71
3
72
8
73
4
74
0
42
0.000000001
43
0.0000000001
44
0.0000000001
40
-0.25596821771738598
40
-0.25596821771738598
40
-0.25596821771738598
40
-0.25596821771738598
40
-0.20948136873638534
40
-0.20948136873638534
40
-0.20948136873638534
40
-0.20948136873638534
10
195.31601616036517
20
-317.73219637030513
30
0
10
195.14023605059177
20
-317.75659109230338
30
0
10
195.05872007459314
20
-317.77252842052445
30
0
10
194.94737801791345
20
-317.79376682380587
30
0
0
SPLINE
5
155
100
AcDbEntity
8
0
100
AcDbSpline
70
0
71
3
72
10
73
6
74
0
42
0.000000001
43
0.0000000001
44
0.0000000001
40
0.10486854868470112
40
0.10486854868470112
40
0.10486854868470112
40
0.10486854868470112
40
0.48217003372495709
40
0.48217003372495709
40
0.96994816868240341
40
0.96994816868240341
40
0.96994816868240341
40
0.96994816868240341
10
141.22359582764199
20
-308.32760422296928
30
0
10
141.81647679215089
20
-309.74162105727282
30
0
10
142.57709028615682
20
-311.53267016589763
30
0
10
144.2295684080367
20
-315.21414690741233
30
0
10
145.18731093692162
20
-317.21709464248056
30
0
10
146.12802111694097
20
-319.05877136046911
30
0
0
SPLINE
5
156
100
AcDbEntity
8
0
100
AcDbSpline
70
0
71
3
72
10
73
6
74
0
42
0.000000001
43
0.0000000001
44
0.0000000001
40
0
40
0
40
0
40
0
40
0.36567563321068897
40
0.36567563321068897
40
0.7319532619204332
40
0.7319532619204332
40
0.7319532619204332
40
0.7319532619204332
10
146.128021116941
20
-319.05877136046917
30
0
10
146.37958141469593
20
-320.25144918889396
30
0
10
146.63264527662145
20
-321.25956254610162
30
0
10
147.32827524538368
20
-323.47756125876111
30
0
10
147.74116974390063
20
-324.57691471404524
30
0
10
148.19273519758423
20
-325.60242576770668
30
0
0
SPLINE
5
157
100
AcDbEntity
8
0
100
AcDbSpline
70
0
71
3
72
16
73
12
74
0
42
0.000000001
43
0.0000000001
44
0.0000000001
40
0
40
0
40
0
40
0
40
0.19384194369132191
40
0.19384194369132191
40
0.38715397671005014
40
0.38715397671005014
40
0.50900182901792534
40
0.50900182901792534
40
0.61914296113384704
40
0.61914296113384704
40
0.83940495452822284
40
0.83940495452822284
40
0.83940495452822284
40
0.83940495452822284
10
148.19273519758423
20
-325.60242576770668
30
0
10
148.1956401550031
20
-326.24855904982979
30
0
10
148.19001495810221
20
-326.89477552476774
30
0
10
148.21105540876579
20
-328.18511724794564
30
0
10
148.21199011536461
20
-328.74016779097724
30
0
10
148.03504571454641
20
-329.53254066013028
30
0
10
147.92331766389151
20
-329.81056455566556
30
0
10
147.58053518663462
20
-330.30087944106083
30
0
10
147.36381800826996
20
-330.51447841837319
30
0
10
146.50343120174611
20
-331.12588433932751
30
0
10
145.64922669421554
20
-331.4945469040041
30
0
10
144.37973610642979
20
-331.90073307463376
30
0
0
SPLINE
5
158
100
AcDbEntity
8
0
100
AcDbSpline
70
0
71
3
72
10
73
6
74
0
42
0.000000001
43
0.0000000001
44
0.0000000001
40
0
40
0
40
0
40
0
40
0.45941051859367626
40
0.45941051859367626
40
1.1085583923408413
40
1.1085583923408413
40
1.1085583923408413
40
1.1085583923408413
10
144.3797361064299
20
-331.90073307463388
30
0
10
142.88600858942903
20
-332.23817531727042
30
0
10
141.09557668287127
20
-332.56599617668223
30
0
10
137.40904142457285
20
-333.16644555856851
30
0
10
136.03991226990536
20
-333.31842623872444
30
0
10
135.25914001464844
20
-333.40217855364631
30
0
0
SPLINE
5
159
100
AcDbEntity
8
0
100
AcDbSpline
70
0
71
3
72
10
73
6
74
0
42
0.000000001
43
0.0000000001
44
0.0000000001
40
0
40
0
40
0
40
0
40
0.58315503252547052
40
0.58315503252547052
40
1.5120263802167155
40
1.5120263802167155
40
1.5120263802167155
40
1.5120263802167155
10
135.25914001464844
20
-333.40217855364637
30
0
10
133.32637780809702
20
-333.60950317091118
30
0
10
131.62095719915669
20
-333.68343052782188
30
0
10
128.18683870371595
20
-333.73754031166118
30
0
10
127.12566601313179
20
-333.61598520067906
30
0
10
125.25914001464844
20
-333.40217855364631
30
0
0
LINE
5
160
100
AcDbEntity
8
0
100
AcDbLine
10
125.25914001464844
20
-333.40217855364637
30
0
11
122.91373049259437
21
-333.13351680115176
31
0
0
LINE
5
161
100
AcDbEntity
8
0
100
AcDbLine
10
122.91373049259437
20
-333.13351680115176
30
0
11
114.7328405380249
21
-330.36826283025079
31
0
0
LINE
5
162
100
AcDbEntity
8
0
100
AcDbLine
10
114.7328405380249
20
-330.36826283025079
30
0
11
114.25684680779467
21
-330.31312364927101
31
0
0
LINE
5
163
100
AcDbEntity
8
0
100
AcDbLine
10
114.25684680779467
20
-330.31312364927101
30
0
11
112.28075754147912
21
-329.74186762957697
31
0
0
LINE
5
164
100
AcDbEntity
8
0
100
AcDbLine
10
112.28075754147912
20
-329.74186762957697
30
0
11
106.06180570047738
21
-327.61296799657475
31
0
0
LINE
5
165
100
AcDbEntity
8
0
100
AcDbLine
10
106.06180570047738
20
-327.61296799657475
30
0
11
104.20653629302979
21
-326.48020718751502
31
0
0
LINE
5
166
100
AcDbEntity
8
0
100
AcDbLine
10
104.20653629302979
20
-326.48020718751502
30
0
11
98.699935185955781
21
-324.73870080620952
31
0
0
LINE
5
167
100
AcDbEntity
8
0
100
AcDbLine
10
98.699935185955781
20
-324.73870080620952
30
0
11
93.680236816406236
21
-322.03759494891523
31
0
0
LINE
5
168
100
AcDbEntity
8
0
100
AcDbLine
10
93.680236816406236
20
-322.03759494891523
30
0
11
92.537704558078758
21
-321.48861282187238
31
0
0
LINE
5
169
100
AcDbEntity
8
0
100
AcDbLine
10
92.537704558078758
20
-321.48861282187238
30
0
11
91.358408475644865
21
-320.72261505582003
31
0
0
LINE
5
170
100
AcDbEntity
8
0
100
AcDbLine
10
91.358408475644865
20
-320.72261505582003
30
0
11
93.680236816406236
21
-317.55408678186183
31
0
0
LINE
5
171
100
AcDbEntity
8
0
100
AcDbLine
10
93.680236816406236
20
-317.55408678186183
30
0
11
96.358083529030097
21
-313.33695955784509
31
0
0
LINE
5
172
100
AcDbEntity
8
0
100
AcDbLine
10
96.358083529030097
20
-313.33695955784509
30
0
11
104.20653629302977
21
-310.35214029651013
31
0
0
LINE
5
173
100
AcDbEntity
8
0
100
AcDbLine
10
104.20653629302977
20
-310.35214029651013
30
0
11
113.11967544938632
21
-305.43723466277038
31
0
0
LINE
5
174
100
AcDbEntity
8
0
100
AcDbLine
10
113.11967544938632
20
-305.43723466277038
30
0
11
114.01249991255987
21
-304.97145470970003
31
0
0
LINE
5
175
100
AcDbEntity
8
0
100
AcDbLine
10
114.01249991255987
20
-304.97145470970003
30
0
11
112.81011459579331
21
-305.16075223642252
31
0
0
LINE
5
176
100
AcDbEntity
8
0
100
AcDbLine
10
112.81011459579331
20
-305.16075223642252
30
0
11
109.63760553560829
21
-305.48059826365818
31
0
0
LINE
5
177
100
AcDbEntity
8
0
100
AcDbLine
10
109.63760553560829
20
-305.48059826365818
30
0
11
104.20653629302977
21
-308.47541213891822
31
0
0
LINE
5
178
100
AcDbEntity
8
0
100
AcDbLine
10
104.20653629302977
20
-308.47541213891822
30
0
11
98.208980056036509
21
-310.75632302867098
31
0
0
LINE
5
179
100
AcDbEntity
8
0
100
AcDbLine
10
98.208980056036509
20
-310.75632302867098
30
0
11
93.680236816406236
21
-312.59872381368666
31
0
0
LINE
5
180
100
AcDbEntity
8
0
100
AcDbLine
10
93.680236816406236
20
-312.59872381368666
30
0
11
87.670270267917786
21
-314.50775416426632
31
0
0
LINE
5
181
100
AcDbEntity
8
0
100
AcDbLine
10
87.670270267917786
20
-314.50775416426632
30
0
11
83.153837203979478
21
-320.65202455064315
31
0
0
LINE
5
182
100
AcDbEntity
8
0
100
AcDbLine
10
83.153837203979478
20
-320.65202455064315
30
0
11
82.938611595074093
21
-321.19577767737894
31
0
0
LINE
5
183
100
AcDbEntity
8
0
100
AcDbLine
10
82.938611595074093
20
-321.19577767737894
30
0
11
83.010072128847625
21
-321.28504066869129
31
0
0
LINE
5
184
100
AcDbEntity
8
0
100
AcDbLine
10
83.010072128847625
20
-321.28504066869129
30
0
11
83.153837203979478
21
-321.47587234247993
31
0
0
LINE
5
185
100
AcDbEntity
8
0
100
AcDbLine
10
83.153837203979478
20
-321.47587234247993
30
0
11
88.29825303469265
21
-324.81736655472054
31
0
0
LINE
5
186
100
AcDbEntity
8
0
100
AcDbLine
10
88.29825303469265
20
-324.81736655472054
30
0
11
93.680236816406236
21
-327.40338798445242
31
0
0
LINE
5
187
100
AcDbEntity
8
0
100
AcDbLine
10
93.680236816406236
20
-327.40338798445242
30
0
11
94.869091276435114
21
-328.04311202941392
31
0
0
LINE
5
188
100
AcDbEntity
8
0
100
AcDbLine
10
94.869091276435114
20
-328.04311202941392
30
0
11
98.519574072750942
21
-329.19760623754945
31
0
0
LINE
5
189
100
AcDbEntity
8
0
100
AcDbLine
10
98.519574072750942
20
-329.19760623754945
30
0
11
103.08976949432537
21
-330.33757075039512
31
0
0
LINE
5
190
100
AcDbEntity
8
0
100
AcDbLine
10
103.08976949432537
20
-330.33757075039512
30
0
11
104.20653629302979
21
-330.46370873937968
31
0
0
LINE
5
191
100
AcDbEntity
8
0
100
AcDbLine
10
104.20653629302979
20
-330.46370873937968
30
0
11
111.78976361037515
21
-332.65589930869459
31
0
0
LINE
5
192
100
AcDbEntity
8
0
100
AcDbLine
10
111.78976361037515
20
-332.65589930869459
30
0
11
114.7328405380249
21
-332.9968257559247
31
0
0
LINE
5
193
100
AcDbEntity
8
0
100
AcDbLine
10
114.7328405380249
20
-332.9968257559247
30
0
11
120.9581031306211
21
-335.10105062628406
31
0
0
LINE
5
194
100
AcDbEntity
8
0
100
AcDbLine
10
120.9581031306211
20
-335.10105062628406
30
0
11
125.25914001464844
21
-335.59372540053602
31
0
0
SPLINE
5
195
100
AcDbEntity
8
0
100
AcDbSpline
70
0
71
3
72
16
73
12
74
0
42
0.000000001
43
0.0000000001
44
0.0000000001
40
-1.3195250236068485
40
-1.3195250236068485
40
-1.3195250236068485
40
-1.3195250236068485
40
-1.1770057923293828
40
-1.1770057923293828
40
-0.66291942140276872
40
-0.66291942140276872
40
-0.46186311358355003
40
-0.46186311358355003
40
-0.2991133992184809
40
-0.2991133992184809
40
0
40
0
40
0
40
0
10
135.25914001464844
20
-335.59372540053602
30
0
10
134.90046970475944
20
-335.62429318151351
30
0
10
134.5427560014835
20
-335.65200037728641
30
0
10
132.88803027079084
20
-335.76737642453969
30
0
10
131.521717179988
20
-335.82426463629133
30
0
10
129.81229287748673
20
-335.85535610647969
30
0
10
129.2988454429059
20
-335.85979456052894
30
0
10
128.42445229485526
20
-335.8515114439578
30
0
10
128.02418439010279
20
-335.84166318159197
30
0
10
126.88708350979455
20
-335.780202921095
30
0
10
126.24970713174507
20
-335.70719279083193
30
0
10
125.25914001464844
20
-335.59372540053602
30
0
0
SPLINE
5
196
100
AcDbEntity
8
0
100
AcDbSpline
70
0
71
3
72
20
73
16
74
0
42
0.000000001
43
0.0000000001
44
0.0000000001
40
-0.69303409425961182
40
-0.69303409425961182
40
-0.69303409425961182
40
-0.69303409425961182
40
-0.59308398623205572
40
-0.59308398623205572
40
-0.38090368326259361
40
-0.38090368326259361
40
-0.25728559627780961
40
-0.25728559627780961
40
-0.10230953205603525
40
-0.10230953205603525
40
-0.046108126464505142
40
-0.046108126464505142
40
-0.034481923220252543
40
-0.034481923220252543
40
0
40
0
40
0
40
0
10
150.7128315697872
20
-337.19459202359616
30
0
10
150.06671222413644
20
-336.99117539814347
30
0
10
149.42600829796964
20
-336.76136094810153
30
0
10
147.51753211079227
20
-336.09933171283018
30
0
10
146.29604806535832
20
-335.70825863234057
30
0
10
143.64311597114832
20
-335.37671802841197
30
0
10
142.64764774163271
20
-335.33475661065216
30
0
10
140.46047956689796
20
-335.3250704450694
30
0
10
139.14978355060236
20
-335.37839357527156
30
0
10
137.22921504541449
20
-335.47521579319158
30
0
10
136.53614542168154
20
-335.51188859406966
30
0
10
135.96376486895588
20
-335.54495607427293
30
0
10
135.85995664395182
20
-335.55110740984952
30
0
10
135.46768171863081
20
-335.57566896505216
30
0
10
135.37366459516775
20
-335.58396501001204
30
0
10
135.25914001464844
20
-335.59372540053602
30
0
0
ARC
5
197
100
AcDbEntity
8
0
100
AcDbCircle
10
175.25914001464886
20
-332.45341491699207
30
0
40
25.000000372529488
210
0
220
0
230
1
100
AcDbArc
50
190.93218899730846
51
210.00000147877856
0
LINE
5
198
100
AcDbEntity
8
0
100
AcDbLine
10
153.60850492003735
20
-344.95341566205008
30
0
11
153.60850492003735
21
-337.55341491699221
31
0
0
LINE
5
199
100
AcDbEntity
8
0
100
AcDbLine
10
153.60850492003735
20
-337.55341491699221
30
0
11
159.10776623406835
21
-340.72841491699222
31
0
0
LINE
5
200
100
AcDbEntity
8
0
100
AcDbLine
10
159.10776623406835
20
-340.72841491699222
30
0
11
159.10776623406835
21
-324.17841491699221
31
0
0
LINE
5
201
100
AcDbEntity
8
0
100
AcDbLine
10
159.10776623406835
20
-324.17841491699221
30
0
11
153.60850492003735
21
-327.35341491699222
31
0
0
LINE
5
202
100
AcDbEntity
8
0
100
AcDbLine
10
153.60850492003735
20
-327.35341491699222
30
0
11
153.60850492003732
21
-319.95341417193441
31
0
0
ARC
5
203
100
AcDbEntity
8
0
100
AcDbCircle
10
175.25914001464886
20
-332.45341491699207
30
0
40
25.000000372529342
210
0
220
0
230
1
100
AcDbArc
50
149.99999852122215
51
164.17725955904535
0
SPLINE
5
204
100
AcDbEntity
8
0
100
AcDbSpline
70
0
71
3
72
10
73
6
74
0
42
0.000000001
43
0.0000000001
44
0.0000000001
40
-0.63061850274781417
40
-0.63061850274781417
40
-0.63061850274781417
40
-0.63061850274781417
40
-0.21331185674428946
40
-0.21331185674428946
40
-0.073563013923828718
40
-0.073563013923828718
40
-0.073563013923828718
40
-0.073563013923828718
10
148.58254041069893
20
-321.38380115339083
30
0
10
148.93119318090419
20
-322.24018347483189
30
0
10
149.47097894768851
20
-323.41666263799624
30
0
10
150.57222236001098
20
-324.92846765287561
30
0
10
150.87691615394576
20
-325.29766078715511
30
0
10
151.20639338319478
20
-325.63686167436686
30
0
0
SPLINE
5
205
100
AcDbEntity
8
0
100
AcDbSpline
70
0
71
3
72
12
73
8
74
0
42
0.000000001
43
0.0000000001
44
0.0000000001
40
-1.1953548504658049
40
-1.1953548504658049
40
-1.1953548504658049
40
-1.1953548504658049
40
-0.68096440914781975
40
-0.68096440914781975
40
-0.22598487772269943
40
-0.22598487772269943
40
0
40
0
40
0
40
0
10
143.20704788422046
20
-310.64648921824732
30
0
10
143.904438725868
20
-312.29187562480666
30
0
10
144.54879646991401
20
-313.76010304261706
30
0
10
145.9740086500934
20
-316.72333120872963
30
0
10
146.67899982782606
20
-318.08526415444851
30
0
10
147.79427107139259
20
-320.07046703987157
30
0
10
148.18704241949465
20
-320.74269546384477
30
0
10
148.58254041069893
20
-321.38380115339083
30
0
0
SPLINE
5
206
100
AcDbEntity
8
0
100
AcDbSpline
70
0
71
3
72
8
73
4
74
0
42
0.000000001
43
0.0000000001
44
0.0000000001
40
-0.33991617092237814
40
-0.33991617092237814
40
-0.33991617092237814
40
-0.33991617092237814
40
0
40
0
40
0
40
0
10
141.22359582764199
20
-308.32760422296928
30
0
10
141.83717977920782
20
-308.99323771776938
30
0
10
142.50120951829504
20
-309.76014653707927
30
0
10
143.20704788422046
20
-310.64648921824732
30
0
0
SPLINE
5
207
100
AcDbEntity
8
0
100
AcDbSpline
70
0
71
3
72
10
73
6
74
0
42
0.000000001
43
0.0000000001
44
0.0000000001
40
-2.5278740855658821
40
-2.5278740855658821
40
-2.5278740855658821
40
-2.5278740855658821
40
-1.0053368384351582
40
-1.0053368384351582
40
-0.3407830242794998
40
-0.3407830242794998
40
-0.3407830242794998
40
-0.3407830242794998
10
135.25914001464838
20
-303.43302190234715
30
0
10
135.53450371978738
20
-303.55195212622937
30
0
10
136.52789951459224
20
-303.98729014719441
30
0
10
139.03979652139998
20
-306.12019671896053
30
0
10
140.02997466469873
20
-307.03272970069781
30
0
10
141.22359582764201
20
-308.32760422296934
30
0
0
SPLINE
5
208
100
AcDbEntity
8
0
100
AcDbSpline
70
0
71
3
72
10
73
6
74
0
42
0.000000001
43
0.0000000001
44
0.0000000001
40
-0.74708243918784112
40
-0.74708243918784112
40
-0.74708243918784112
40
-0.74708243918784112
40
-0.34886450207126718
40
-0.34886450207126718
40
0
40
0
40
0
40
0
10
125.25914001464841
20
-303.43302190234721
30
0
10
127.82212798123105
20
-302.9896256438156
30
0
10
129.91996633361504
20
-302.62670014881559
30
0
10
133.20662893838448
20
-302.66397938133491
30
0
10
134.19157482366998
20
-302.97193801655402
30
0
10
135.25914001464844
20
-303.43302190234715
30
0
0
LINE
5
209
100
AcDbEntity
8
0
100
AcDbLine
10
125.25914001464841
20
-303.43302190234721
30
0
11
119.220694726408
21
-304.47767138297792
31
0
0
LINE
5
210
100
AcDbEntity
8
0
100
AcDbLine
10
119.220694726408
20
-304.47767138297792
30
0
11
114.73284053802489
21
-304.85804788669844
31
0
0
LINE
5
211
100
AcDbEntity
8
0
100
AcDbLine
10
114.73284053802489
20
-304.85804788669844
30
0
11
114.0124999125598
21
-304.97145470970008
31
0
0
LINE
5
212
100
AcDbEntity
8
0
100
AcDbLine
10
114.0124999125598
20
-304.97145470970008
30
0
11
113.11967544938632
21
-305.43723466277038
31
0
0
LINE
5
213
100
AcDbEntity
8
0
100
AcDbLine
10
113.11967544938632
20
-305.43723466277038
30
0
11
104.20653629302977
21
-310.35214029651013
31
0
0
LINE
5
214
100
AcDbEntity
8
0
100
AcDbLine
10
104.20653629302977
20
-310.35214029651013
30
0
11
96.358083529030097
21
-313.33695955784509
31
0
0
LINE
5
215
100
AcDbEntity
8
0
100
AcDbLine
10
96.358083529030097
20
-313.33695955784509
30
0
11
93.680236816406236
21
-317.55408678186183
31
0
0
LINE
5
216
100
AcDbEntity
8
0
100
AcDbLine
10
93.680236816406236
20
-317.55408678186183
30
0
11
91.358408475644865
21
-320.72261505582003
31
0
0
LINE
5
217
100
AcDbEntity
8
0
100
AcDbLine
10
91.358408475644865
20
-320.72261505582003
30
0
11
92.537704558078758
21
-321.48861282187238
31
0
0
LINE
5
218
100
AcDbEntity
8
0
100
AcDbLine
10
92.537704558078758
20
-321.48861282187238
30
0
11
93.680236816406236
21
-322.03759494891523
31
0
0
LINE
5
219
100
AcDbEntity
8
0
100
AcDbLine
10
93.680236816406236
20
-322.03759494891523
30
0
11
98.699935185955781
21
-324.73870080620952
31
0
0
LINE
5
220
100
AcDbEntity
8
0
100
AcDbLine
10
98.699935185955781
20
-324.73870080620952
30
0
11
104.20653629302979
21
-326.48020718751502
31
0
0
LINE
5
221
100
AcDbEntity
8
0
100
AcDbLine
10
104.20653629302979
20
-326.48020718751502
30
0
11
106.06180570047738
21
-327.61296799657475
31
0
0
LINE
5
222
100
AcDbEntity
8
0
100
AcDbLine
10
106.06180570047738
20
-327.61296799657475
30
0
11
112.28075754147912
21
-329.74186762957697
31
0
0
LINE
5
223
100
AcDbEntity
8
0
100
AcDbLine
10
112.28075754147912
20
-329.74186762957697
30
0
11
114.25684680779467
21
-330.31312364927101
31
0
0
LINE
5
224
100
AcDbEntity
8
0
100
AcDbLine
10
114.25684680779467
20
-330.31312364927101
30
0
11
114.7328405380249
21
-330.36826283025079
31
0
0
LINE
5
225
100
AcDbEntity
8
0
100
AcDbLine
10
114.7328405380249
20
-330.36826283025079
30
0
11
122.91373049259437
21
-333.13351680115176
31
0
0
LINE
5
226
100
AcDbEntity
8
0
100
AcDbLine
10
122.91373049259437
20
-333.13351680115176
30
0
11
125.25914001464844
21
-333.40217855364637
31
0
0
SPLINE
5
227
100
AcDbEntity
8
0
100
AcDbSpline
70
0
71
3
72
16
73
12
74
0
42
0.000000001
43
0.0000000001
44
0.0000000001
40
0
40
0
40
0
40
0
40
0.33929037716604687
40
0.33929037716604687
40
0.54957716638454523
40
0.54957716638454523
40
0.6828721207291667
40
0.6828721207291667
40
0.86463099328800008
40
0.86463099328800008
40
1.0016078896136238
40
1.0016078896136238
40
1.0016078896136238
40
1.0016078896136238
10
135.25914001464844
20
-333.40217855364637
30
0
10
134.13462323702038
20
-333.52280384823217
30
0
10
133.01139526232106
20
-333.60486242944251
30
0
10
131.21958080938887
20
-333.68554716152289
30
0
10
130.49890321400736
20
-333.70590649821759
30
0
10
129.38361628639694
20
-333.71155334613269
30
0
10
128.93934728202549
20
-333.70704376622194
30
0
10
127.90251441890558
20
-333.66953368269537
30
0
10
127.37654343030711
20
-333.62947930033545
30
0
10
126.32910335508484
20
-333.52474061517273
30
0
10
125.83971878735674
20
-333.46868263707836
30
0
10
125.25914001464844
20
-333.40217855364631
30
0
0
SPLINE
5
228
100
AcDbEntity
8
0
100
AcDbSpline
70
0
71
3
72
12
73
8
74
0
42
0.000000001
43
0.0000000001
44
0.0000000001
40
0
40
0
40
0
40
0
40
0.49756568356096031
40
0.49756568356096031
40
0.76131926821578744
40
0.76131926821578744
40
0.90742715844158039
40
0.90742715844158039
40
0.90742715844158039
40
0.90742715844158039
10
144.3797361064299
20
-331.90073307463376
30
0
10
142.76195087302801
20
-332.26620071920104
30
0
10
140.78557314823601
20
-332.62325837915637
30
0
10
138.23838342224175
20
-333.02618072209361
30
0
10
137.31536994897431
20
-333.15970184265467
30
0
10
135.91770951219235
20
-333.33156370843886
30
0
10
135.53487039772133
20
-333.37260135271327
30
0
10
135.25914001464844
20
-333.40217855364637
30
0
0
SPLINE
5
229
100
AcDbEntity
8
0
100
AcDbSpline
70
0
71
3
72
18
73
14
74
0
42
0.000000001
43
0.0000000001
44
0.0000000001
40
0
40
0
40
0
40
0
40
0.11980452530158206
40
0.11980452530158206
40
0.2184847041145539
40
0.2184847041145539
40
0.29018078741430886
40
0.29018078741430886
40
0.35683089842681198
40
0.35683089842681198
40
0.43735676830642789
40
0.43735676830642789
40
0.51968057713619964
40
0.51968057713619964
40
0.51968057713619964
40
0.51968057713619964
10
148.19273519758423
20
-325.60242576770668
30
0
10
148.19453061418997
20
-326.00177014938282
30
0
10
148.18140798985607
20
-326.28047129735569
30
0
10
148.2020569499951
20
-327.71870012590517
30
0
10
148.2210304565827
20
-328.25233756488774
30
0
10
148.14658436255203
20
-329.07845586284361
30
0
10
148.08272495500921
20
-329.39298099409928
30
0
10
147.8421649717165
20
-329.95125095582119
30
0
10
147.67630321398957
20
-330.19256171154262
30
0
10
147.1587994067695
20
-330.69112641369111
30
0
10
146.77658776587774
20
-330.9405626919343
30
0
10
145.72871292260831
20
-331.43976683377963
30
0
10
145.09384921937578
20
-331.67224546430032
30
0
10
144.37973610642979
20
-331.90073307463376
30
0
0
SPLINE
5
230
100
AcDbEntity
8
0
100
AcDbSpline
70
0
71
3
72
10
73
6
74
0
42
0.000000001
43
0.0000000001
44
0.0000000001
40
0
40
0
40
0
40
0
40
0.37337334718695825
40
0.37337334718695825
40
0.73321831302436857
40
0.73321831302436857
40
0.73321831302436857
40
0.73321831302436857
10
146.12802111694097
20
-319.05877136046917
30
0
10
146.38487692537268
20
-320.27655584614763
30
0
10
146.64298932971118
20
-321.30044947810336
30
0
10
147.34298866343462
20
-323.516423065916
30
0
10
147.74930683329441
20
-324.59539415052529
30
0
10
148.19273519758423
20
-325.60242576770668
30
0
0
SPLINE
5
231
100
AcDbEntity
8
0
100
AcDbSpline
70
0
71
3
72
10
73
6
74
0
42
0.000000001
43
0.0000000001
44
0.0000000001
40
0.10827299993856478
40
0.10827299993856478
40
0.10827299993856478
40
0.10827299993856478
40
0.52564219765224296
40
0.52564219765224296
40
1.0264052057608013
40
1.0264052057608013
40
1.0264052057608013
40
1.0264052057608013
10
141.22359582764199
20
-308.32760422296928
30
0
10
141.84424305641568
20
-309.8078433977534
30
0
10
142.60911448870374
20
-311.60892712266082
30
0
10
144.272964717147
20
-315.30442843538412
30
0
10
145.21014565421044
20
-317.26179934333948
30
0
10
146.12802111694097
20
-319.05877136046911
30
0
0
LINE
5
232
100
AcDbEntity
8
0
100
AcDbLine
10
34.039236249957753
20
-306.32265993736701
30
0
11
31.159773089845086
21
-306.61296166223576
31
0
0
LINE
5
233
100
AcDbEntity
8
0
100
AcDbLine
10
31.159773089845086
20
-306.61296166223576
30
0
11
27.78223514556883
21
-308.47541213891822
31
0
0
LINE
5
234
100
AcDbEntity
8
0
100
AcDbLine
10
27.78223514556883
20
-308.47541213891822
30
0
11
21.784678908575561
21
-310.75632302867098
31
0
0
LINE
5
235
100
AcDbEntity
8
0
100
AcDbLine
10
21.784678908575561
20
-310.75632302867098
30
0
11
17.255935668945295
21
-312.59872381368666
31
0
0
LINE
5
236
100
AcDbEntity
8
0
100
AcDbLine
10
17.255935668945295
20
-312.59872381368666
30
0
11
11.245969120456838
21
-314.50775416426632
31
0
0
LINE
5
237
100
AcDbEntity
8
0
100
AcDbLine
10
11.245969120456838
20
-314.50775416426632
30
0
11
6.7295360565185369
21
-320.65202455064315
31
0
0
LINE
5
238
100
AcDbEntity
8
0
100
AcDbLine
10
6.7295360565185369
20
-320.65202455064315
30
0
11
6.5143104476131519
21
-321.19577767737894
31
0
0
LINE
5
239
100
AcDbEntity
8
0
100
AcDbLine
10
6.5143104476131519
20
-321.19577767737894
30
0
11
6.5857709813866805
21
-321.28504066869129
31
0
0
LINE
5
240
100
AcDbEntity
8
0
100
AcDbLine
10
6.5857709813866805
20
-321.28504066869129
30
0
11
6.7295360565185369
21
-321.47587234247993
31
0
0
LINE
5
241
100
AcDbEntity
8
0
100
AcDbLine
10
6.7295360565185369
20
-321.47587234247993
30
0
11
11.873951887231708
21
-324.81736655472054
31
0
0
LINE
5
242
100
AcDbEntity
8
0
100
AcDbLine
10
11.873951887231708
20
-324.81736655472054
30
0
11
17.255935668945295
21
-327.40338798445242
31
0
0
LINE
5
243
100
AcDbEntity
8
0
100
AcDbLine
10
17.255935668945295
20
-327.40338798445242
30
0
11
18.444790128974162
21
-328.04311202941392
31
0
0
LINE
5
244
100
AcDbEntity
8
0
100
AcDbLine
10
18.444790128974162
20
-328.04311202941392
30
0
11
22.09527292528999
21
-329.19760623754945
31
0
0
LINE
5
245
100
AcDbEntity
8
0
100
AcDbLine
10
22.09527292528999
20
-329.19760623754945
30
0
11
26.665468346864429
21
-330.33757075039512
31
0
0
LINE
5
246
100
AcDbEntity
8
0
100
AcDbLine
10
26.665468346864429
20
-330.33757075039512
30
0
11
27.782235145568841
21
-330.46370873937968
31
0
0
LINE
5
247
100
AcDbEntity
8
0
100
AcDbLine
10
27.782235145568841
20
-330.46370873937968
30
0
11
35.365462462914209
21
-332.65589930869459
31
0
0
LINE
5
248
100
AcDbEntity
8
0
100
AcDbLine
10
35.365462462914209
20
-332.65589930869459
30
0
11
38.308539390563958
21
-332.9968257559247
31
0
0
LINE
5
249
100
AcDbEntity
8
0
100
AcDbLine
10
38.308539390563958
20
-332.9968257559247
30
0
11
44.533801983160153
21
-335.10105062628406
31
0
0
LINE
5
250
100
AcDbEntity
8
0
100
AcDbLine
10
44.533801983160153
20
-335.10105062628406
30
0
11
48.834838867187493
21
-335.59372540053602
31
0
0
SPLINE
5
251
100
AcDbEntity
8
0
100
AcDbSpline
70
0
71
3
72
16
73
12
74
0
42
0.000000001
43
0.0000000001
44
0.0000000001
40
-1.3195250236068485
40
-1.3195250236068485
40
-1.3195250236068485
40
-1.3195250236068485
40
-1.1770057923293828
40
-1.1770057923293828
40
-0.66291942140276872
40
-0.66291942140276872
40
-0.46186311358355003
40
-0.46186311358355003
40
-0.2991133992184809
40
-0.2991133992184809
40
0
40
0
40
0
40
0
10
58.834838867187493
20
-335.59372540053602
30
0
10
58.4761685572985
20
-335.62429318151351
30
0
10
58.118454854022552
20
-335.65200037728641
30
0
10
56.463729123329891
20
-335.76737642453969
30
0
10
55.09741603252705
20
-335.82426463629133
30
0
10
53.387991730025789
20
-335.85535610647969
30
0
10
52.874544295444949
20
-335.85979456052894
30
0
10
52.000151147394305
20
-335.8515114439578
30
0
10
51.59988324264183
20
-335.84166318159197
30
0
10
50.462782362333613
20
-335.780202921095
30
0
10
49.825405984284131
20
-335.70719279083193
30
0
10
48.834838867187493
20
-335.59372540053602
30
0
0
SPLINE
5
252
100
AcDbEntity
8
0
100
AcDbSpline
70
0
71
3
72
20
73
16
74
0
42
0.000000001
43
0.0000000001
44
0.0000000001
40
-0.69303409425961182
40
-0.69303409425961182
40
-0.69303409425961182
40
-0.69303409425961182
40
-0.59308398623205572
40
-0.59308398623205572
40
-0.38090368326259361
40
-0.38090368326259361
40
-0.25728559627780961
40
-0.25728559627780961
40
-0.10230953205603525
40
-0.10230953205603525
40
-0.046108126464505142
40
-0.046108126464505142
40
-0.034481923220252543
40
-0.034481923220252543
40
0
40
0
40
0
40
0
10
74.288530422326247
20
-337.19459202359616
30
0
10
73.642411076675501
20
-336.99117539814347
30
0
10
73.001707150508707
20
-336.76136094810153
30
0
10
71.093230963331308
20
-336.09933171283018
30
0
10
69.871746917897354
20
-335.70825863234057
30
0
10
67.218814823687353
20
-335.37671802841197
30
0
10
66.223346594171787
20
-335.33475661065216
30
0
10
64.036178419437007
20
-335.3250704450694
30
0
10
62.725482403141399
20
-335.37839357527156
30
0
10
60.804913897953547
20
-335.47521579319158
30
0
10
60.11184427422058
20
-335.51188859406966
30
0
10
59.53946372149494
20
-335.54495607427293
30
0
10
59.435655496490881
20
-335.55110740984952
30
0
10
59.043380571169862
20
-335.57566896505216
30
0
10
58.949363447706808
20
-335.58396501001204
30
0
10
58.834838867187493
20
-335.59372540053602
30
0
0
ARC
5
253
100
AcDbEntity
8
0
100
AcDbCircle
10
98.834838867187059
20
-332.45341491699236
30
0
40
25.000000372528575
210
0
220
0
230
1
100
AcDbArc
50
190.9321889973082
51
197.71860676971673
0
ARC
5
254
100
AcDbEntity
8
0
100
AcDbCircle
10
98.834838867187059
20
-332.45341491699236
30
0
40
25.000000372528572
210
0
220
0
230
1
100
AcDbArc
50
197.71860676971673
51
210.00000147877901
0
LINE
5
255
100
AcDbEntity
8
0
100
AcDbLine
10
77.184203772576424
20
-344.95341566205008
30
0
11
77.184203772576396
21
-337.55341491699221
31
0
0
LINE
5
256
100
AcDbEntity
8
0
100
AcDbLine
10
77.184203772576396
20
-337.55341491699221
30
0
11
82.683465086607399
21
-340.72841491699222
31
0
0
LINE
5
257
100
AcDbEntity
8
0
100
AcDbLine
10
82.683465086607399
20
-340.72841491699222
30
0
11
82.683465086607399
21
-324.17841491699221
31
0
0
LINE
5
258
100
AcDbEntity
8
0
100
AcDbLine
10
82.683465086607399
20
-324.17841491699221
30
0
11
77.184203772576396
21
-327.35341491699222
31
0
0
LINE
5
259
100
AcDbEntity
8
0
100
AcDbLine
10
77.184203772576396
20
-327.35341491699222
30
0
11
77.184203772576382
21
-319.95341417193441
31
0
0
ARC
5
260
100
AcDbEntity
8
0
100
AcDbCircle
10
98.834838867187059
20
-332.45341491699236
30
0
40
25.000000372528728
210
0
220
0
230
1
100
AcDbArc
50
149.99999852122056
51
159.70486457139043
0
ARC
5
261
100
AcDbEntity
8
0
100
AcDbCircle
10
98.834838867187059
20
-332.45341491699236
30
0
40
25.000000372528657
210
0
220
0
230
1
100
AcDbArc
50
159.70486457139043
51
164.17725955904416
0
SPLINE
5
262
100
AcDbEntity
8
0
100
AcDbSpline
70
0
71
3
72
10
73
6
74
0
42
0.000000001
43
0.0000000001
44
0.0000000001
40
-0.63061850274781417
40
-0.63061850274781417
40
-0.63061850274781417
40
-0.63061850274781417
40
-0.21331185674428946
40
-0.21331185674428946
40
-0.073563013923828718
40
-0.073563013923828718
40
-0.073563013923828718
40
-0.073563013923828718
10
72.158239263237988
20
-321.38380115339083
30
0
10
72.506892033443251
20
-322.24018347483189
30
0
10
73.046677800227556
20
-323.41666263799624
30
0
10
74.147921212550031
20
-324.92846765287561
30
0
10
74.45261500648482
20
-325.29766078715511
30
0
10
74.782092235733828
20
-325.63686167436686
30
0
0
SPLINE
5
263
100
AcDbEntity
8
0
100
AcDbSpline
70
0
71
3
72
12
73
8
74
0
42
0.000000001
43
0.0000000001
44
0.0000000001
40
-1.0910822434979066
40
-1.0910822434979066
40
-1.0910822434979066
40
-1.0910822434979066
40
-0.68096440914781975
40
-0.68096440914781975
40
-0.22598487772269943
40
-0.22598487772269943
40
0
40
0
40
0
40
0
10
67.201710087469849
20
-311.62759845425768
30
0
10
67.746064471479187
20
-312.89136960975281
30
0
10
68.277801690185072
20
-314.07884979010186
30
0
10
69.549707502632444
20
-316.72333120872963
30
0
10
70.254698680365109
20
-318.08526415444851
30
0
10
71.369969923931635
20
-320.07046703987157
30
0
10
71.762741272033693
20
-320.74269546384477
30
0
10
72.158239263237959
20
-321.38380115339083
30
0
0
SPLINE
5
264
100
AcDbEntity
8
0
100
AcDbSpline
70
0
71
3
72
10
73
6
74
0
42
0.000000001
43
0.0000000001
44
0.0000000001
40
-1.2938454191184916
40
-1.2938454191184916
40
-1.2938454191184916
40
-1.2938454191184916
40
-0.5236188334250873
40
-0.5236188334250873
40
-0.39001113893398659
40
-0.39001113893398659
40
-0.39001113893398659
40
-0.39001113893398659
10
60.771431898680035
20
-305.27491207075201
30
0
10
62.703809824380095
20
-306.72695583001405
30
0
10
64.794878195065124
20
-308.87103522059203
30
0
10
66.67153370509854
20
-311.00437732813475
30
0
10
66.939289745244835
20
-311.31568171784659
30
0
10
67.20171008746982
20
-311.62759845425768
30
0
0
SPLINE
5
265
100
AcDbEntity
8
0
100
AcDbSpline
70
0
71
3
72
10
73
6
74
0
42
0.000000001
43
0.0000000001
44
0.0000000001
40
-0.25767132820832206
40
-0.25767132820832206
40
-0.25767132820832206
40
-0.25767132820832206
40
-0.12715335054938395
40
-0.12715335054938395
40
0
40
0
40
0
40
0
10
58.834838867187486
20
-304.43425017489164
30
0
10
58.959249085038643
20
-304.46828622480825
30
0
10
59.214038695384453
20
-304.53901181827098
30
0
10
60.00425849534863
20
-304.86989448467295
30
0
10
60.400477591266096
20
-305.06988264958591
30
0
10
60.77143189868
20
-305.27491207075195
30
0
0
SPLINE
5
266
100
AcDbEntity
8
0
100
AcDbSpline
70
0
71
3
72
10
73
6
74
0
42
0.000000001
43
0.0000000001
44
0.0000000001
40
-0.70348292234720922
40
-0.70348292234720922
40
-0.70348292234720922
40
-0.70348292234720922
40
-0.35138781950434761
40
-0.35138781950434761
40
0
40
0
40
0
40
0
10
48.834838867187472
20
-304.43425017489164
30
0
10
51.262189957306681
20
-304.17743083612413
30
0
10
53.268939522768335
20
-303.96511210787276
30
0
10
56.644856272804049
20
-303.93813979690333
30
0
10
57.705062699072343
20
-304.12516689606838
30
0
10
58.834838867187493
20
-304.43425017489164
30
0
0
LINE
5
267
100
AcDbEntity
8
0
100
AcDbLine
10
48.834838867187472
20
-304.43425017489164
30
0
11
48.06221899662178
21
-304.51599513757344
31
0
0
LINE
5
268
100
AcDbEntity
8
0
100
AcDbLine
10
48.06221899662178
20
-304.51599513757344
30
0
11
46.581304114433983
21
-304.4545939188834
31
0
0
LINE
5
269
100
AcDbEntity
8
0
100
AcDbLine
10
46.581304114433983
20
-304.4545939188834
30
0
11
40.974566459717259
21
-305.42455809003178
31
0
0
LINE
5
270
100
AcDbEntity
8
0
100
AcDbLine
10
40.974566459717259
20
-305.42455809003178
30
0
11
38.308539390563951
21
-305.65052221738995
31
0
0
LINE
5
271
100
AcDbEntity
8
0
100
AcDbLine
10
38.308539390563951
20
-305.65052221738995
30
0
11
34.039236249957753
21
-306.32265993736701
31
0
0
LINE
5
272
100
AcDbEntity
8
0
100
AcDbLine
10
27.78223514556883
20
-308.47541213891822
30
0
11
31.159773089845075
21
-306.61296166223576
31
0
0
LINE
5
273
100
AcDbEntity
8
0
100
AcDbLine
10
31.159773089845075
20
-306.61296166223576
30
0
11
27.78223514556883
21
-306.95347829207674
31
0
0
LINE
5
274
100
AcDbEntity
8
0
100
AcDbLine
10
27.78223514556883
20
-306.95347829207674
30
0
11
27.410512221827315
21
-307.00562541045667
31
0
0
LINE
5
275
100
AcDbEntity
8
0
100
AcDbLine
10
27.410512221827315
20
-307.00562541045667
30
0
11
26.646630202941289
21
-307.08373184608439
31
0
0
LINE
5
276
100
AcDbEntity
8
0
100
AcDbLine
10
26.646630202941289
20
-307.08373184608439
30
0
11
17.255935668945295
21
-310.90409040160483
31
0
0
LINE
5
277
100
AcDbEntity
8
0
100
AcDbLine
10
17.255935668945295
20
-310.90409040160483
30
0
11
10.151819601930825
21
-313.16067087947494
31
0
0
LINE
5
278
100
AcDbEntity
8
0
100
AcDbLine
10
10.151819601930825
20
-313.16067087947494
30
0
11
6.7295360565185369
21
-314.25131151321017
31
0
0
LINE
5
279
100
AcDbEntity
8
0
100
AcDbLine
10
6.7295360565185369
20
-314.25131151321017
30
0
11
3.3627783179973747
21
-315.55776042709886
31
0
0
LINE
5
280
100
AcDbEntity
8
0
100
AcDbLine
10
3.3627783179973747
20
-315.55776042709886
30
0
11
3.760875970449824
21
-316.95456627113907
31
0
0
LINE
5
281
100
AcDbEntity
8
0
100
AcDbLine
10
3.760875970449824
20
-316.95456627113907
30
0
11
2.0000025682180045
21
-321.40329531931798
31
0
0
LINE
5
282
100
AcDbEntity
8
0
100
AcDbLine
10
2.0000025682180045
20
-321.40329531931798
30
0
11
3.5703314398271857
21
-323.36482912017408
31
0
0
LINE
5
283
100
AcDbEntity
8
0
100
AcDbLine
10
3.5703314398271857
20
-323.36482912017408
30
0
11
6.7295360565185369
21
-327.55831146831179
31
0
0
LINE
5
284
100
AcDbEntity
8
0
100
AcDbLine
10
6.7295360565185369
20
-327.55831146831179
30
0
11
7.6345003638455999
21
-328.14612028756864
31
0
0
LINE
5
285
100
AcDbEntity
8
0
100
AcDbLine
10
7.6345003638455999
20
-328.14612028756864
30
0
11
9.2175551790514909
21
-328.90677172068371
31
0
0
LINE
5
286
100
AcDbEntity
8
0
100
AcDbLine
10
9.2175551790514909
20
-328.90677172068371
30
0
11
14.938188121303089
21
-330.95000766607154
31
0
0
LINE
5
287
100
AcDbEntity
8
0
100
AcDbLine
10
14.938188121303089
20
-330.95000766607154
30
0
11
17.255935668945312
21
-331.46442408529418
31
0
0
LINE
5
288
100
AcDbEntity
8
0
100
AcDbLine
10
17.255935668945312
20
-331.46442408529418
30
0
11
23.603266560282403
21
-333.04766753550973
31
0
0
LINE
5
289
100
AcDbEntity
8
0
100
AcDbLine
10
23.603266560282403
20
-333.04766753550973
30
0
11
27.782235145568841
21
-333.51967896528129
31
0
0
LINE
5
290
100
AcDbEntity
8
0
100
AcDbLine
10
27.782235145568841
20
-333.51967896528129
30
0
11
32.898379265494704
21
-334.99867496811817
31
0
0
LINE
5
291
100
AcDbEntity
8
0
100
AcDbLine
10
32.898379265494704
20
-334.99867496811817
30
0
11
38.308539390563958
21
-335.62538868159857
31
0
0
LINE
5
292
100
AcDbEntity
8
0
100
AcDbLine
10
38.308539390563958
20
-335.62538868159857
30
0
11
42.578174621186875
21
-337.06858445141626
31
0
0
LINE
5
293
100
AcDbEntity
8
0
100
AcDbLine
10
42.578174621186875
20
-337.06858445141626
30
0
11
48.834838867187493
21
-337.78527224742567
31
0
0
SPLINE
5
294
100
AcDbEntity
8
0
100
AcDbSpline
70
0
71
3
72
16
73
12
74
0
42
0.000000001
43
0.0000000001
44
0.0000000001
40
-0.99116788829601865
40
-0.99116788829601865
40
-0.99116788829601865
40
-0.99116788829601865
40
-0.87284522609211956
40
-0.87284522609211956
40
-0.78760090067069932
40
-0.78760090067069932
40
-0.65832192622252828
40
-0.65832192622252828
40
-0.43320375486594709
40
-0.43320375486594709
40
0
40
0
40
0
40
0
10
48.834838867187493
20
-337.78527224742567
30
0
10
49.384522597104386
20
-337.84823736836023
30
0
10
49.798347228999198
20
-337.89564011392974
30
0
10
50.481729393501539
20
-337.95425153622517
30
0
10
50.747300831559826
20
-337.97073896245598
30
0
10
51.460849702591887
20
-337.99927613334785
30
0
10
51.932918022418015
20
-338.00385329958596
30
0
10
53.050532179268039
20
-338.00479578281602
30
0
10
53.8446305600188
20
-337.99312051341724
30
0
10
55.967399119420726
20
-337.94264856024279
30
0
10
57.394072648313625
20
-337.88204440019399
30
0
10
58.834838867187493
20
-337.78527224742567
30
0
0
SPLINE
5
295
100
AcDbEntity
8
0
100
AcDbSpline
70
0
71
3
72
14
73
10
74
0
42
0.000000001
43
0.0000000001
44
0.0000000001
40
-1.3627234293566515
40
-1.3627234293566515
40
-1.3627234293566515
40
-1.3627234293566515
40
-1.032436232603783
40
-1.032436232603783
40
-0.77506106442764966
40
-0.77506106442764966
40
-0.48831964549588275
40
-0.48831964549588275
40
0
40
0
40
0
40
0
10
58.834838867187493
20
-337.78527224742567
30
0
10
59.001759557475864
20
-337.77406066130629
30
0
10
59.37931707579061
20
-337.74858540401425
30
0
10
61.329632168464784
20
-337.79666815647363
30
0
10
62.292680246305991
20
-337.84405079664447
30
0
10
64.193602171122166
20
-338.00540863654197
30
0
10
65.162909775283936
20
-338.12775418460438
30
0
10
67.862478069948139
20
-338.60650105234504
30
0
10
69.31000024004689
20
-339.00516946664959
30
0
10
70.88971102366655
20
-339.39763067191768
30
0
0
SPLINE
5
296
100
AcDbEntity
8
0
100
AcDbSpline
70
0
71
3
72
8
73
4
74
0
42
0.000000001
43
0.0000000001
44
0.0000000001
40
-0.46201824866801633
40
-0.46201824866801633
40
-0.46201824866801633
40
-0.46201824866801633
40
-0.055671580785072512
40
-0.055671580785072512
40
-0.055671580785072512
40
-0.055671580785072512
10
70.88971102366655
20
-339.39763067191768
30
0
10
72.57841497332231
20
-339.77660684877992
30
0
10
73.722031053881821
20
-340.00258405875906
30
0
10
75.020771099707218
20
-340.0619755556616
30
0
0
ARC
5
297
100
AcDbEntity
8
0
100
AcDbCircle
10
98.834838867184075
20
-332.4534149169931
30
0
40
25.000000372525513
210
0
220
0
230
1
100
AcDbArc
50
190.9321889973078
51
197.71860676275497
0
SPLINE
5
298
100
AcDbEntity
8
0
100
AcDbSpline
70
0
71
3
72
12
73
8
74
0
42
0.000000001
43
0.0000000001
44
0.0000000001
40
0
40
0
40
0
40
0
40
0.70432558634850706
40
0.70432558634850706
40
0.99614393965577785
40
0.99614393965577785
40
1.2191042553496307
40
1.2191042553496307
40
1.2191042553496307
40
1.2191042553496307
10
74.288530423458823
20
-337.19459201999877
30
0
10
72.049137601106096
20
-336.48956788776616
30
0
10
70.486423421820234
20
-335.67011321008715
30
0
10
66.088723543444573
20
-335.30857354477416
30
0
10
64.711392276503503
20
-335.3136414999795
30
0
10
62.027881139472726
20
-335.40767192857402
30
0
10
59.993630538948935
20
-335.49496704489746
30
0
10
58.834838867187493
20
-335.59372540053602
30
0
0
SPLINE
5
299
100
AcDbEntity
8
0
100
AcDbSpline
70
0
71
3
72
10
73
6
74
0
42
0.000000001
43
0.0000000001
44
0.0000000001
40
0
40
0
40
0
40
0
40
0.50718216395734261
40
0.50718216395734261
40
1.303879605177737
40
1.303879605177737
40
1.303879605177737
40
1.303879605177737
10
58.834838867187493
20
-335.59372540053602
30
0
10
57.150338144792272
20
-335.73728746218148
30
0
10
55.387788276047203
20
-335.81947511328934
30
0
10
51.423904835128724
20
-335.89029748900521
30
0
10
50.479194382199786
20
-335.78208288362509
30
0
10
48.834838867187493
20
-335.59372540053602
30
0
0
LINE
5
300
100
AcDbEntity
8
0
100
AcDbLine
10
48.8348388671875
20
-335.59372540053602
30
0
11
44.533801983160153
21
-335.10105062628406
31
0
0
LINE
5
301
100
AcDbEntity
8
0
100
AcDbLine
10
44.533801983160153
20
-335.10105062628406
30
0
11
38.308539390563958
21
-332.9968257559247
31
0
0
LINE
5
302
100
AcDbEntity
8
0
100
AcDbLine
10
38.308539390563958
20
-332.9968257559247
30
0
11
35.365462462914209
21
-332.65589930869459
31
0
0
LINE
5
303
100
AcDbEntity
8
0
100
AcDbLine
10
35.365462462914209
20
-332.65589930869459
30
0
11
27.782235145568841
21
-330.46370873937968
31
0
0
LINE
5
304
100
AcDbEntity
8
0
100
AcDbLine
10
27.782235145568841
20
-330.46370873937968
30
0
11
26.665468346864429
21
-330.33757075039512
31
0
0
LINE
5
305
100
AcDbEntity
8
0
100
AcDbLine
10
26.665468346864429
20
-330.33757075039512
30
0
11
22.09527292528999
21
-329.19760623754945
31
0
0
LINE
5
306
100
AcDbEntity
8
0
100
AcDbLine
10
22.09527292528999
20
-329.19760623754945
30
0
11
18.444790128974162
21
-328.04311202941392
31
0
0
LINE
5
307
100
AcDbEntity
8
0
100
AcDbLine
10
18.444790128974162
20
-328.04311202941392
30
0
11
17.255935668945295
21
-327.40338798445242
31
0
0
LINE
5
308
100
AcDbEntity
8
0
100
AcDbLine
10
17.255935668945295
20
-327.40338798445242
30
0
11
11.873951887231708
21
-324.81736655472054
31
0
0
LINE
5
309
100
AcDbEntity
8
0
100
AcDbLine
10
11.873951887231708
20
-324.81736655472054
30
0
11
6.7295360565185369
21
-321.47587234247993
31
0
0
LINE
5
310
100
AcDbEntity
8
0
100
AcDbLine
10
6.7295360565185369
20
-321.47587234247993
30
0
11
6.5857709813866805
21
-321.28504066869129
31
0
0
LINE
5
311
100
AcDbEntity
8
0
100
AcDbLine
10
6.5857709813866805
20
-321.28504066869129
30
0
11
6.5143104476131519
21
-321.19577767737894
31
0
0
LINE
5
312
100
AcDbEntity
8
0
100
AcDbLine
10
6.5143104476131519
20
-321.19577767737894
30
0
11
6.7295360565185369
21
-320.65202455064315
31
0
0
LINE
5
313
100
AcDbEntity
8
0
100
AcDbLine
10
6.7295360565185369
20
-320.65202455064315
30
0
11
11.245969120456838
21
-314.50775416426632
31
0
0
LINE
5
314
100
AcDbEntity
8
0
100
AcDbLine
10
11.245969120456838
20
-314.50775416426632
30
0
11
17.255935668945295
21
-312.59872381368666
31
0
0
LINE
5
315
100
AcDbEntity
8
0
100
AcDbLine
10
17.255935668945295
20
-312.59872381368666
30
0
11
21.784678908575561
21
-310.75632302867098
31
0
0
LINE
5
316
100
AcDbEntity
8
0
100
AcDbLine
10
21.784678908575561
20
-310.75632302867098
30
0
11
27.78223514556883
21
-308.47541213891822
31
0
0
SPLINE
5
317
100
AcDbEntity
8
0
100
AcDbSpline
70
0
71
3
72
10
73
6
74
0
42
0.000000001
43
0.0000000001
44
0.0000000001
40
0.10921050039530431
40
0.10921050039530431
40
0.10921050039530431
40
0.10921050039530431
40
0.63940129127701906
40
0.63940129127701906
40
1.3714125618912876
40
1.3714125618912876
40
1.3714125618912876
40
1.3714125618912876
10
67.20171008746982
20
-311.62759845425768
30
0
10
67.870223718425422
20
-313.17961726530211
30
0
10
68.502333438899768
20
-314.57757540908847
30
0
10
70.28653823575857
20
-318.18614698176515
30
0
10
71.284935388764097
20
-319.96816796414754
30
0
10
72.158239263237988
20
-321.38380115339083
30
0
0
SPLINE
5
318
100
AcDbEntity
8
0
100
AcDbSpline
70
0
71
3
72
10
73
6
74
0
42
0.000000001
43
0.0000000001
44
0.0000000001
40
0
40
0
40
0
40
0
40
0.2296689346556578
40
0.2296689346556578
40
0.55715221471337917
40
0.55715221471337917
40
0.55715221471337917
40
0.55715221471337917
10
72.158239263237974
20
-321.38380115339083
30
0
10
72.446910761737939
20
-322.09285379586299
30
0
10
72.76212678264568
20
-322.76271270488917
30
0
10
73.677942272810753
20
-324.35278261813579
30
0
10
74.24239419197545
20
-325.0812358637653
30
0
10
74.782092231648747
20
-325.63686167833487
30
0
0
ARC
5
319
100
AcDbEntity
8
0
100
AcDbCircle
10
98.83483886718335
20
-332.45341491699099
30
0
40
25.000000372524713
210
0
220
0
230
1
100
AcDbArc
50
159.70486457138585
51
164.17725957034705
0
SPLINE
5
320
100
AcDbEntity
8
0
100
AcDbSpline
70
0
71
3
72
10
73
6
74
0
42
0.000000001
43
0.0000000001
44
0.0000000001
40
-1.0167907858835088
40
-1.0167907858835088
40
-1.0167907858835088
40
-1.0167907858835088
40
-0.50486276870380398
40
-0.50486276870380398
40
0
40
0
40
0
40
0
10
75.386878841901947
20
-323.78201426432582
30
0
10
74.361532727451603
20
-322.81778953484513
30
0
10
73.21412552484108
20
-321.30307415871647
30
0
10
71.013950786219397
20
-317.72720598481413
30
0
10
70.170644552726571
20
-316.02559673192184
30
0
10
69.459646422277331
20
-314.50029252004924
30
0
0
SPLINE
5
321
100
AcDbEntity
8
0
100
AcDbSpline
70
0
71
3
72
8
73
4
74
0
42
0.000000001
43
0.0000000001
44
0.0000000001
40
-1.540760276464326
40
-1.540760276464326
40
-1.540760276464326
40
-1.540760276464326
40
-0.91667000285704547
40
-0.91667000285704547
40
-0.91667000285704547
40
-0.91667000285704547
10
69.459646422277373
20
-314.5002925200493
30
0
10
69.046440273853435
20
-313.93949561942884
30
0
10
68.278771202219147
20
-312.90780937456771
30
0
10
67.201710087469834
20
-311.62759845425768
30
0
0
LWPOLYLINE
5
322
100
AcDbEntity
8
0
100
AcDbPolyline
90
36
70
1
43
0.0
10
155.14311704237511
20
-362.7461150743523
10
155.10952808562206
20
-362.74116232493503
10
152.11241425402341
20
-362.41974069430194
10
152.05065625844469
20
-362.40194235516788
10
146.50885533440436
20
-361.06202181486452
10
146.42615593050161
20
-361.02848119082296
10
138.96860997963972
20
-358.40542565061082
10
138.87308403051571
20
-358.35935226982065
10
130.23249428476669
20
-354.69823949029694
10
130.13270720431075
20
-354.64722185081001
10
121.09790131232877
20
-350.56698902569633
10
121.00190157026316
20
-350.52277390827339
10
112.33286860214648
20
-346.99192214152225
10
112.24806763757094
20
-346.96663575003788
10
104.65400224448479
20
-344.96899888469949
10
104.58522579780026
20
-344.97876254556962
10
98.562710694375113
20
-345.83930780677349
10
98.516828378648512
20
-345.88262791638493
10
94.648121735761606
20
-349.55062461425518
10
96.983917960509018
20
-352.899002387694
10
97.008937848308335
20
-352.93760611667017
10
102.13741689079725
20
-356.16870590249175
10
102.19387997999917
20
-356.20729082547592
10
109.57875887337568
20
-359.16239009594005
10
109.66076913366575
20
-359.19863658264973
10
118.62208834167652
20
-361.39159769758646
10
118.72222064982313
20
-361.41958484776632
10
128.38273435777171
20
-362.63587514766652
10
128.49117110343855
20
-362.65292830681693
10
137.82743077821124
20
-363.13010552352648
10
137.93245811795541
20
-363.13887064226469
10
145.94944841738055
20
-363.20106312109669
10
146.0397055166228
20
-363.20492350114944
10
151.90652699277712
20
-363.05744266108485
10
151.97261053349018
20
-363.0582559457107
10
155.10772845831258
20
-362.74822883447342
0
LWPOLYLINE
5
323
100
AcDbEntity
8
0
100
AcDbPolyline
90
36
70
1
43
0.0
10
120.60355073545928
20
-372.23794667838496
10
120.58266768821325
20
-372.23235625466612
10
116.86483920834284
20
-371.48998357397824
10
116.82707992413995
20
-371.47420772650895
10
110.04085835465374
20
-369.1399318131152
10
109.99100618816087
20
-369.11266626736165
10
100.95857335026217
20
-364.90428171572688
10
100.90152413992837
20
-364.86815073881957
10
90.509414461040635
20
-359.18958064151576
10
90.450032546639022
20
-359.15001070023595
10
79.610892638534111
20
-352.8959512844321
10
79.553408669029437
20
-352.8609609289382
10
69.098098714753263
20
-347.38692332704818
10
69.046312627854462
20
-347.36472500232645
10
59.73268853044344
20
-344.06490734872642
10
59.688473289544397
20
-344.06605022493864
10
51.963571208894201
20
-344.76563780482354
10
51.931380866760001
20
-344.7896801201145
10
46.569509001121702
20
-349.36093086323172
10
49.141093897703101
20
-353.80748909097866
10
49.154094263547336
20
-353.83373673654307
10
55.232466818004298
20
-358.4561514430419
10
55.265356773282065
20
-358.48468779580003
10
64.205626274291149
20
-362.99090509080577
10
64.25484477976164
20
-363.01983156248366
10
75.262857792689772
20
-366.70753100946069
10
75.324143269624557
20
-366.73255938372625
10
87.320124883490152
20
-369.24802582811083
10
87.387462836209863
20
-369.26674655604143
10
99.050088721719305
20
-370.83865154086016
10
99.115876626832389
20
-370.85188028178504
10
109.15923394292147
20
-371.7931536855873
10
109.21603880097393
20
-371.80219972404251
10
116.5807553568217
20
-372.26686482576639
10
116.62249345249073
20
-372.27221438812103
10
120.58101258842696
20
-372.23669436847507
0
SPLINE
5
324
100
AcDbEntity
8
0
100
AcDbSpline
70
0
71
3
72
10
73
6
74
0
42
0.000000001
43
0.0000000001
44
0.0000000001
40
-0.74060716219922385
40
-0.74060716219922385
40
-0.74060716219922385
40
-0.74060716219922385
40
-0.36962987164757555
40
-0.36962987164757555
40
0
40
0
40
0
40
0
10
2.6193418339618013
20
-350.26332398988632
30
0
10
3.0717130629643519
20
-351.41428236070237
30
0
10
3.5244112705387742
20
-352.56581123780461
30
0
10
4.4278202136578093
20
-354.86334339800703
30
0
10
4.8790486891604079
20
-356.01066508595233
30
0
10
5.3300689213385288
20
-357.15724700883413
30
0
0
LINE
5
325
100
AcDbEntity
8
0
100
AcDbLine
10
5.3300689213385288
20
-357.15724700883413
30
0
11
13.486019471709962
21
-365.52977491598318
31
0
0
SPLINE
5
326
100
AcDbEntity
8
0
100
AcDbSpline
70
0
71
3
72
10
73
6
74
0
42
0.000000001
43
0.0000000001
44
0.0000000001
40
-1.4494348074962127
40
-1.4494348074962127
40
-1.4494348074962127
40
-1.4494348074962127
40
-0.72578138384883961
40
-0.72578138384883961
40
0
40
0
40
0
40
0
10
13.486019471709966
20
-365.52977491598318
30
0
10
15.455278042354188
20
-366.91767338829254
30
0
10
17.433931801617227
20
-368.31169630228288
30
0
10
21.381729582669795
20
-371.09172407301241
30
0
10
23.364254506095943
20
-372.48714835663776
30
0
10
25.343007136486829
20
-373.87905767534932
30
0
0
SPLINE
5
327
100
AcDbEntity
8
0
100
AcDbSpline
70
0
71
3
72
10
73
6
74
0
42
0.000000001
43
0.0000000001
44
0.0000000001
40
-1.6268654004511727
40
-1.6268654004511727
40
-1.6268654004511727
40
-1.6268654004511727
40
-0.80942377858678116
40
-0.80942377858678116
40
0
40
0
40
0
40
0
10
25.343007136486833
20
-373.87905767534932
30
0
10
27.770540444805221
20
-375.104864394157
30
0
10
30.196468943959452
20
-376.3279528466648
30
0
10
35.036105519843488
20
-378.76312578970152
30
0
10
37.427401838821581
20
-379.96398384873328
30
0
10
39.839616231307275
20
-381.17264154571848
30
0
0
SPLINE
5
328
100
AcDbEntity
8
0
100
AcDbSpline
70
0
71
3
72
10
73
6
74
0
42
0.000000001
43
0.0000000001
44
0.0000000001
40
-1.6870748793952666
40
-1.6870748793952666
40
-1.6870748793952666
40
-1.6870748793952666
40
-0.82909970650645171
40
-0.82909970650645171
40
0
40
0
40
0
40
0
10
39.839616231307282
20
-381.17264154571848
30
0
10
42.529074033654553
20
-382.12986704032693
30
0
10
45.163449263772776
20
-383.06144272924399
30
0
10
50.467892781544556
20
-384.92652704658815
30
0
10
53.034345779674219
20
-385.82395594759652
30
0
10
55.643994982927047
20
-386.73366967891627
30
0
0
SPLINE
5
329
100
AcDbEntity
8
0
100
AcDbSpline
70
0
71
3
72
10
73
6
74
0
42
0.000000001
43
0.0000000001
44
0.0000000001
40
-1.6021318200920138
40
-1.6021318200920138
40
-1.6021318200920138
40
-1.6021318200920138
40
-0.78924354141023023
40
-0.78924354141023023
40
0
40
0
40
0
40
0
10
55.643994982927076
20
-386.73366967891633
30
0
10
58.169215222186104
20
-387.41321824504814
30
0
10
60.926797880637551
20
-388.15403451923947
30
0
10
65.514407553326635
20
-389.38635595583833
30
0
10
68.239064972792519
20
-390.11818063907708
30
0
10
70.779640886698758
20
-390.80129466867419
30
0
0
SPLINE
5
330
100
AcDbEntity
8
0
100
AcDbSpline
70
0
71
3
72
10
73
6
74
0
42
0.000000001
43
0.0000000001
44
0.0000000001
40
-1.3261382047598964
40
-1.3261382047598964
40
-1.3261382047598964
40
-1.3261382047598964
40
-0.66305790177295387
40
-0.66305790177295387
40
0
40
0
40
0
40
0
10
70.779640886698743
20
-390.80129466867419
30
0
10
72.926640921636562
20
-391.3263629830692
30
0
10
75.073477806097301
20
-391.85139904320414
30
0
10
79.367393005964132
20
-392.90154583487157
30
0
10
81.514159045953534
20
-393.42658019385726
30
0
10
83.661074353798099
20
-393.95165903014322
30
0
0
SPLINE
5
331
100
AcDbEntity
8
0
100
AcDbSpline
70
0
71
3
72
10
73
6
74
0
42
0.000000001
43
0.0000000001
44
0.0000000001
40
-0.87889144453361945
40
-0.87889144453361945
40
-0.87889144453361945
40
-0.87889144453361945
40
-0.43542636782896005
40
-0.43542636782896005
40
0
40
0
40
0
40
0
10
83.661074353798085
20
-393.95165903014322
30
0
10
85.198408029927577
20
-394.42571038876252
30
0
10
86.710440063408413
20
-394.89770811414411
30
0
10
89.412928587054736
20
-395.7372771754803
30
0
10
90.843269164776473
20
-396.17945340737265
30
0
10
92.233403773425664
20
-396.59676545536468
30
0
0
SPLINE
5
332
100
AcDbEntity
8
0
100
AcDbSpline
70
0
71
3
72
10
73
6
74
0
42
0.000000001
43
0.0000000001
44
0.0000000001
40
-0.43720389657516046
40
-0.43720389657516046
40
-0.43720389657516046
40
-0.43720389657516046
40
-0.21747401099449257
40
-0.21747401099449257
40
0
40
0
40
0
40
0
10
92.233403773425664
20
-396.59676545536468
30
0
10
92.948481817634359
20
-396.75707219270748
30
0
10
93.65848389407023
20
-396.91304545239831
30
0
10
95.084011996613896
20
-397.21837281535505
30
0
10
95.788127187520885
20
-397.36536163804664
30
0
10
96.49854459401493
20
-397.50960623076475
30
0
0
SPLINE
5
333
100
AcDbEntity
8
0
100
AcDbSpline
70
0
71
3
72
10
73
6
74
0
42
0.000000001
43
0.0000000001
44
0.0000000001
40
-0.45976903991527229
40
-0.45976903991527229
40
-0.45976903991527229
40
-0.45976903991527229
40
-0.22979651384220939
40
-0.22979651384220939
40
0
40
0
40
0
40
0
10
96.49854459401493
20
-397.50960623076475
30
0
10
95.783561671867403
20
-397.23332081982051
30
0
10
95.070140180776534
20
-396.95675772416286
30
0
10
93.641843016593526
20
-396.40130927754285
30
0
10
92.929645092612887
20
-396.12346666516265
30
0
10
92.216325554624277
20
-395.84433688492965
30
0
0
SPLINE
5
334
100
AcDbEntity
8
0
100
AcDbSpline
70
0
71
3
72
10
73
6
74
0
42
0.000000001
43
0.0000000001
44
0.0000000001
40
-0.91194844992145319
40
-0.91194844992145319
40
-0.91194844992145319
40
-0.91194844992145319
40
-0.45578781478317143
40
-0.45578781478317143
40
0
40
0
40
0
40
0
10
92.216325554624277
20
-395.84433688492965
30
0
10
90.876578939876111
20
-395.12551634934266
30
0
10
89.541055340571134
20
-394.40795529381802
30
0
10
86.864116281673702
20
-392.96781383237442
30
0
10
85.53006078176071
20
-392.24919448960429
30
0
10
84.192820936846715
20
-391.52805653200221
30
0
0
SPLINE
5
335
100
AcDbEntity
8
0
100
AcDbSpline
70
0
71
3
72
10
73
6
74
0
42
0.000000001
43
0.0000000001
44
0.0000000001
40
-1.2698824376573095
40
-1.2698824376573095
40
-1.2698824376573095
40
-1.2698824376573095
40
-0.63335926528940634
40
-0.63335926528940634
40
0
40
0
40
0
40
0
10
84.192820936846715
20
-391.52805653200221
30
0
10
82.42178816323036
20
-390.32142907402857
30
0
10
80.659823547686941
20
-389.11893297510164
30
0
10
77.132608716860332
20
-386.70928259585673
30
0
10
75.349398159948294
20
-385.48985748429948
30
0
10
73.606871892890837
20
-384.29790223857333
30
0
0
SPLINE
5
336
100
AcDbEntity
8
0
100
AcDbSpline
70
0
71
3
72
10
73
6
74
0
42
0.000000001
43
0.0000000001
44
0.0000000001
40
-1.5195005228272516
40
-1.5195005228272516
40
-1.5195005228272516
40
-1.5195005228272516
40
-0.75373523991604141
40
-0.75373523991604141
40
0
40
0
40
0
40
0
10
73.606871892890823
20
-384.29790223857333
30
0
10
71.103116835045398
20
-382.35621477089512
30
0
10
69.655599427552517
20
-381.23378659041924
30
0
10
65.626581971001997
20
-378.11215891896256
30
0
10
63.687799567548247
20
-376.61123045511818
30
0
10
61.70033039613601
20
-375.07422840121569
30
0
0
SPLINE
5
337
100
AcDbEntity
8
0
100
AcDbSpline
70
0
71
3
72
10
73
6
74
0
42
0.000000001
43
0.0000000001
44
0.0000000001
40
-2.4593520803469069
40
-2.4593520803469069
40
-2.4593520803469069
40
-2.4593520803469069
40
-1.2351574830095546
40
-1.2351574830095546
40
0
40
0
40
0
40
0
10
61.70033039613601
20
-375.07422840121569
30
0
10
58.51610638773694
20
-372.54811693075874
30
0
10
55.352685969122454
20
-370.0386310362635
30
0
10
48.949170315307242
20
-364.9590432594166
30
0
10
45.773535181250978
20
-362.44007578767491
30
0
10
42.547867892714379
20
-359.8814946774927
30
0
0
SPLINE
5
338
100
AcDbEntity
8
0
100
AcDbSpline
70
0
71
3
72
10
73
6
74
0
42
0.000000001
43
0.0000000001
44
0.0000000001
40
-1.4119091563731812
40
-1.4119091563731812
40
-1.4119091563731812
40
-1.4119091563731812
40
-0.68534402158606134
40
-0.68534402158606134
40
0
40
0
40
0
40
0
10
42.547867892714386
20
-359.8814946774927
30
0
10
40.27351340327715
20
-358.18550421931286
30
0
10
38.486016949716692
20
-356.85080727977333
30
0
10
34.659482230383723
20
-354.00324365431436
30
0
10
33.000937129630401
20
-352.77341650492008
30
0
10
31.16291189855232
20
-351.41676163021043
30
0
0
SPLINE
5
339
100
AcDbEntity
8
0
100
AcDbSpline
70
0
71
3
72
10
73
6
74
0
42
0.000000001
43
0.0000000001
44
0.0000000001
40
-1.1717706741425229
40
-1.1717706741425229
40
-1.1717706741425229
40
-1.1717706741425229
40
-0.58656105567504579
40
-0.58656105567504579
40
0
40
0
40
0
40
0
10
31.162911898552309
20
-351.41676163021043
30
0
10
29.442096684488355
20
-350.48904246150107
30
0
10
27.722343777220956
20
-349.56374912697743
30
0
10
24.277805295263235
20
-347.71331987371764
30
0
10
22.546145020620607
20
-346.78449944091511
30
0
10
20.822713586691108
20
-345.86113337432596
30
0
0
LINE
5
340
100
AcDbEntity
8
0
100
AcDbLine
10
20.822713586691108
20
-345.86113337432596
30
0
11
10.621932737799014
21
-345.27010344412531
31
0
0
LINE
5
341
100
AcDbEntity
8
0
100
AcDbLine
10
10.621932737799014
20
-345.27010344412531
30
0
11
2.6193418339618013
21
-350.26332398988632
31
0
0
LWPOLYLINE
5
342
100
AcDbEntity
8
0
100
AcDbPolyline
90
36
70
1
43
0.0
10
123.57764173495644
20
-383.07649888444939
10
121.41542205689994
20
-382.98265507142281
10
121.18873705539573
20
-382.97811274810772
10
117.15188024608055
20
-382.44076293022295
10
116.72779458790821
20
-382.39435444839904
10
111.23999913482635
20
-381.33153332920415
10
110.66267921116747
20
-381.23363992702133
10
104.27128164142152
20
-379.70167091960383
10
103.59817244827285
20
-379.55685221078215
10
96.913587551404476
20
-377.77738877692957
10
96.209165450146159
20
-377.60736832881355
10
89.856770686669662
20
-375.89125341559389
10
89.187296725055617
20
-375.72705374576901
10
83.789342052743265
20
-374.24022374353262
10
83.220386605996595
20
-374.09770465856673
10
79.283586337177596
20
-373.08819879145454
10
78.868824103692319
20
-372.9920968943967
10
76.640162652804264
20
-373.21163217414215
10
76.40729815798845
20
-373.24007184616835
10
76.588795295022521
20
-373.48547200632254
10
78.266261681030784
20
-375.86781671566825
10
78.658892439731176
20
-376.08195484959992
10
82.358182315509197
20
-378.21298619692413
10
82.917144273495964
20
-378.40879138756549
10
88.207850326367918
20
-380.4019188087982
10
88.878863560192784
20
-380.5579068756785
10
95.247788358374947
20
-382.19601189504135
10
95.966034442784149
20
-382.29233229654744
10
102.79891790428501
20
-383.37152999195882
10
103.49353818761909
20
-383.40166107958277
10
110.11577639224831
20
-383.84392764290249
10
110.71484265301038
20
-383.82586878905943
10
116.43598919877203
20
-383.78697355090276
10
116.87616223933514
20
-383.74763240033099
10
121.08558827079143
20
-383.47023029238699
10
121.32105752858109
20
-383.42791160014633
0
LWPOLYLINE
5
343
100
AcDbEntity
8
0
100
AcDbPolyline
90
36
70
1
43
0.0
10
135.06069052557987
20
-395.5528250114042
10
134.92658541357272
20
-395.55712005714548
10
133.37343698557422
20
-395.62729386076768
10
133.12137989362225
20
-395.61292542399713
10
130.1987053726267
20
-395.48482592217783
10
129.85451152094126
20
-395.44475029586778
10
125.86026837428031
20
-395.03281057220636
10
125.45801460412559
20
-394.96795124435755
10
120.78743442821229
20
-394.27771145205975
10
120.36590318112269
20
-394.19892331598072
10
115.46978768542259
20
-393.35021022013228
10
115.06908846457206
20
-393.27378607036684
10
110.41470543491761
20
-392.44929901468078
10
110.07407726556693
20
-392.38259217469806
10
106.11719541681319
20
-391.66154851304339
10
105.86911861622589
20
-391.61752641638549
10
102.98804376472313
20
-391.1452272528619
10
102.8513008814741
20
-391.16920362841245
10
101.27054983108467
20
-391.46783597109476
10
102.62219503550079
20
-393.06595844533956
10
102.73701680662532
20
-393.20539592986137
10
105.51933489847642
20
-394.49528562873888
10
105.75796267885268
20
-394.60974685084705
10
109.67025699085428
20
-395.69987344591914
10
110.00661935601644
20
-395.79837856460955
10
114.66787547283107
20
-396.56598862546213
10
115.06923281850004
20
-396.63751315088791
10
120.02701201684174
20
-396.97573707807345
10
120.45444237303474
20
-397.01054471243054
10
125.22098607450928
20
-396.90640273419211
10
125.63241749254234
20
-396.90282132530797
10
129.72369933382816
20
-396.51162023446159
10
130.07718033842775
20
-396.48250176870874
10
133.0715460298471
20
-396.01665031135434
10
133.33046910094725
20
-395.97984728168547
10
134.92283749091115
20
-395.58508490007915
0
LWPOLYLINE
5
344
100
AcDbEntity
8
0
100
AcDbPolyline
90
36
70
1
43
0.0
10
55.468578412544893
20
-393.20258677479893
10
53.566691708588429
20
-393.20234582668706
10
53.423239250415406
20
-393.2047931409283
10
49.858863505689911
20
-392.88642128800893
10
49.589603270650358
20
-392.86702622100512
10
44.731460774302406
20
-392.14247760470141
10
44.364089852736726
20
-392.09412294291502
10
38.694778720907387
20
-390.99201635441375
10
38.265736972699777
20
-390.91623570699903
10
32.32970689483583
20
-389.60801096592479
10
31.880273754170126
20
-389.51702817092331
10
26.238241449799816
20
-388.25178482370637
10
25.811043564355142
20
-388.16366346120213
10
21.015647926202391
20
-387.06345247821281
10
20.65252242043433
20
-386.98668168204563
10
17.157995162465525
20
-386.25000460895103
10
16.893461120713226
20
-386.19896794059429
10
14.94522857123159
20
-386.47637034395922
10
14.798642950360536
20
-386.49981831024706
10
14.919173567672532
20
-386.65073901520134
10
16.482403013709192
20
-388.67848774982457
10
16.735710782682276
20
-388.80468484878429
10
20.064294264000104
20
-390.53498892862871
10
20.42235116604687
20
-390.64569043640432
10
25.142837304355528
20
-392.19446189298924
10
25.570816246586183
20
-392.27735443728676
10
31.224383735050807
20
-393.47347269345141
10
31.680827577448877
20
-393.51752636029357
10
37.720517172088726
20
-394.20536043912426
10
38.160468114937458
20
-394.20811285786101
10
43.990959198047335
20
-394.34477895775615
10
44.369364009911941
20
-394.31930114631575
10
49.390590333582566
20
-394.06778164276153
10
49.668013197314394
20
-394.03257439789104
10
53.352924751285499
20
-393.62910761155484
10
53.500829617367422
20
-393.59682144400517
0
LINE
5
345
100
AcDbEntity
8
0
100
AcDbLine
10
84.683465086607384
20
-324.17841491699221
30
0
11
84.683465086607384
21
-340.72841491699222
31
0
0
LINE
5
346
100
AcDbEntity
8
0
100
AcDbLine
10
84.683465086607384
20
-340.72841491699222
30
0
11
83.683465086607384
21
-340.72841491699222
31
0
0
LINE
5
347
100
AcDbEntity
8
0
100
AcDbLine
10
84.683465086607384
20
-324.17841491699221
30
0
11
83.683465086607384
21
-324.17841491699221
31
0
0
LWPOLYLINE
5
348
100
AcDbEntity
8
0
100
AcDbPolyline
90
4
70
1
43
0.0
10
145.00000216066837
20
-385.00000573694706
10
140.00000208616257
20
-385.00000573694706
10
140.00000208616257
20
-380.00000566244125
10
145.00000216066837
20
-380.00000566244125
0
LINE
5
349
100
AcDbEntity
8
0
100
AcDbLine
10
84.683465086607384
20
-334.48752135783434
30
1.2121162842034299e-16
11
85.407885261563706
21
-334.48752135783434
31
3.2495743570540492e-17
0
LINE
5
350
100
AcDbEntity
8
0
100
AcDbLine
10
85.407885261563706
20
-334.48752135783434
30
3.249574357054048e-17
11
85.407885261563706
21
-334.59734399616718
31
1.9046349319717023e-17
0
LINE
5
351
100
AcDbEntity
8
0
100
AcDbLine
10
85.407885261563706
20
-334.59734399616718
30
1.9046349319717029e-17
11
85.30624816635077
21
-334.59734399616718
31
3.1493303652432763e-17
0
SPLINE
5
352
100
AcDbEntity
8
0
100
AcDbSpline
70
0
71
2
72
6
73
3
74
0
42
0.000000001
43
0.0000000001
44
0.0000000001
40
0
40
0
40
0
40
1
40
1
40
1
10
85.30624816635077
20
-334.59734399616718
30
3.1493303652432751e-17
10
85.359454178003716
20
-334.63145040720701
30
2.0800615754781896e-17
10
85.391855262903618
20
-334.68806705251336
30
9.8990879183370941e-18
0
SPLINE
5
353
100
AcDbEntity
8
0
100
AcDbSpline
70
0
71
2
72
6
73
3
74
0
42
0.000000001
43
0.0000000001
44
0.0000000001
40
0
40
0
40
0
40
1
40
1
40
1
10
85.391855262903618
20
-334.68806705251336
30
9.8990879183370941e-18
10
85.424256347803521
20
-334.74468369781971
30
-1.002439918107723e-18
10
85.424256347803521
20
-334.81698931008577
30
-9.857323580310167e-18
0
SPLINE
5
354
100
AcDbEntity
8
0
100
AcDbSpline
70
0
71
2
72
6
73
3
74
0
42
0.000000001
43
0.0000000001
44
0.0000000001
40
0
40
0
40
0
40
1
40
1
40
1
10
85.424256347803521
20
-334.81698931008577
30
-9.857323580310167e-18
10
85.424256347803521
20
-334.89748042821884
30
-1.9714642598455505e-17
10
85.390832074670243
20
-334.94898111373186
30
-2.1928364654547328e-17
0
SPLINE
5
355
100
AcDbEntity
8
0
100
AcDbSpline
70
0
71
2
72
6
73
3
74
0
42
0.000000001
43
0.0000000001
44
0.0000000001
40
0
40
0
40
0
40
1
40
1
40
1
10
85.390832074670243
20
-334.94898111373186
30
-2.1928364654547328e-17
10
85.357407801536965
20
-335.00048179924488
30
-2.4142086710639144e-17
10
85.297380485324311
20
-335.02162777632475
30
-1.9380495959086254e-17
0
SPLINE
5
356
100
AcDbEntity
8
0
100
AcDbSpline
70
0
71
2
72
6
73
3
74
0
42
0.000000001
43
0.0000000001
44
0.0000000001
40
0
40
0
40
0
40
1
40
1
40
1
10
85.297380485324311
20
-335.02162777632475
30
-1.9380495959086254e-17
10
85.424256347803521
20
-335.10757588595152
30
-4.5443915581227645e-17
10
85.424256347803521
20
-335.24536580592394
30
-6.2318314026127032e-17
0
SPLINE
5
357
100
AcDbEntity
8
0
100
AcDbSpline
70
0
71
2
72
6
73
3
74
0
42
0.000000001
43
0.0000000001
44
0.0000000001
40
0
40
0
40
0
40
1
40
1
40
1
10
85.424256347803521
20
-335.24536580592394
30
-6.2318314026127032e-17
10
85.424256347803521
20
-335.35314210504293
30
-7.5517104000129596e-17
10
85.364570119170594
20
-335.41112297028303
30
-7.5308257218088393e-17
0
SPLINE
5
358
100
AcDbEntity
8
0
100
AcDbSpline
70
0
71
2
72
6
73
3
74
0
42
0.000000001
43
0.0000000001
44
0.0000000001
40
0
40
0
40
0
40
1
40
1
40
1
10
85.364570119170594
20
-335.41112297028303
30
-7.5308257218088393e-17
10
85.304883890537667
20
-335.46910391002893
30
-7.5099419560376848e-17
10
85.180736579684663
20
-335.46910391002893
30
-5.9895758874488497e-17
0
LINE
5
359
100
AcDbEntity
8
0
100
AcDbLine
10
85.180736579684663
20
-335.46910391002893
30
-5.9895758874488497e-17
11
84.683465086607384
21
-335.46910391002893
31
1.002435355942892e-18
0
LINE
5
360
100
AcDbEntity
8
0
100
AcDbLine
10
84.683465086607384
20
-335.46910391002893
30
1.0024353559428997e-18
11
84.683465086607384
21
-335.34700290113688
31
1.5955496327175195e-17
0
LINE
5
361
100
AcDbEntity
8
0
100
AcDbLine
10
84.683465086607384
20
-335.34700290113688
30
1.5955496327175198e-17
11
85.139808826832223
21
-335.34700290113688
31
-3.9930493750552745e-17
0
SPLINE
5
362
100
AcDbEntity
8
0
100
AcDbSpline
70
0
71
2
72
6
73
3
74
0
42
0.000000001
43
0.0000000001
44
0.0000000001
40
0
40
0
40
0
40
1
40
1
40
1
10
85.139808826832223
20
-335.34700290113688
30
-3.9930493750552763e-17
10
85.213478677658486
20
-335.34700290113688
30
-4.8952448451357416e-17
10
85.245879762558388
20
-335.33506565541029
30
-5.1458545965544294e-17
0
SPLINE
5
363
100
AcDbEntity
8
0
100
AcDbSpline
70
0
71
2
72
6
73
3
74
0
42
0.000000001
43
0.0000000001
44
0.0000000001
40
0
40
0
40
0
40
1
40
1
40
1
10
85.245879762558388
20
-335.33506565541029
30
-5.1458545965544294e-17
10
85.278280847458291
20
-335.3231284096837
30
-5.3964643479731177e-17
10
85.298062585977959
20
-335.29175051301718
30
-5.2544523684035536e-17
0
SPLINE
5
364
100
AcDbEntity
8
0
100
AcDbSpline
70
0
71
2
72
6
73
3
74
0
42
0.000000001
43
0.0000000001
44
0.0000000001
40
0
40
0
40
0
40
1
40
1
40
1
10
85.298062585977959
20
-335.29175051301718
30
-5.2544523684035536e-17
10
85.317844324497628
20
-335.26037261635065
30
-5.1124403888339894e-17
10
85.317844324497628
20
-335.21808066219091
30
-4.5945133259199083e-17
0
SPLINE
5
365
100
AcDbEntity
8
0
100
AcDbSpline
70
0
71
2
72
6
73
3
74
0
42
0.000000001
43
0.0000000001
44
0.0000000001
40
0
40
0
40
0
40
1
40
1
40
1
10
85.317844324497628
20
-335.21808066219091
30
-4.5945133259199083e-17
10
85.317844324497628
20
-335.14168233424425
30
-3.6589036481190031e-17
10
85.26702577689116
20
-335.09120487421751
30
-2.4183853329748483e-17
0
SPLINE
5
366
100
AcDbEntity
8
0
100
AcDbSpline
70
0
71
2
72
6
73
3
74
0
42
0.000000001
43
0.0000000001
44
0.0000000001
40
0
40
0
40
0
40
1
40
1
40
1
10
85.26702577689116
20
-335.09120487421751
30
-2.4183853329748483e-17
10
85.216207229284691
20
-335.04072733968496
30
-1.1778661053977258e-17
10
85.104338251738
20
-335.04072733968496
30
1.9213374736670912e-18
0
LINE
5
367
100
AcDbEntity
8
0
100
AcDbLine
10
85.104338251738
20
-335.04072733968496
30
1.9213374736670912e-18
11
84.683465086607384
21
-335.04072733968496
31
5.3463434926089429e-17
0
LINE
5
368
100
AcDbEntity
8
0
100
AcDbLine
10
84.683465086607384
20
-335.04072733968496
30
5.3463434926089435e-17
11
84.683465086607384
21
-334.91794426739216
31
6.8500024573375566e-17
0
LINE
5
369
100
AcDbEntity
8
0
100
AcDbLine
10
84.683465086607384
20
-334.91794426739216
30
6.8500024573375566e-17
11
85.154133611111092
21
-334.91794426739216
31
1.0859754374088228e-17
0
SPLINE
5
370
100
AcDbEntity
8
0
100
AcDbSpline
70
0
71
2
72
6
73
3
74
0
42
0.000000001
43
0.0000000001
44
0.0000000001
40
0
40
0
40
0
40
1
40
1
40
1
10
85.154133611111092
20
-334.91794426739216
30
1.0859754374088213e-17
10
85.23598896780436
20
-334.91794426739216
30
8.3536431734067546e-19
10
85.276916646150994
20
-334.88793064653873
30
-5.0122224013628084e-19
0
SPLINE
5
371
100
AcDbEntity
8
0
100
AcDbSpline
70
0
71
2
72
6
73
3
74
0
42
0.000000001
43
0.0000000001
44
0.0000000001
40
0
40
0
40
0
40
1
40
1
40
1
10
85.276916646150994
20
-334.88793064653873
30
-5.0122224013628084e-19
10
85.317844324497628
20
-334.85791698843241
30
-1.8378042354483985e-18
10
85.317844324497628
20
-334.78970416635275
30
6.5158571866177725e-18
0
SPLINE
5
372
100
AcDbEntity
8
0
100
AcDbSpline
70
0
71
2
72
6
73
3
74
0
42
0.000000001
43
0.0000000001
44
0.0000000001
40
0
40
0
40
0
40
1
40
1
40
1
10
85.317844324497628
20
-334.78970416635275
30
6.5158571866177725e-18
10
85.317844324497628
20
-334.73786243051291
30
1.2864638772468497e-17
10
85.290559255270409
20
-334.69386515021324
30
2.15942088908484e-17
0
SPLINE
5
373
100
AcDbEntity
8
0
100
AcDbSpline
70
0
71
2
72
6
73
3
74
0
42
0.000000001
43
0.0000000001
44
0.0000000001
40
0
40
0
40
0
40
1
40
1
40
1
10
85.290559255270409
20
-334.69386515021324
30
2.15942088908484e-17
10
85.263274037031579
20
-334.64986786991358
30
3.0323797257887679e-17
10
85.210750200538087
20
-334.63008616864681
30
3.9178671795760446e-17
0
SPLINE
5
374
100
AcDbEntity
8
0
100
AcDbSpline
70
0
71
2
72
6
73
3
74
0
42
0.000000001
43
0.0000000001
44
0.0000000001
40
0
40
0
40
0
40
1
40
1
40
1
10
85.210750200538087
20
-334.63008616864681
30
3.9178671795760446e-17
10
85.158226364044594
20
-334.61030443012714
30
4.8033550895798066e-17
10
85.059317745952058
20
-334.61030443012714
30
6.0146363151309389e-17
0
LINE
5
375
100
AcDbEntity
8
0
100
AcDbLine
10
85.059317745952058
20
-334.61030443012714
30
6.0146363151309389e-17
11
84.683465086607384
21
-334.61030443012714
31
1.0617503877305683e-16
0
LINE
5
376
100
AcDbEntity
8
0
100
AcDbLine
10
84.683465086607384
20
-334.61030443012714
30
1.0617503877305686e-16
11
84.683465086607384
21
-334.48752135783434
31
1.2121162842034299e-16
0
LINE
5
377
100
AcDbEntity
8
0
100
AcDbLine
10
84.683465086607384
20
-333.32381062954664
30
1.2121162842034299e-16
11
85.407885261563706
21
-333.32381062954664
31
3.2495743570540492e-17
0
LINE
5
378
100
AcDbEntity
8
0
100
AcDbLine
10
85.407885261563706
20
-333.32381062954664
30
3.249574357054048e-17
11
85.407885261563706
21
-333.43363326787949
31
1.9046349319717023e-17
0
LINE
5
379
100
AcDbEntity
8
0
100
AcDbLine
10
85.407885261563706
20
-333.43363326787949
30
1.9046349319717029e-17
11
85.30624816635077
21
-333.43363326787949
31
3.1493303652432763e-17
0
SPLINE
5
380
100
AcDbEntity
8
0
100
AcDbSpline
70
0
71
2
72
6
73
3
74
0
42
0.000000001
43
0.0000000001
44
0.0000000001
40
0
40
0
40
0
40
1
40
1
40
1
10
85.30624816635077
20
-333.43363326787949
30
3.1493303652432751e-17
10
85.359454178003716
20
-333.46773967891932
30
2.0800615754781896e-17
10
85.391855262903618
20
-333.52435632422566
30
9.8990879183370941e-18
0
SPLINE
5
381
100
AcDbEntity
8
0
100
AcDbSpline
70
0
71
2
72
6
73
3
74
0
42
0.000000001
43
0.0000000001
44
0.0000000001
40
0
40
0
40
0
40
1
40
1
40
1
10
85.391855262903618
20
-333.52435632422566
30
9.8990879183370941e-18
10
85.424256347803521
20
-333.58097296953201
30
-1.002439918107723e-18
10
85.424256347803521
20
-333.65327858179808
30
-9.857323580310167e-18
0
SPLINE
5
382
100
AcDbEntity
8
0
100
AcDbSpline
70
0
71
2
72
6
73
3
74
0
42
0.000000001
43
0.0000000001
44
0.0000000001
40
0
40
0
40
0
40
1
40
1
40
1
10
85.424256347803521
20
-333.65327858179808
30
-9.857323580310167e-18
10
85.424256347803521
20
-333.73376969993114
30
-1.9714642598455505e-17
10
85.390832074670243
20
-333.78527038544416
30
-2.1928364654547328e-17
0
SPLINE
5
383
100
AcDbEntity
8
0
100
AcDbSpline
70
0
71
2
72
6
73
3
74
0
42
0.000000001
43
0.0000000001
44
0.0000000001
40
0
40
0
40
0
40
1
40
1
40
1
10
85.390832074670243
20
-333.78527038544416
30
-2.1928364654547328e-17
10
85.357407801536965
20
-333.83677107095718
30
-2.4142086710639144e-17
10
85.297380485324311
20
-333.85791704803705
30
-1.9380495959086254e-17
0
SPLINE
5
384
100
AcDbEntity
8
0
100
AcDbSpline
70
0
71
2
72
6
73
3
74
0
42
0.000000001
43
0.0000000001
44
0.0000000001
40
0
40
0
40
0
40
1
40
1
40
1
10
85.297380485324311
20
-333.85791704803705
30
-1.9380495959086254e-17
10
85.424256347803521
20
-333.94386515766382
30
-4.5443915581227645e-17
10
85.424256347803521
20
-334.08165507763624
30
-6.2318314026127032e-17
0
SPLINE
5
385
100
AcDbEntity
8
0
100
AcDbSpline
70
0
71
2
72
6
73
3
74
0
42
0.000000001
43
0.0000000001
44
0.0000000001
40
0
40
0
40
0
40
1
40
1
40
1
10
85.424256347803521
20
-334.08165507763624
30
-6.2318314026127032e-17
10
85.424256347803521
20
-334.18943137675524
30
-7.5517104000129596e-17
10
85.364570119170594
20
-334.24741224199533
30
-7.5308257218088393e-17
0
SPLINE
5
386
100
AcDbEntity
8
0
100
AcDbSpline
70
0
71
2
72
6
73
3
74
0
42
0.000000001
43
0.0000000001
44
0.0000000001
40
0
40
0
40
0
40
1
40
1
40
1
10
85.364570119170594
20
-334.24741224199533
30
-7.5308257218088393e-17
10
85.304883890537667
20
-334.30539318174124
30
-7.5099419560376848e-17
10
85.180736579684663
20
-334.30539318174124
30
-5.9895758874488497e-17
0
LINE
5
387
100
AcDbEntity
8
0
100
AcDbLine
10
85.180736579684663
20
-334.30539318174124
30
-5.9895758874488497e-17
11
84.683465086607384
21
-334.30539318174124
31
1.002435355942892e-18
0
LINE
5
388
100
AcDbEntity
8
0
100
AcDbLine
10
84.683465086607384
20
-334.30539318174124
30
1.0024353559428997e-18
11
84.683465086607384
21
-334.18329217284918
31
1.5955496327175195e-17
0
LINE
5
389
100
AcDbEntity
8
0
100
AcDbLine
10
84.683465086607384
20
-334.18329217284918
30
1.5955496327175198e-17
11
85.139808826832223
21
-334.18329217284918
31
-3.9930493750552745e-17
0
SPLINE
5
390
100
AcDbEntity
8
0
100
AcDbSpline
70
0
71
2
72
6
73
3
74
0
42
0.000000001
43
0.0000000001
44
0.0000000001
40
0
40
0
40
0
40
1
40
1
40
1
10
85.139808826832223
20
-334.18329217284918
30
-3.9930493750552763e-17
10
85.213478677658486
20
-334.18329217284918
30
-4.8952448451357416e-17
10
85.245879762558388
20
-334.17135492712259
30
-5.1458545965544294e-17
0
SPLINE
5
391
100
AcDbEntity
8
0
100
AcDbSpline
70
0
71
2
72
6
73
3
74
0
42
0.000000001
43
0.0000000001
44
0.0000000001
40
0
40
0
40
0
40
1
40
1
40
1
10
85.245879762558388
20
-334.17135492712259
30
-5.1458545965544294e-17
10
85.278280847458291
20
-334.15941768139601
30
-5.3964643479731177e-17
10
85.298062585977959
20
-334.12803978472948
30
-5.2544523684035536e-17
0
SPLINE
5
392
100
AcDbEntity
8
0
100
AcDbSpline
70
0
71
2
72
6
73
3
74
0
42
0.000000001
43
0.0000000001
44
0.0000000001
40
0
40
0
40
0
40
1
40
1
40
1
10
85.298062585977959
20
-334.12803978472948
30
-5.2544523684035536e-17
10
85.317844324497628
20
-334.09666188806295
30
-5.1124403888339894e-17
10
85.317844324497628
20
-334.05436993390322
30
-4.5945133259199083e-17
0
SPLINE
5
393
100
AcDbEntity
8
0
100
AcDbSpline
70
0
71
2
72
6
73
3
74
0
42
0.000000001
43
0.0000000001
44
0.0000000001
40
0
40
0
40
0
40
1
40
1
40
1
10
85.317844324497628
20
-334.05436993390322
30
-4.5945133259199083e-17
10
85.317844324497628
20
-333.97797160595655
30
-3.6589036481190031e-17
10
85.26702577689116
20
-333.92749414592981
30
-2.4183853329748483e-17
0
SPLINE
5
394
100
AcDbEntity
8
0
100
AcDbSpline
70
0
71
2
72
6
73
3
74
0
42
0.000000001
43
0.0000000001
44
0.0000000001
40
0
40
0
40
0
40
1
40
1
40
1
10
85.26702577689116
20
-333.92749414592981
30
-2.4183853329748483e-17
10
85.216207229284691
20
-333.87701661139727
30
-1.1778661053977258e-17
10
85.104338251738
20
-333.87701661139727
30
1.9213374736670912e-18
0
LINE
5
395
100
AcDbEntity
8
0
100
AcDbLine
10
85.104338251738
20
-333.87701661139727
30
1.9213374736670912e-18
11
84.683465086607384
21
-333.87701661139727
31
5.3463434926089429e-17
0
LINE
5
396
100
AcDbEntity
8
0
100
AcDbLine
10
84.683465086607384
20
-333.87701661139727
30
5.3463434926089435e-17
11
84.683465086607384
21
-333.75423353910446
31
6.8500024573375566e-17
0
LINE
5
397
100
AcDbEntity
8
0
100
AcDbLine
10
84.683465086607384
20
-333.75423353910446
30
6.8500024573375566e-17
11
85.154133611111092
21
-333.75423353910446
31
1.0859754374088228e-17
0
SPLINE
5
398
100
AcDbEntity
8
0
100
AcDbSpline
70
0
71
2
72
6
73
3
74
0
42
0.000000001
43
0.0000000001
44
0.0000000001
40
0
40
0
40
0
40
1
40
1
40
1
10
85.154133611111092
20
-333.75423353910446
30
1.0859754374088213e-17
10
85.23598896780436
20
-333.75423353910446
30
8.3536431734067546e-19
10
85.276916646150994
20
-333.72421991825104
30
-5.0122224013628084e-19
0
SPLINE
5
399
100
AcDbEntity
8
0
100
AcDbSpline
70
0
71
2
72
6
73
3
74
0
42
0.000000001
43
0.0000000001
44
0.0000000001
40
0
40
0
40
0
40
1
40
1
40
1
10
85.276916646150994
20
-333.72421991825104
30
-5.0122224013628084e-19
10
85.317844324497628
20
-333.69420626014471
30
-1.8378042354483985e-18
10
85.317844324497628
20
-333.62599343806505
30
6.5158571866177725e-18
0
SPLINE
5
400
100
AcDbEntity
8
0
100
AcDbSpline
70
0
71
2
72
6
73
3
74
0
42
0.000000001
43
0.0000000001
44
0.0000000001
40
0
40
0
40
0
40
1
40
1
40
1
10
85.317844324497628
20
-333.62599343806505
30
6.5158571866177725e-18
10
85.317844324497628
20
-333.57415170222521
30
1.2864638772468497e-17
10
85.290559255270409
20
-333.53015442192554
30
2.15942088908484e-17
0
SPLINE
5
401
100
AcDbEntity
8
0
100
AcDbSpline
70
0
71
2
72
6
73
3
74
0
42
0.000000001
43
0.0000000001
44
0.0000000001
40
0
40
0
40
0
40
1
40
1
40
1
10
85.290559255270409
20
-333.53015442192554
30
2.15942088908484e-17
10
85.263274037031579
20
-333.48615714162588
30
3.0323797257887679e-17
10
85.210750200538087
20
-333.46637544035912
30
3.9178671795760446e-17
0
SPLINE
5
402
100
AcDbEntity
8
0
100
AcDbSpline
70
0
71
2
72
6
73
3
74
0
42
0.000000001
43
0.0000000001
44
0.0000000001
40
0
40
0
40
0
40
1
40
1
40
1
10
85.210750200538087
20
-333.46637544035912
30
3.9178671795760446e-17
10
85.158226364044594
20
-333.44659370183945
30
4.8033550895798066e-17
10
85.059317745952058
20
-333.44659370183945
30
6.0146363151309389e-17
0
LINE
5
403
100
AcDbEntity
8
0
100
AcDbLine
10
85.059317745952058
20
-333.44659370183945
30
6.0146363151309389e-17
11
84.683465086607384
21
-333.44659370183945
31
1.0617503877305683e-16
0
LINE
5
404
100
AcDbEntity
8
0
100
AcDbLine
10
84.683465086607384
20
-333.44659370183945
30
1.0617503877305686e-16
11
84.683465086607384
21
-333.32381062954664
31
1.2121162842034299e-16
0
LINE
5
405
100
AcDbEntity
8
0
100
AcDbLine
10
84.945402317432809
20
-332.1246291724965
30
6.9627774043411579e-17
11
84.956316374926018
21
-332.25355141609907
31
5.2502766189255865e-17
0
SPLINE
5
406
100
AcDbEntity
8
0
100
AcDbSpline
70
0
71
2
72
6
73
3
74
0
42
0.000000001
43
0.0000000001
44
0.0000000001
40
0
40
0
40
0
40
1
40
1
40
1
10
84.956316374926018
20
-332.25355141609907
30
5.2502766189255859e-17
10
84.862182684926438
20
-332.26787610724568
30
6.2276549688100105e-17
10
84.814774789599824
20
-332.3200589120388
30
6.1691791928662739e-17
0
SPLINE
5
407
100
AcDbEntity
8
0
100
AcDbSpline
70
0
71
2
72
6
73
3
74
0
42
0.000000001
43
0.0000000001
44
0.0000000001
40
0
40
0
40
0
40
1
40
1
40
1
10
84.814774789599824
20
-332.3200589120388
30
6.1691791928662739e-17
10
84.767366819767403
20
-332.37224171683192
30
6.1107043293555021e-17
10
84.767366819767403
20
-332.44591158628464
30
5.2085086311667953e-17
0
SPLINE
5
408
100
AcDbEntity
8
0
100
AcDbSpline
70
0
71
2
72
6
73
3
74
0
42
0.000000001
43
0.0000000001
44
0.0000000001
40
0
40
0
40
0
40
1
40
1
40
1
10
84.767366819767403
20
-332.44591158628464
30
5.2085086311667953e-17
10
84.767366819767403
20
-332.53458824753761
30
4.1225327375414905e-17
10
84.834215440539765
20
-332.59597980231047
30
2.5520435325060608e-17
0
SPLINE
5
409
100
AcDbEntity
8
0
100
AcDbSpline
70
0
71
2
72
6
73
3
74
0
42
0.000000001
43
0.0000000001
44
0.0000000001
40
0
40
0
40
0
40
1
40
1
40
1
10
84.834215440539765
20
-332.59597980231047
30
2.5520435325060608e-17
10
84.901063986806321
20
-332.65737131983042
30
9.8155569612008283e-18
10
85.011568763045716
20
-332.65737131983042
30
-3.717375090006151e-18
0
SPLINE
5
410
100
AcDbEntity
8
0
100
AcDbSpline
70
0
71
2
72
6
73
3
74
0
42
0.000000001
43
0.0000000001
44
0.0000000001
40
0
40
0
40
0
40
1
40
1
40
1
10
85.011568763045716
20
-332.65737131983042
30
-3.717375090006151e-18
10
85.116616510538506
20
-332.65737131983042
30
-1.6582013862474648e-17
10
85.177325927404809
20
-332.59836722910404
30
-1.6790856082351025e-17
0
SPLINE
5
411
100
AcDbEntity
8
0
100
AcDbSpline
70
0
71
2
72
6
73
3
74
0
42
0.000000001
43
0.0000000001
44
0.0000000001
40
0
40
0
40
0
40
1
40
1
40
1
10
85.177325927404809
20
-332.59836722910404
30
-1.6790856082351025e-17
10
85.238035344271111
20
-332.53936313837767
30
-1.6999698302227399e-17
10
85.238035344271111
20
-332.44386517256498
30
-5.3045704864688245e-18
0
SPLINE
5
412
100
AcDbEntity
8
0
100
AcDbSpline
70
0
71
2
72
6
73
3
74
0
42
0.000000001
43
0.0000000001
44
0.0000000001
40
0
40
0
40
0
40
1
40
1
40
1
10
85.238035344271111
20
-332.44386517256498
30
-5.3045704864688245e-18
10
85.238035344271111
20
-332.38452003151178
30
1.9631132171060996e-18
10
85.211091288117814
20
-332.33677104860544
30
1.11103723374036e-17
0
SPLINE
5
413
100
AcDbEntity
8
0
100
AcDbSpline
70
0
71
2
72
6
73
3
74
0
42
0.000000001
43
0.0000000001
44
0.0000000001
40
0
40
0
40
0
40
1
40
1
40
1
10
85.211091288117814
20
-332.33677104860544
30
1.11103723374036e-17
10
85.184147231964516
20
-332.28902208432555
30
2.0257629176618705e-17
10
85.141173102645325
20
-332.26173694059253
30
2.8861908562000269e-17
0
LINE
5
414
100
AcDbEntity
8
0
100
AcDbLine
10
85.141173102645325
20
-332.26173694059253
30
2.8861908562000269e-17
11
85.156179913072037
21
-332.14645727351308
31
4.11417918561138e-17
0
LINE
5
415
100
AcDbEntity
8
0
100
AcDbLine
10
85.156179913072037
20
-332.14645727351308
30
4.11417918561138e-17
11
85.66982249238913
21
-332.24331947788596
31
-3.3623481064893807e-17
0
LINE
5
416
100
AcDbEntity
8
0
100
AcDbLine
10
85.66982249238913
20
-332.24331947788596
30
-3.3623481064893807e-17
11
85.66982249238913
21
-332.74059091508389
31
-9.4521668452077929e-17
0
LINE
5
417
100
AcDbEntity
8
0
100
AcDbLine
10
85.66982249238913
20
-332.74059091508389
30
-9.4521668452077929e-17
11
85.552496486095833
21
-332.74059091508389
31
-8.0153376645695109e-17
0
LINE
5
418
100
AcDbEntity
8
0
100
AcDbLine
10
85.552496486095833
20
-332.74059091508389
30
-8.0153376645695122e-17
11
85.552496486095833
21
-332.34154595807195
31
-3.128446371363881e-17
0
LINE
5
419
100
AcDbEntity
8
0
100
AcDbLine
10
85.552496486095833
20
-332.34154595807195
30
-3.1284463713638798e-17
11
85.283737950710702
21
-332.2876578271389
31
8.2283570025733038e-18
0
SPLINE
5
420
100
AcDbEntity
8
0
100
AcDbSpline
70
0
71
2
72
6
73
3
74
0
42
0.000000001
43
0.0000000001
44
0.0000000001
40
0
40
0
40
0
40
1
40
1
40
1
10
85.283737950710702
20
-332.2876578271389
30
8.2283570025733084e-18
10
85.346493744043755
20
-332.37769874557853
30
-1.0483843396692052e-17
10
85.346493744043755
20
-332.47660734504461
30
-2.2596653371120965e-17
0
SPLINE
5
421
100
AcDbEntity
8
0
100
AcDbSpline
70
0
71
2
72
6
73
3
74
0
42
0.000000001
43
0.0000000001
44
0.0000000001
40
0
40
0
40
0
40
1
40
1
40
1
10
85.346493744043755
20
-332.47660734504461
30
-2.2596653371120965e-17
10
85.346493744043755
20
-332.60757596045732
30
-3.8635682936514825e-17
10
85.255770706324029
20
-332.6976168602705
30
-3.8552145136131312e-17
0
SPLINE
5
422
100
AcDbEntity
8
0
100
AcDbSpline
70
0
71
2
72
6
73
3
74
0
42
0.000000001
43
0.0000000001
44
0.0000000001
40
0
40
0
40
0
40
1
40
1
40
1
10
85.255770706324029
20
-332.6976168602705
30
-3.8552145136131312e-17
10
85.165047594098496
20
-332.78765779733658
30
-3.8468602773582957e-17
10
85.022482820538926
20
-332.78765779733658
30
-2.1009453412493459e-17
0
SPLINE
5
423
100
AcDbEntity
8
0
100
AcDbSpline
70
0
71
2
72
6
73
3
74
0
42
0.000000001
43
0.0000000001
44
0.0000000001
40
0
40
0
40
0
40
1
40
1
40
1
10
85.022482820538926
20
-332.78765779733658
30
-2.1009453412493459e-17
10
84.886739277033257
20
-332.78765779733658
30
-4.3856638065797943e-18
10
84.787830733446526
20
-332.70853091776371
30
1.7417387304144986e-17
0
SPLINE
5
424
100
AcDbEntity
8
0
100
AcDbSpline
70
0
71
2
72
6
73
3
74
0
42
0.000000001
43
0.0000000001
44
0.0000000001
40
0
40
0
40
0
40
1
40
1
40
1
10
84.787830733446526
20
-332.70853091776371
30
1.7417387304144986e-17
10
84.666411899713921
20
-332.61235085129738
30
4.4065566966806206e-17
10
84.666411899713921
20
-332.44591158628464
30
6.4448498281835338e-17
0
SPLINE
5
425
100
AcDbEntity
8
0
100
AcDbSpline
70
0
71
2
72
6
73
3
74
0
42
0.000000001
43
0.0000000001
44
0.0000000001
40
0
40
0
40
0
40
1
40
1
40
1
10
84.666411899713921
20
-332.44591158628464
30
6.4448498281835338e-17
10
84.666411899713921
20
-332.30948592349887
30
8.1155823407050101e-17
10
84.742810227660584
20
-332.22319670766592
30
8.23671078261166e-17
0
SPLINE
5
426
100
AcDbEntity
8
0
100
AcDbSpline
70
0
71
2
72
6
73
3
74
0
42
0.000000001
43
0.0000000001
44
0.0000000001
40
0
40
0
40
0
40
1
40
1
40
1
10
84.742810227660584
20
-332.22319670766592
30
8.23671078261166e-17
10
84.819208630113053
20
-332.13690748251975
30
8.3578384261394651e-17
10
84.945402317432809
20
-332.1246291724965
30
6.9627774043411579e-17
0
LINE
5
427
100
AcDbEntity
8
0
100
AcDbLine
10
84.945402317432809
20
-331.34768508654088
30
6.9627774043411579e-17
11
84.956316374926018
21
-331.47660733014345
31
5.2502766189255865e-17
0
SPLINE
5
428
100
AcDbEntity
8
0
100
AcDbSpline
70
0
71
2
72
6
73
3
74
0
42
0.000000001
43
0.0000000001
44
0.0000000001
40
0
40
0
40
0
40
1
40
1
40
1
10
84.956316374926018
20
-331.47660733014345
30
5.2502766189255859e-17
10
84.862182684926438
20
-331.49093202129006
30
6.2276549688100105e-17
10
84.814774789599824
20
-331.54311482608318
30
6.1691791928662739e-17
0
SPLINE
5
429
100
AcDbEntity
8
0
100
AcDbSpline
70
0
71
2
72
6
73
3
74
0
42
0.000000001
43
0.0000000001
44
0.0000000001
40
0
40
0
40
0
40
1
40
1
40
1
10
84.814774789599824
20
-331.54311482608318
30
6.1691791928662739e-17
10
84.767366819767403
20
-331.5952976308763
30
6.1107043293555021e-17
10
84.767366819767403
20
-331.66896750032902
30
5.2085086311667953e-17
0
SPLINE
5
430
100
AcDbEntity
8
0
100
AcDbSpline
70
0
71
2
72
6
73
3
74
0
42
0.000000001
43
0.0000000001
44
0.0000000001
40
0
40
0
40
0
40
1
40
1
40
1
10
84.767366819767403
20
-331.66896750032902
30
5.2085086311667953e-17
10
84.767366819767403
20
-331.75764416158199
30
4.1225327375414905e-17
10
84.834215440539765
20
-331.81903571635485
30
2.5520435325060608e-17
0
SPLINE
5
431
100
AcDbEntity
8
0
100
AcDbSpline
70
0
71
2
72
6
73
3
74
0
42
0.000000001
43
0.0000000001
44
0.0000000001
40
0
40
0
40
0
40
1
40
1
40
1
10
84.834215440539765
20
-331.81903571635485
30
2.5520435325060608e-17
10
84.901063986806321
20
-331.8804272338748
30
9.8155569612008283e-18
10
85.011568763045716
20
-331.8804272338748
30
-3.717375090006151e-18
0
SPLINE
5
432
100
AcDbEntity
8
0
100
AcDbSpline
70
0
71
2
72
6
73
3
74
0
42
0.000000001
43
0.0000000001
44
0.0000000001
40
0
40
0
40
0
40
1
40
1
40
1
10
85.011568763045716
20
-331.8804272338748
30
-3.717375090006151e-18
10
85.116616510538506
20
-331.8804272338748
30
-1.6582013862474648e-17
10
85.177325927404809
20
-331.82142314314842
30
-1.6790856082351025e-17
0
SPLINE
5
433
100
AcDbEntity
8
0
100
AcDbSpline
70
0
71
2
72
6
73
3
74
0
42
0.000000001
43
0.0000000001
44
0.0000000001
40
0
40
0
40
0
40
1
40
1
40
1
10
85.177325927404809
20
-331.82142314314842
30
-1.6790856082351025e-17
10
85.238035344271111
20
-331.76241905242205
30
-1.6999698302227399e-17
10
85.238035344271111
20
-331.66692108660936
30
-5.3045704864688245e-18
0
SPLINE
5
434
100
AcDbEntity
8
0
100
AcDbSpline
70
0
71
2
72
6
73
3
74
0
42
0.000000001
43
0.0000000001
44
0.0000000001
40
0
40
0
40
0
40
1
40
1
40
1
10
85.238035344271111
20
-331.66692108660936
30
-5.3045704864688245e-18
10
85.238035344271111
20
-331.60757594555616
30
1.9631132171060996e-18
10
85.211091288117814
20
-331.55982696264982
30
1.11103723374036e-17
0
SPLINE
5
435
100
AcDbEntity
8
0
100
AcDbSpline
70
0
71
2
72
6
73
3
74
0
42
0.000000001
43
0.0000000001
44
0.0000000001
40
0
40
0
40
0
40
1
40
1
40
1
10
85.211091288117814
20
-331.55982696264982
30
1.11103723374036e-17
10
85.184147231964516
20
-331.51207799836993
30
2.0257629176618705e-17
10
85.141173102645325
20
-331.48479285463691
30
2.8861908562000269e-17
0
LINE
5
436
100
AcDbEntity
8
0
100
AcDbLine
10
85.141173102645325
20
-331.48479285463691
30
2.8861908562000269e-17
11
85.156179913072037
21
-331.36951318755746
31
4.11417918561138e-17
0
LINE
5
437
100
AcDbEntity
8
0
100
AcDbLine
10
85.156179913072037
20
-331.36951318755746
30
4.11417918561138e-17
11
85.66982249238913
21
-331.46637539193034
31
-3.3623481064893807e-17
0
LINE
5
438
100
AcDbEntity
8
0
100
AcDbLine
10
85.66982249238913
20
-331.46637539193034
30
-3.3623481064893807e-17
11
85.66982249238913
21
-331.96364682912827
31
-9.4521668452077929e-17
0
LINE
5
439
100
AcDbEntity
8
0
100
AcDbLine
10
85.66982249238913
20
-331.96364682912827
30
-9.4521668452077929e-17
11
85.552496486095833
21
-331.96364682912827
31
-8.0153376645695109e-17
0
LINE
5
440
100
AcDbEntity
8
0
100
AcDbLine
10
85.552496486095833
20
-331.96364682912827
30
-8.0153376645695122e-17
11
85.552496486095833
21
-331.56460187211633
31
-3.128446371363881e-17
0
LINE
5
441
100
AcDbEntity
8
0
100
AcDbLine
10
85.552496486095833
20
-331.56460187211633
30
-3.1284463713638798e-17
11
85.283737950710702
21
-331.51071374118328
31
8.2283570025733038e-18
0
SPLINE
5
442
100
AcDbEntity
8
0
100
AcDbSpline
70
0
71
2
72
6
73
3
74
0
42
0.000000001
43
0.0000000001
44
0.0000000001
40
0
40
0
40
0
40
1
40
1
40
1
10
85.283737950710702
20
-331.51071374118328
30
8.2283570025733084e-18
10
85.346493744043755
20
-331.60075465962291
30
-1.0483843396692052e-17
10
85.346493744043755
20
-331.69966325908899
30
-2.2596653371120965e-17
0
SPLINE
5
443
100
AcDbEntity
8
0
100
AcDbSpline
70
0
71
2
72
6
73
3
74
0
42
0.000000001
43
0.0000000001
44
0.0000000001
40
0
40
0
40
0
40
1
40
1
40
1
10
85.346493744043755
20
-331.69966325908899
30
-2.2596653371120965e-17
10
85.346493744043755
20
-331.83063187450171
30
-3.8635682936514825e-17
10
85.255770706324029
20
-331.92067277431488
30
-3.8552145136131312e-17
0
SPLINE
5
444
100
AcDbEntity
8
0
100
AcDbSpline
70
0
71
2
72
6
73
3
74
0
42
0.000000001
43
0.0000000001
44
0.0000000001
40
0
40
0
40
0
40
1
40
1
40
1
10
85.255770706324029
20
-331.92067277431488
30
-3.8552145136131312e-17
10
85.165047594098496
20
-332.01071371138096
30
-3.8468602773582957e-17
10
85.022482820538926
20
-332.01071371138096
30
-2.1009453412493459e-17
0
SPLINE
5
445
100
AcDbEntity
8
0
100
AcDbSpline
70
0
71
2
72
6
73
3
74
0
42
0.000000001
43
0.0000000001
44
0.0000000001
40
0
40
0
40
0
40
1
40
1
40
1
10
85.022482820538926
20
-332.01071371138096
30
-2.1009453412493459e-17
10
84.886739277033257
20
-332.01071371138096
30
-4.3856638065797943e-18
10
84.787830733446526
20
-331.93158683180809
30
1.7417387304144986e-17
0
SPLINE
5
446
100
AcDbEntity
8
0
100
AcDbSpline
70
0
71
2
72
6
73
3
74
0
42
0.000000001
43
0.0000000001
44
0.0000000001
40
0
40
0
40
0
40
1
40
1
40
1
10
84.787830733446526
20
-331.93158683180809
30
1.7417387304144986e-17
10
84.666411899713921
20
-331.83540676534176
30
4.4065566966806206e-17
10
84.666411899713921
20
-331.66896750032902
30
6.4448498281835338e-17
0
SPLINE
5
447
100
AcDbEntity
8
0
100
AcDbSpline
70
0
71
2
72
6
73
3
74
0
42
0.000000001
43
0.0000000001
44
0.0000000001
40
0
40
0
40
0
40
1
40
1
40
1
10
84.666411899713921
20
-331.66896750032902
30
6.4448498281835338e-17
10
84.666411899713921
20
-331.53254183754325
30
8.1155823407050101e-17
10
84.742810227660584
20
-331.4462526217103
30
8.23671078261166e-17
0
SPLINE
5
448
100
AcDbEntity
8
0
100
AcDbSpline
70
0
71
2
72
6
73
3
74
0
42
0.000000001
43
0.0000000001
44
0.0000000001
40
0
40
0
40
0
40
1
40
1
40
1
10
84.742810227660584
20
-331.4462526217103
30
8.23671078261166e-17
10
84.819208630113053
20
-331.35996339656413
30
8.3578384261394651e-17
10
84.945402317432809
20
-331.34768508654088
30
6.9627774043411579e-17
0
LINE
5
449
100
AcDbEntity
8
0
100
AcDbLine
10
84.683465086607384
20
-331.02844908647239
30
6.9460696731832737e-17
11
84.823301383046555
21
-331.02844908647239
31
5.2335689447947647e-17
0
LINE
5
450
100
AcDbEntity
8
0
100
AcDbLine
10
84.823301383046555
20
-331.02844908647239
30
5.2335689447947629e-17
11
84.823301383046555
21
-331.16828537359834
31
3.5210683304603743e-17
0
LINE
5
451
100
AcDbEntity
8
0
100
AcDbLine
10
84.823301383046555
20
-331.16828537359834
30
3.5210683304603743e-17
11
84.683465086607384
21
-331.16828537359834
31
5.2335690588488845e-17
0
LINE
5
452
100
AcDbEntity
8
0
100
AcDbLine
10
84.683465086607384
20
-331.16828537359834
30
5.2335690588488858e-17
11
84.683465086607384
21
-331.02844908647239
31
6.9460696731832737e-17
0
LINE
5
453
100
AcDbEntity
8
0
100
AcDbLine
10
85.438581057576584
20
-330.81971780210733
30
-6.8792400031470624e-17
11
85.429031275896477
21
-330.69761686772108
31
-5.2669837227858093e-17
0
SPLINE
5
454
100
AcDbEntity
8
0
100
AcDbSpline
70
0
71
2
72
6
73
3
74
0
42
0.000000001
43
0.0000000001
44
0.0000000001
40
0
40
0
40
0
40
1
40
1
40
1
10
85.429031275896477
20
-330.69761686772108
30
-5.266983722785808e-17
10
85.501336850909638
20
-330.68124578148127
30
-5.9519836491680255e-17
10
85.534079023389268
20
-330.65123212337494
30
-5.985398313104949e-17
0
SPLINE
5
455
100
AcDbEntity
8
0
100
AcDbSpline
70
0
71
2
72
6
73
3
74
0
42
0.000000001
43
0.0000000001
44
0.0000000001
40
0
40
0
40
0
40
1
40
1
40
1
10
85.534079023389268
20
-330.65123212337494
30
-5.985398313104949e-17
10
85.58660285988276
20
-330.60143676400185
30
-6.0188125208253895e-17
10
85.58660285988276
20
-330.52844905108213
30
-5.1249708307832761e-17
0
SPLINE
5
456
100
AcDbEntity
8
0
100
AcDbSpline
70
0
71
2
72
6
73
3
74
0
42
0.000000001
43
0.0000000001
44
0.0000000001
40
0
40
0
40
0
40
1
40
1
40
1
10
85.58660285988276
20
-330.52844905108213
30
-5.1249708307832761e-17
10
85.58660285988276
20
-330.46978601068258
30
-4.4065557842476516e-17
10
85.553860761908936
20
-330.42544769868255
30
-3.4625930107331208e-17
0
SPLINE
5
457
100
AcDbEntity
8
0
100
AcDbSpline
70
0
71
2
72
6
73
3
74
0
42
0.000000001
43
0.0000000001
44
0.0000000001
40
0
40
0
40
0
40
1
40
1
40
1
10
85.553860761908936
20
-330.42544769868255
30
-3.4625930107331208e-17
10
85.5115688077492
20
-330.36746679618955
30
-2.2346046813217664e-17
10
85.43039555170958
20
-330.33404252305627
30
-8.3118970840392516e-18
0
SPLINE
5
458
100
AcDbEntity
8
0
100
AcDbSpline
70
0
71
2
72
6
73
3
74
0
42
0.000000001
43
0.0000000001
44
0.0000000001
40
0
40
0
40
0
40
1
40
1
40
1
10
85.43039555170958
20
-330.33404252305627
30
-8.3118970840392516e-18
10
85.349222221164155
20
-330.30061823129654
30
5.722264050551259e-18
10
85.199154042391228
20
-330.29925397410989
30
2.4267388849049572e-17
0
SPLINE
5
459
100
AcDbEntity
8
0
100
AcDbSpline
70
0
71
2
72
6
73
3
74
0
42
0.000000001
43
0.0000000001
44
0.0000000001
40
0
40
0
40
0
40
1
40
1
40
1
10
85.199154042391228
20
-330.29925397410989
30
2.4267388849049572e-17
10
85.266684689311433
20
-330.34359230473638
30
1.0567390321405253e-17
10
85.299426861791062
20
-330.40771235525608
30
-1.2948108140379479e-18
0
SPLINE
5
460
100
AcDbEntity
8
0
100
AcDbSpline
70
0
71
2
72
6
73
3
74
0
42
0.000000001
43
0.0000000001
44
0.0000000001
40
0
40
0
40
0
40
1
40
1
40
1
10
85.299426861791062
20
-330.40771235525608
30
-1.2948108140379479e-18
10
85.332169034270692
20
-330.47183242440224
30
-1.3157014230563553e-17
10
85.332169034270692
20
-330.54209162294865
30
-2.1761284491615451e-17
0
SPLINE
5
461
100
AcDbEntity
8
0
100
AcDbSpline
70
0
71
2
72
6
73
3
74
0
42
0.000000001
43
0.0000000001
44
0.0000000001
40
0
40
0
40
0
40
1
40
1
40
1
10
85.332169034270692
20
-330.54209162294865
30
-2.1761284491615451e-17
10
85.332169034270692
20
-330.66487469524145
30
-3.6797874138901587e-17
10
85.241787009624886
20
-330.75116396695375
30
-3.6296656460930144e-17
0
SPLINE
5
462
100
AcDbEntity
8
0
100
AcDbSpline
70
0
71
2
72
6
73
3
74
0
42
0.000000001
43
0.0000000001
44
0.0000000001
40
0
40
0
40
0
40
1
40
1
40
1
10
85.241787009624886
20
-330.75116396695375
30
-3.6296656460930144e-17
10
85.151405059484887
20
-330.83745316416025
30
-3.5795438782958712e-17
10
85.008158110765862
20
-330.83745316416025
30
-1.8252747059320853e-17
0
SPLINE
5
463
100
AcDbEntity
8
0
100
AcDbSpline
70
0
71
2
72
6
73
3
74
0
42
0.000000001
43
0.0000000001
44
0.0000000001
40
0
40
0
40
0
40
1
40
1
40
1
10
85.008158110765862
20
-330.83745316416025
30
-1.8252747059320853e-17
10
84.914024420766282
20
-330.83745316416025
30
-6.72469484432932e-18
10
84.833192252306389
20
-330.79686657339334
30
8.144814640024946e-18
0
SPLINE
5
464
100
AcDbEntity
8
0
100
AcDbSpline
70
0
71
2
72
6
73
3
74
0
42
0.000000001
43
0.0000000001
44
0.0000000001
40
0
40
0
40
0
40
1
40
1
40
1
10
84.833192252306389
20
-330.79686657339334
30
8.144814640024946e-18
10
84.752360009340691
20
-330.75627983361483
30
2.3014351497368229e-17
10
84.709385954527306
20
-330.68533853441477
30
3.6964958863998303e-17
0
SPLINE
5
465
100
AcDbEntity
8
0
100
AcDbSpline
70
0
71
2
72
6
73
3
74
0
42
0.000000001
43
0.0000000001
44
0.0000000001
40
0
40
0
40
0
40
1
40
1
40
1
10
84.709385954527306
20
-330.68533853441477
30
3.6964958863998303e-17
10
84.666411899713921
20
-330.61439719796181
30
5.0915570792793216e-17
10
84.666411899713921
20
-330.52435629814863
30
6.1942400767648461e-17
0
SPLINE
5
466
100
AcDbEntity
8
0
100
AcDbSpline
70
0
71
2
72
6
73
3
74
0
42
0.000000001
43
0.0000000001
44
0.0000000001
40
0
40
0
40
0
40
1
40
1
40
1
10
84.666411899713921
20
-330.52435629814863
30
6.1942400767648461e-17
10
84.666411899713921
20
-330.37087742984295
30
8.0738141248379762e-17
10
84.779304139999795
20
-330.27401522547007
30
7.8775028031273664e-17
0
SPLINE
5
467
100
AcDbEntity
8
0
100
AcDbSpline
70
0
71
2
72
6
73
3
74
0
42
0.000000001
43
0.0000000001
44
0.0000000001
40
0
40
0
40
0
40
1
40
1
40
1
10
84.779304139999795
20
-330.27401522547007
30
7.8775028031273664e-17
10
84.892196305779862
20
-330.17715302109718
30
7.6811923938497225e-17
10
85.151405059484887
20
-330.17715302109718
30
4.506800688491391e-17
0
SPLINE
5
468
100
AcDbEntity
8
0
100
AcDbSpline
70
0
71
2
72
6
73
3
74
0
42
0.000000001
43
0.0000000001
44
0.0000000001
40
0
40
0
40
0
40
1
40
1
40
1
10
85.151405059484887
20
-330.17715302109718
30
4.506800688491391e-17
10
85.441309534696984
20
-330.17715302109718
30
9.5649481222151034e-18
10
85.57296032526915
20
-330.28424714505672
30
-1.9672871417181327e-17
0
SPLINE
5
469
100
AcDbEntity
8
0
100
AcDbSpline
70
0
71
2
72
6
73
3
74
0
42
0.000000001
43
0.0000000001
44
0.0000000001
40
0
40
0
40
0
40
1
40
1
40
1
10
85.57296032526915
20
-330.28424714505672
30
-1.9672871417181327e-17
10
85.687557854442048
20
-330.37769871577621
30
-4.5151537842050173e-17
10
85.687557854442048
20
-330.53595245629549
30
-6.4532031520054022e-17
0
SPLINE
5
470
100
AcDbEntity
8
0
100
AcDbSpline
70
0
71
2
72
6
73
3
74
0
42
0.000000001
43
0.0000000001
44
0.0000000001
40
0
40
0
40
0
40
1
40
1
40
1
10
85.687557854442048
20
-330.53595245629549
30
-6.4532031520054022e-17
10
85.687557854442048
20
-330.65396063774824
30
-7.8983865688985196e-17
10
85.62139140882914
20
-330.72933581471443
30
-8.0111610026585761e-17
0
SPLINE
5
471
100
AcDbEntity
8
0
100
AcDbSpline
70
0
71
2
72
6
73
3
74
0
42
0.000000001
43
0.0000000001
44
0.0000000001
40
0
40
0
40
0
40
1
40
1
40
1
10
85.62139140882914
20
-330.72933581471443
30
-8.0111610026585761e-17
10
85.555224963216233
20
-330.80471099168062
30
-8.1239354364186352e-17
10
85.438581057576584
20
-330.81971780210733
30
-6.8792400031470624e-17
0
SPLINE
5
472
100
AcDbEntity
8
0
100
AcDbSpline
70
0
71
2
72
6
73
3
74
0
42
0.000000001
43
0.0000000001
44
0.0000000001
40
0
40
0
40
0
40
1
40
1
40
1
10
85.007476010112214
20
-330.31835355609655
30
4.5402153524283151e-17
10
84.944038116125512
20
-330.31835355609655
30
5.3171054905829518e-17
10
84.886057176379609
20
-330.3452976308763
30
5.6971974639466438e-17
0
SPLINE
5
473
100
AcDbEntity
8
0
100
AcDbSpline
70
0
71
2
72
6
73
3
74
0
42
0.000000001
43
0.0000000001
44
0.0000000001
40
0
40
0
40
0
40
1
40
1
40
1
10
84.886057176379609
20
-330.3452976308763
30
5.6971974639466438e-17
10
84.828076236633706
20
-330.3722416870296
30
6.0772896654185773e-17
10
84.797721528200555
20
-330.42067280784249
30
5.8559174598093978e-17
0
SPLINE
5
474
100
AcDbEntity
8
0
100
AcDbSpline
70
0
71
2
72
6
73
3
74
0
42
0.000000001
43
0.0000000001
44
0.0000000001
40
0
40
0
40
0
40
1
40
1
40
1
10
84.797721528200555
20
-330.42067280784249
30
5.8559174598093978e-17
10
84.767366819767403
20
-330.46910391002893
30
5.6345454823084579e-17
10
84.767366819767403
20
-330.52230992168188
30
4.9829597636466785e-17
0
SPLINE
5
475
100
AcDbEntity
8
0
100
AcDbSpline
70
0
71
2
72
6
73
3
74
0
42
0.000000001
43
0.0000000001
44
0.0000000001
40
0
40
0
40
0
40
1
40
1
40
1
10
84.767366819767403
20
-330.52230992168188
30
4.9829597636466785e-17
10
84.767366819767403
20
-330.60007252544165
30
4.0306425257690713e-17
10
84.830122613100457
20
-330.6560070514679
30
2.5771053288376011e-17
0
SPLINE
5
476
100
AcDbEntity
8
0
100
AcDbSpline
70
0
71
2
72
6
73
3
74
0
42
0.000000001
43
0.0000000001
44
0.0000000001
40
0
40
0
40
0
40
1
40
1
40
1
10
84.830122613100457
20
-330.6560070514679
30
2.5771053288376011e-17
10
84.892878480939316
20
-330.71194154024124
30
1.123567675689647e-17
10
85.000654705552506
20
-330.71194154024124
30
-1.9631040927764299e-18
0
SPLINE
5
477
100
AcDbEntity
8
0
100
AcDbSpline
70
0
71
2
72
6
73
3
74
0
42
0.000000001
43
0.0000000001
44
0.0000000001
40
0
40
0
40
0
40
1
40
1
40
1
10
85.000654705552506
20
-330.71194154024124
30
-1.9631040927764299e-18
10
85.104338177232194
20
-330.71194154024124
30
-1.466066726447788e-17
10
85.164024405865121
20
-330.65668915212154
30
-1.5203656123723498e-17
0
SPLINE
5
478
100
AcDbEntity
8
0
100
AcDbSpline
70
0
71
2
72
6
73
3
74
0
42
0.000000001
43
0.0000000001
44
0.0000000001
40
0
40
0
40
0
40
1
40
1
40
1
10
85.164024405865121
20
-330.65668915212154
30
-1.5203656123723498e-17
10
85.223710634498048
20
-330.60143676400185
30
-1.5746644982969119e-17
10
85.223710634498048
20
-330.51753499358892
30
-5.4716415250710257e-18
0
SPLINE
5
479
100
AcDbEntity
8
0
100
AcDbSpline
70
0
71
2
72
6
73
3
74
0
42
0.000000001
43
0.0000000001
44
0.0000000001
40
0
40
0
40
0
40
1
40
1
40
1
10
85.223710634498048
20
-330.51753499358892
30
-5.4716415250710257e-18
10
85.223710634498048
20
-330.43431536108255
30
4.7198241324435437e-18
10
85.164024405865121
20
-330.37633445858955
30
1.9129891682265384e-17
0
SPLINE
5
480
100
AcDbEntity
8
0
100
AcDbSpline
70
0
71
2
72
6
73
3
74
0
42
0.000000001
43
0.0000000001
44
0.0000000001
40
0
40
0
40
0
40
1
40
1
40
1
10
85.164024405865121
20
-330.37633445858955
30
1.9129891682265384e-17
10
85.104338177232194
20
-330.31835355609655
30
3.3539959232087216e-17
10
85.007476010112214
20
-330.31835355609655
30
4.5402153524283151e-17
0
LINE
5
481
100
AcDbEntity
8
0
100
AcDbLine
10
84.683465086607384
20
-329.86814890801907
30
4.506800688491391e-17
11
84.683465086607384
21
-329.74536583572626
31
6.0104596532200041e-17
0
LINE
5
482
100
AcDbEntity
8
0
100
AcDbLine
10
84.683465086607384
20
-329.74536583572626
30
6.0104596532200041e-17
11
85.465866201309609
21
-329.74536583572626
31
-3.5711905544740017e-17
0
SPLINE
5
483
100
AcDbEntity
8
0
100
AcDbSpline
70
0
71
2
72
6
73
3
74
0
42
0.000000001
43
0.0000000001
44
0.0000000001
40
0
40
0
40
0
40
1
40
1
40
1
10
85.465866201309609
20
-329.74536583572626
30
-3.5711905544740023e-17
10
85.423574247149872
20
-329.70102750509977
30
-2.5102755447472696e-17
10
85.381282292990136
20
-329.62906294316053
30
-1.1110367775238769e-17
0
SPLINE
5
484
100
AcDbEntity
8
0
100
AcDbSpline
70
0
71
2
72
6
73
3
74
0
42
0.000000001
43
0.0000000001
44
0.0000000001
40
0
40
0
40
0
40
1
40
1
40
1
10
85.381282292990136
20
-329.62906294316053
30
-1.1110367775238769e-17
10
85.338990338830399
20
-329.5570984184742
30
2.8820153348302988e-18
10
85.317844324497628
20
-329.49979965388775
30
1.2488730076154756e-17
0
LINE
5
485
100
AcDbEntity
8
0
100
AcDbLine
10
85.317844324497628
20
-329.49979965388775
30
1.2488730076154756e-17
11
85.436534681109833
21
-329.49979965388775
31
-2.0466464553247789e-18
0
SPLINE
5
486
100
AcDbEntity
8
0
100
AcDbSpline
70
0
71
2
72
6
73
3
74
0
42
0.000000001
43
0.0000000001
44
0.0000000001
40
0
40
0
40
0
40
1
40
1
40
1
10
85.436534681109833
20
-329.49979965388775
30
-2.0466464553247847e-18
10
85.484965764669823
20
-329.60280102491379
30
-2.0591773534905531e-17
10
85.55386068740313
20
-329.679881490767
30
-3.8468602773582951e-17
0
SPLINE
5
487
100
AcDbEntity
8
0
100
AcDbSpline
70
0
71
2
72
6
73
3
74
0
42
0.000000001
43
0.0000000001
44
0.0000000001
40
0
40
0
40
0
40
1
40
1
40
1
10
85.55386068740313
20
-329.679881490767
30
-3.8468602773582951e-17
10
85.622755684642243
20
-329.75696199387312
30
-5.6345445698754883e-17
10
85.687557854442048
20
-329.7890220284462
30
-6.8207644553115655e-17
0
LINE
5
488
100
AcDbEntity
8
0
100
AcDbLine
10
85.687557854442048
20
-329.7890220284462
30
-6.8207644553115655e-17
11
85.687557854442048
21
-329.86814890801907
31
-7.7897892532658796e-17
0
LINE
5
489
100
AcDbEntity
8
0
100
AcDbLine
10
85.687557854442048
20
-329.86814890801907
30
-7.7897892532658796e-17
11
84.683465086607384
21
-329.86814890801907
31
4.506800688491391e-17
0
LINE
5
490
100
AcDbEntity
8
0
100
AcDbLine
10
145.00000216066837
20
-383.17463053390384
30
1.2037625954083747e-16
11
145.72442233562469
21
-383.17463053390384
31
3.1660374691034978e-17
0
LINE
5
491
100
AcDbEntity
8
0
100
AcDbLine
10
145.72442233562469
20
-383.17463053390384
30
3.1660374691034959e-17
11
145.72442233562469
21
-383.28445317223668
31
1.8210980440211509e-17
0
LINE
5
492
100
AcDbEntity
8
0
100
AcDbLine
10
145.72442233562469
20
-383.28445317223668
30
1.8210980440211515e-17
11
145.62278524041176
21
-383.28445317223668
31
3.0657934772927249e-17
0
SPLINE
5
493
100
AcDbEntity
8
0
100
AcDbSpline
70
0
71
2
72
6
73
3
74
0
42
0.000000001
43
0.0000000001
44
0.0000000001
40
0
40
0
40
0
40
1
40
1
40
1
10
145.62278524041176
20
-383.28445317223668
30
3.0657934772927243e-17
10
145.6759912520647
20
-383.31855958327651
30
1.9965246875276382e-17
10
145.70839233696461
20
-383.37517622858286
30
9.06371903883158e-18
0
SPLINE
5
494
100
AcDbEntity
8
0
100
AcDbSpline
70
0
71
2
72
6
73
3
74
0
42
0.000000001
43
0.0000000001
44
0.0000000001
40
0
40
0
40
0
40
1
40
1
40
1
10
145.70839233696461
20
-383.37517622858286
30
9.06371903883158e-18
10
145.74079342186451
20
-383.43179287388921
30
-1.8378087976132371e-18
10
145.74079342186451
20
-383.50409848615527
30
-1.0692692459815681e-17
0
SPLINE
5
495
100
AcDbEntity
8
0
100
AcDbSpline
70
0
71
2
72
6
73
3
74
0
42
0.000000001
43
0.0000000001
44
0.0000000001
40
0
40
0
40
0
40
1
40
1
40
1
10
145.74079342186451
20
-383.50409848615527
30
-1.0692692459815681e-17
10
145.74079342186451
20
-383.58458960428834
30
-2.0550011477961019e-17
10
145.70736914873123
20
-383.63609028980136
30
-2.2763733534052842e-17
0
SPLINE
5
496
100
AcDbEntity
8
0
100
AcDbSpline
70
0
71
2
72
6
73
3
74
0
42
0.000000001
43
0.0000000001
44
0.0000000001
40
0
40
0
40
0
40
1
40
1
40
1
10
145.70736914873123
20
-383.63609028980136
30
-2.2763733534052842e-17
10
145.67394487559795
20
-383.68759097531438
30
-2.4977455590144659e-17
10
145.6139175593853
20
-383.70873695239425
30
-2.0215864838591769e-17
0
SPLINE
5
497
100
AcDbEntity
8
0
100
AcDbSpline
70
0
71
2
72
6
73
3
74
0
42
0.000000001
43
0.0000000001
44
0.0000000001
40
0
40
0
40
0
40
1
40
1
40
1
10
145.6139175593853
20
-383.70873695239425
30
-2.0215864838591769e-17
10
145.74079342186451
20
-383.79468506202102
30
-4.6279284460733159e-17
10
145.74079342186451
20
-383.93247498199344
30
-6.3153682905632552e-17
0
SPLINE
5
498
100
AcDbEntity
8
0
100
AcDbSpline
70
0
71
2
72
6
73
3
74
0
42
0.000000001
43
0.0000000001
44
0.0000000001
40
0
40
0
40
0
40
1
40
1
40
1
10
145.74079342186451
20
-383.93247498199344
30
-6.3153682905632552e-17
10
145.74079342186451
20
-384.04025128111243
30
-7.6352472879635117e-17
10
145.68110719323158
20
-384.09823214635253
30
-7.6143626097593901e-17
0
SPLINE
5
499
100
AcDbEntity
8
0
100
AcDbSpline
70
0
71
2
72
6
73
3
74
0
42
0.000000001
43
0.0000000001
44
0.0000000001
40
0
40
0
40
0
40
1
40
1
40
1
10
145.68110719323158
20
-384.09823214635253
30
-7.6143626097593901e-17
10
145.62142096459866
20
-384.15621308609843
30
-7.5934788439882356e-17
10
145.49727365374565
20
-384.15621308609843
30
-6.0731127753994017e-17
0
LINE
5
500
100
AcDbEntity
8
0
100
AcDbLine
10
145.49727365374565
20
-384.15621308609843
30
-6.0731127753994017e-17
11
145.00000216066837
21
-384.15621308609843
31
1.6706647643737789e-19
0
LINE
5
501
100
AcDbEntity
8
0
100
AcDbLine
10
145.00000216066837
20
-384.15621308609843
30
1.6706647643738559e-19
11
145.00000216066837
21
-384.03411207720637
31
1.5120127447669681e-17
0
LINE
5
502
100
AcDbEntity
8
0
100
AcDbLine
10
145.00000216066837
20
-384.03411207720637
30
1.5120127447669684e-17
11
145.45634590089321
21
-384.03411207720637
31
-4.0765862630058265e-17
0
SPLINE
5
503
100
AcDbEntity
8
0
100
AcDbSpline
70
0
71
2
72
6
73
3
74
0
42
0.000000001
43
0.0000000001
44
0.0000000001
40
0
40
0
40
0
40
1
40
1
40
1
10
145.45634590089321
20
-384.03411207720637
30
-4.0765862630058277e-17
10
145.53001575171947
20
-384.03411207720637
30
-4.978781733086293e-17
10
145.56241683661938
20
-384.02217483147979
30
-5.2293914845049814e-17
0
SPLINE
5
504
100
AcDbEntity
8
0
100
AcDbSpline
70
0
71
2
72
6
73
3
74
0
42
0.000000001
43
0.0000000001
44
0.0000000001
40
0
40
0
40
0
40
1
40
1
40
1
10
145.56241683661938
20
-384.02217483147979
30
-5.2293914845049814e-17
10
145.59481792151928
20
-384.0102375857532
30
-5.4800012359236691e-17
10
145.61459966003895
20
-383.97885968908668
30
-5.337989256354105e-17
0
SPLINE
5
505
100
AcDbEntity
8
0
100
AcDbSpline
70
0
71
2
72
6
73
3
74
0
42
0.000000001
43
0.0000000001
44
0.0000000001
40
0
40
0
40
0
40
1
40
1
40
1
10
145.61459966003895
20
-383.97885968908668
30
-5.337989256354105e-17
10
145.63438139855862
20
-383.94748179242015
30
-5.1959772767845408e-17
10
145.63438139855862
20
-383.90518983826041
30
-4.6780502138704603e-17
0
SPLINE
5
506
100
AcDbEntity
8
0
100
AcDbSpline
70
0
71
2
72
6
73
3
74
0
42
0.000000001
43
0.0000000001
44
0.0000000001
40
0
40
0
40
0
40
1
40
1
40
1
10
145.63438139855862
20
-383.90518983826041
30
-4.6780502138704603e-17
10
145.63438139855862
20
-383.82879151031375
30
-3.7424405360695545e-17
10
145.58356285095215
20
-383.77831405028701
30
-2.5019222209253997e-17
0
SPLINE
5
507
100
AcDbEntity
8
0
100
AcDbSpline
70
0
71
2
72
6
73
3
74
0
42
0.000000001
43
0.0000000001
44
0.0000000001
40
0
40
0
40
0
40
1
40
1
40
1
10
145.58356285095215
20
-383.77831405028701
30
-2.5019222209253997e-17
10
145.53274430334568
20
-383.72783651575446
30
-1.2614029933482772e-17
10
145.42087532579899
20
-383.72783651575446
30
1.0859685941615771e-18
0
LINE
5
508
100
AcDbEntity
8
0
100
AcDbLine
10
145.42087532579899
20
-383.72783651575446
30
1.0859685941615771e-18
11
145.00000216066837
21
-383.72783651575446
31
5.2628066046583915e-17
0
LINE
5
509
100
AcDbEntity
8
0
100
AcDbLine
10
145.00000216066837
20
-383.72783651575446
30
5.2628066046583921e-17
11
145.00000216066837
21
-383.60505344346166
31
6.7664655693870058e-17
0
LINE
5
510
100
AcDbEntity
8
0
100
AcDbLine
10
145.00000216066837
20
-383.60505344346166
30
6.7664655693870058e-17
11
145.47067068517208
21
-383.60505344346166
31
1.0024385494582714e-17
0
SPLINE
5
511
100
AcDbEntity
8
0
100
AcDbSpline
70
0
71
2
72
6
73
3
74
0
42
0.000000001
43
0.0000000001
44
0.0000000001
40
0
40
0
40
0
40
1
40
1
40
1
10
145.47067068517208
20
-383.60505344346166
30
1.0024385494582699e-17
10
145.55252604186535
20
-383.60505344346166
30
-4.5621648386807294e-24
10
145.59345372021198
20
-383.57503982260823
30
-1.336591119641795e-18
0
SPLINE
5
512
100
AcDbEntity
8
0
100
AcDbSpline
70
0
71
2
72
6
73
3
74
0
42
0.000000001
43
0.0000000001
44
0.0000000001
40
0
40
0
40
0
40
1
40
1
40
1
10
145.59345372021198
20
-383.57503982260823
30
-1.336591119641795e-18
10
145.63438139855862
20
-383.54502616450191
30
-2.6731731149539126e-18
10
145.63438139855862
20
-383.47681334242225
30
5.6804883071122583e-18
0
SPLINE
5
513
100
AcDbEntity
8
0
100
AcDbSpline
70
0
71
2
72
6
73
3
74
0
42
0.000000001
43
0.0000000001
44
0.0000000001
40
0
40
0
40
0
40
1
40
1
40
1
10
145.63438139855862
20
-383.47681334242225
30
5.6804883071122583e-18
10
145.63438139855862
20
-383.4249716065824
30
1.2029269892962983e-17
10
145.6070963293314
20
-383.38097432628274
30
2.0758840011342886e-17
0
SPLINE
5
514
100
AcDbEntity
8
0
100
AcDbSpline
70
0
71
2
72
6
73
3
74
0
42
0.000000001
43
0.0000000001
44
0.0000000001
40
0
40
0
40
0
40
1
40
1
40
1
10
145.6070963293314
20
-383.38097432628274
30
2.0758840011342886e-17
10
145.57981111109257
20
-383.33697704598308
30
2.9488428378382159e-17
10
145.52728727459908
20
-383.31719534471631
30
3.8343302916254925e-17
0
SPLINE
5
515
100
AcDbEntity
8
0
100
AcDbSpline
70
0
71
2
72
6
73
3
74
0
42
0.000000001
43
0.0000000001
44
0.0000000001
40
0
40
0
40
0
40
1
40
1
40
1
10
145.52728727459908
20
-383.31719534471631
30
3.8343302916254925e-17
10
145.47476343810558
20
-383.29741360619664
30
4.7198182016292546e-17
10
145.37585482001305
20
-383.29741360619664
30
5.9310994271803869e-17
0
LINE
5
516
100
AcDbEntity
8
0
100
AcDbLine
10
145.37585482001305
20
-383.29741360619664
30
5.9310994271803869e-17
11
145.00000216066837
21
-383.29741360619664
31
1.0533966989355132e-16
0
LINE
5
517
100
AcDbEntity
8
0
100
AcDbLine
10
145.00000216066837
20
-383.29741360619664
30
1.0533966989355134e-16
11
145.00000216066837
21
-383.17463053390384
31
1.2037625954083747e-16
0
LINE
5
518
100
AcDbEntity
8
0
100
AcDbLine
10
145.00000216066837
20
-382.01091980561614
30
1.2037625954083747e-16
11
145.72442233562469
21
-382.01091980561614
31
3.1660374691034978e-17
0
LINE
5
519
100
AcDbEntity
8
0
100
AcDbLine
10
145.72442233562469
20
-382.01091980561614
30
3.1660374691034959e-17
11
145.72442233562469
21
-382.12074244394898
31
1.8210980440211509e-17
0
LINE
5
520
100
AcDbEntity
8
0
100
AcDbLine
10
145.72442233562469
20
-382.12074244394898
30
1.8210980440211515e-17
11
145.62278524041176
21
-382.12074244394898
31
3.0657934772927249e-17
0
SPLINE
5
521
100
AcDbEntity
8
0
100
AcDbSpline
70
0
71
2
72
6
73
3
74
0
42
0.000000001
43
0.0000000001
44
0.0000000001
40
0
40
0
40
0
40
1
40
1
40
1
10
145.62278524041176
20
-382.12074244394898
30
3.0657934772927243e-17
10
145.6759912520647
20
-382.15484885498881
30
1.9965246875276382e-17
10
145.70839233696461
20
-382.21146550029516
30
9.06371903883158e-18
0
SPLINE
5
522
100
AcDbEntity
8
0
100
AcDbSpline
70
0
71
2
72
6
73
3
74
0
42
0.000000001
43
0.0000000001
44
0.0000000001
40
0
40
0
40
0
40
1
40
1
40
1
10
145.70839233696461
20
-382.21146550029516
30
9.06371903883158e-18
10
145.74079342186451
20
-382.26808214560151
30
-1.8378087976132371e-18
10
145.74079342186451
20
-382.34038775786757
30
-1.0692692459815681e-17
0
SPLINE
5
523
100
AcDbEntity
8
0
100
AcDbSpline
70
0
71
2
72
6
73
3
74
0
42
0.000000001
43
0.0000000001
44
0.0000000001
40
0
40
0
40
0
40
1
40
1
40
1
10
145.74079342186451
20
-382.34038775786757
30
-1.0692692459815681e-17
10
145.74079342186451
20
-382.42087887600064
30
-2.0550011477961019e-17
10
145.70736914873123
20
-382.47237956151366
30
-2.2763733534052842e-17
0
SPLINE
5
524
100
AcDbEntity
8
0
100
AcDbSpline
70
0
71
2
72
6
73
3
74
0
42
0.000000001
43
0.0000000001
44
0.0000000001
40
0
40
0
40
0
40
1
40
1
40
1
10
145.70736914873123
20
-382.47237956151366
30
-2.2763733534052842e-17
10
145.67394487559795
20
-382.52388024702668
30
-2.4977455590144659e-17
10
145.6139175593853
20
-382.54502622410655
30
-2.0215864838591769e-17
0
SPLINE
5
525
100
AcDbEntity
8
0
100
AcDbSpline
70
0
71
2
72
6
73
3
74
0
42
0.000000001
43
0.0000000001
44
0.0000000001
40
0
40
0
40
0
40
1
40
1
40
1
10
145.6139175593853
20
-382.54502622410655
30
-2.0215864838591769e-17
10
145.74079342186451
20
-382.63097433373332
30
-4.6279284460733159e-17
10
145.74079342186451
20
-382.76876425370574
30
-6.3153682905632552e-17
0
SPLINE
5
526
100
AcDbEntity
8
0
100
AcDbSpline
70
0
71
2
72
6
73
3
74
0
42
0.000000001
43
0.0000000001
44
0.0000000001
40
0
40
0
40
0
40
1
40
1
40
1
10
145.74079342186451
20
-382.76876425370574
30
-6.3153682905632552e-17
10
145.74079342186451
20
-382.87654055282474
30
-7.6352472879635117e-17
10
145.68110719323158
20
-382.93452141806483
30
-7.6143626097593901e-17
0
SPLINE
5
527
100
AcDbEntity
8
0
100
AcDbSpline
70
0
71
2
72
6
73
3
74
0
42
0.000000001
43
0.0000000001
44
0.0000000001
40
0
40
0
40
0
40
1
40
1
40
1
10
145.68110719323158
20
-382.93452141806483
30
-7.6143626097593901e-17
10
145.62142096459866
20
-382.99250235781074
30
-7.5934788439882356e-17
10
145.49727365374565
20
-382.99250235781074
30
-6.0731127753994017e-17
0
LINE
5
528
100
AcDbEntity
8
0
100
AcDbLine
10
145.49727365374565
20
-382.99250235781074
30
-6.0731127753994017e-17
11
145.00000216066837
21
-382.99250235781074
31
1.6706647643737789e-19
0
LINE
5
529
100
AcDbEntity
8
0
100
AcDbLine
10
145.00000216066837
20
-382.99250235781074
30
1.6706647643738559e-19
11
145.00000216066837
21
-382.87040134891868
31
1.5120127447669681e-17
0
LINE
5
530
100
AcDbEntity
8
0
100
AcDbLine
10
145.00000216066837
20
-382.87040134891868
30
1.5120127447669684e-17
11
145.45634590089321
21
-382.87040134891868
31
-4.0765862630058265e-17
0
SPLINE
5
531
100
AcDbEntity
8
0
100
AcDbSpline
70
0
71
2
72
6
73
3
74
0
42
0.000000001
43
0.0000000001
44
0.0000000001
40
0
40
0
40
0
40
1
40
1
40
1
10
145.45634590089321
20
-382.87040134891868
30
-4.0765862630058277e-17
10
145.53001575171947
20
-382.87040134891868
30
-4.978781733086293e-17
10
145.56241683661938
20
-382.85846410319209
30
-5.2293914845049814e-17
0
SPLINE
5
532
100
AcDbEntity
8
0
100
AcDbSpline
70
0
71
2
72
6
73
3
74
0
42
0.000000001
43
0.0000000001
44
0.0000000001
40
0
40
0
40
0
40
1
40
1
40
1
10
145.56241683661938
20
-382.85846410319209
30
-5.2293914845049814e-17
10
145.59481792151928
20
-382.84652685746551
30
-5.4800012359236691e-17
10
145.61459966003895
20
-382.81514896079898
30
-5.337989256354105e-17
0
SPLINE
5
533
100
AcDbEntity
8
0
100
AcDbSpline
70
0
71
2
72
6
73
3
74
0
42
0.000000001
43
0.0000000001
44
0.0000000001
40
0
40
0
40
0
40
1
40
1
40
1
10
145.61459966003895
20
-382.81514896079898
30
-5.337989256354105e-17
10
145.63438139855862
20
-382.78377106413245
30
-5.1959772767845408e-17
10
145.63438139855862
20
-382.74147910997272
30
-4.6780502138704603e-17
0
SPLINE
5
534
100
AcDbEntity
8
0
100
AcDbSpline
70
0
71
2
72
6
73
3
74
0
42
0.000000001
43
0.0000000001
44
0.0000000001
40
0
40
0
40
0
40
1
40
1
40
1
10
145.63438139855862
20
-382.74147910997272
30
-4.6780502138704603e-17
10
145.63438139855862
20
-382.66508078202605
30
-3.7424405360695545e-17
10
145.58356285095215
20
-382.61460332199931
30
-2.5019222209253997e-17
0
SPLINE
5
535
100
AcDbEntity
8
0
100
AcDbSpline
70
0
71
2
72
6
73
3
74
0
42
0.000000001
43
0.0000000001
44
0.0000000001
40
0
40
0
40
0
40
1
40
1
40
1
10
145.58356285095215
20
-382.61460332199931
30
-2.5019222209253997e-17
10
145.53274430334568
20
-382.56412578746676
30
-1.2614029933482772e-17
10
145.42087532579899
20
-382.56412578746676
30
1.0859685941615771e-18
0
LINE
5
536
100
AcDbEntity
8
0
100
AcDbLine
10
145.42087532579899
20
-382.56412578746676
30
1.0859685941615771e-18
11
145.00000216066837
21
-382.56412578746676
31
5.2628066046583915e-17
0
LINE
5
537
100
AcDbEntity
8
0
100
AcDbLine
10
145.00000216066837
20
-382.56412578746676
30
5.2628066046583921e-17
11
145.00000216066837
21
-382.44134271517396
31
6.7664655693870058e-17
0
LINE
5
538
100
AcDbEntity
8
0
100
AcDbLine
10
145.00000216066837
20
-382.44134271517396
30
6.7664655693870058e-17
11
145.47067068517208
21
-382.44134271517396
31
1.0024385494582714e-17
0
SPLINE
5
539
100
AcDbEntity
8
0
100
AcDbSpline
70
0
71
2
72
6
73
3
74
0
42
0.000000001
43
0.0000000001
44
0.0000000001
40
0
40
0
40
0
40
1
40
1
40
1
10
145.47067068517208
20
-382.44134271517396
30
1.0024385494582699e-17
10
145.55252604186535
20
-382.44134271517396
30
-4.5621648386807294e-24
10
145.59345372021198
20
-382.41132909432054
30
-1.336591119641795e-18
0
SPLINE
5
540
100
AcDbEntity
8
0
100
AcDbSpline
70
0
71
2
72
6
73
3
74
0
42
0.000000001
43
0.0000000001
44
0.0000000001
40
0
40
0
40
0
40
1
40
1
40
1
10
145.59345372021198
20
-382.41132909432054
30
-1.336591119641795e-18
10
145.63438139855862
20
-382.38131543621421
30
-2.6731731149539126e-18
10
145.63438139855862
20
-382.31310261413455
30
5.6804883071122583e-18
0
SPLINE
5
541
100
AcDbEntity
8
0
100
AcDbSpline
70
0
71
2
72
6
73
3
74
0
42
0.000000001
43
0.0000000001
44
0.0000000001
40
0
40
0
40
0
40
1
40
1
40
1
10
145.63438139855862
20
-382.31310261413455
30
5.6804883071122583e-18
10
145.63438139855862
20
-382.26126087829471
30
1.2029269892962983e-17
10
145.6070963293314
20
-382.21726359799504
30
2.0758840011342886e-17
0
SPLINE
5
542
100
AcDbEntity
8
0
100
AcDbSpline
70
0
71
2
72
6
73
3
74
0
42
0.000000001
43
0.0000000001
44
0.0000000001
40
0
40
0
40
0
40
1
40
1
40
1
10
145.6070963293314
20
-382.21726359799504
30
2.0758840011342886e-17
10
145.57981111109257
20
-382.17326631769538
30
2.9488428378382159e-17
10
145.52728727459908
20
-382.15348461642861
30
3.8343302916254925e-17
0
SPLINE
5
543
100
AcDbEntity
8
0
100
AcDbSpline
70
0
71
2
72
6
73
3
74
0
42
0.000000001
43
0.0000000001
44
0.0000000001
40
0
40
0
40
0
40
1
40
1
40
1
10
145.52728727459908
20
-382.15348461642861
30
3.8343302916254925e-17
10
145.47476343810558
20
-382.13370287790895
30
4.7198182016292546e-17
10
145.37585482001305
20
-382.13370287790895
30
5.9310994271803869e-17
0
LINE
5
544
100
AcDbEntity
8
0
100
AcDbLine
10
145.37585482001305
20
-382.13370287790895
30
5.9310994271803869e-17
11
145.00000216066837
21
-382.13370287790895
31
1.0533966989355132e-16
0
LINE
5
545
100
AcDbEntity
8
0
100
AcDbLine
10
145.00000216066837
20
-382.13370287790895
30
1.0533966989355134e-16
11
145.00000216066837
21
-382.01091980561614
31
1.2037625954083747e-16
0
LINE
5
546
100
AcDbEntity
8
0
100
AcDbLine
10
145.2619393914938
20
-380.811738348566
30
6.8792405163906058e-17
11
145.27285344898701
21
-380.94066059216857
31
5.1667397309750351e-17
0
SPLINE
5
547
100
AcDbEntity
8
0
100
AcDbSpline
70
0
71
2
72
6
73
3
74
0
42
0.000000001
43
0.0000000001
44
0.0000000001
40
0
40
0
40
0
40
1
40
1
40
1
10
145.27285344898701
20
-380.94066059216857
30
5.1667397309750345e-17
10
145.17871975898743
20
-380.95498528331518
30
6.1441180808594584e-17
10
145.13131186366081
20
-381.0071680881083
30
6.0856423049157219e-17
0
SPLINE
5
548
100
AcDbEntity
8
0
100
AcDbSpline
70
0
71
2
72
6
73
3
74
0
42
0.000000001
43
0.0000000001
44
0.0000000001
40
0
40
0
40
0
40
1
40
1
40
1
10
145.13131186366081
20
-381.0071680881083
30
6.0856423049157219e-17
10
145.08390389382839
20
-381.05935089290142
30
6.0271674414049513e-17
10
145.08390389382839
20
-381.13302076235414
30
5.1249717432162445e-17
0
SPLINE
5
549
100
AcDbEntity
8
0
100
AcDbSpline
70
0
71
2
72
6
73
3
74
0
42
0.000000001
43
0.0000000001
44
0.0000000001
40
0
40
0
40
0
40
1
40
1
40
1
10
145.08390389382839
20
-381.13302076235414
30
5.1249717432162445e-17
10
145.08390389382839
20
-381.22169742360711
30
4.0389958495909391e-17
10
145.15075251460075
20
-381.28308897837996
30
2.4685066445555094e-17
0
SPLINE
5
550
100
AcDbEntity
8
0
100
AcDbSpline
70
0
71
2
72
6
73
3
74
0
42
0.000000001
43
0.0000000001
44
0.0000000001
40
0
40
0
40
0
40
1
40
1
40
1
10
145.15075251460075
20
-381.28308897837996
30
2.4685066445555094e-17
10
145.21760106086731
20
-381.34448049589992
30
8.9801880816953142e-18
10
145.3281058371067
20
-381.34448049589992
30
-4.5527439695116651e-18
0
SPLINE
5
551
100
AcDbEntity
8
0
100
AcDbSpline
70
0
71
2
72
6
73
3
74
0
42
0.000000001
43
0.0000000001
44
0.0000000001
40
0
40
0
40
0
40
1
40
1
40
1
10
145.3281058371067
20
-381.34448049589992
30
-4.5527439695116651e-18
10
145.43315358459949
20
-381.34448049589992
30
-1.7417382741980163e-17
10
145.4938630014658
20
-381.28547640517354
30
-1.762622496185654e-17
0
SPLINE
5
552
100
AcDbEntity
8
0
100
AcDbSpline
70
0
71
2
72
6
73
3
74
0
42
0.000000001
43
0.0000000001
44
0.0000000001
40
0
40
0
40
0
40
1
40
1
40
1
10
145.4938630014658
20
-381.28547640517354
30
-1.762622496185654e-17
10
145.5545724183321
20
-381.22647231444716
30
-1.7835067181732913e-17
10
145.5545724183321
20
-381.13097434863448
30
-6.1399393659743387e-18
0
SPLINE
5
553
100
AcDbEntity
8
0
100
AcDbSpline
70
0
71
2
72
6
73
3
74
0
42
0.000000001
43
0.0000000001
44
0.0000000001
40
0
40
0
40
0
40
1
40
1
40
1
10
145.5545724183321
20
-381.13097434863448
30
-6.1399393659743387e-18
10
145.5545724183321
20
-381.07162920758128
30
1.1277443376005855e-18
10
145.5276283621788
20
-381.02388022467494
30
1.0275003457898085e-17
0
SPLINE
5
554
100
AcDbEntity
8
0
100
AcDbSpline
70
0
71
2
72
6
73
3
74
0
42
0.000000001
43
0.0000000001
44
0.0000000001
40
0
40
0
40
0
40
1
40
1
40
1
10
145.5276283621788
20
-381.02388022467494
30
1.0275003457898085e-17
10
145.50068430602551
20
-380.97613126039505
30
1.9422260297113191e-17
10
145.45771017670631
20
-380.94884611666203
30
2.8026539682494755e-17
0
LINE
5
555
100
AcDbEntity
8
0
100
AcDbLine
10
145.45771017670631
20
-380.94884611666203
30
2.8026539682494755e-17
11
145.47271698713303
21
-380.83356644958258
31
4.0306422976608286e-17
0
LINE
5
556
100
AcDbEntity
8
0
100
AcDbLine
10
145.47271698713303
20
-380.83356644958258
30
4.0306422976608286e-17
11
145.98635956645012
21
-380.93042865395546
31
-3.4458849944399315e-17
0
LINE
5
557
100
AcDbEntity
8
0
100
AcDbLine
10
145.98635956645012
20
-380.93042865395546
30
-3.4458849944399315e-17
11
145.98635956645012
21
-381.42770009115338
31
-9.5357037331583437e-17
0
LINE
5
558
100
AcDbEntity
8
0
100
AcDbLine
10
145.98635956645012
20
-381.42770009115338
30
-9.5357037331583437e-17
11
145.86903356015682
21
-381.42770009115338
31
-8.0988745525200617e-17
0
LINE
5
559
100
AcDbEntity
8
0
100
AcDbLine
10
145.86903356015682
20
-381.42770009115338
30
-8.098874552520063e-17
11
145.86903356015682
21
-381.02865513414145
31
-3.2119832593144324e-17
0
LINE
5
560
100
AcDbEntity
8
0
100
AcDbLine
10
145.86903356015682
20
-381.02865513414145
30
-3.2119832593144312e-17
11
145.60027502477169
21
-380.9747670032084
31
7.3929881230677897e-18
0
SPLINE
5
561
100
AcDbEntity
8
0
100
AcDbSpline
70
0
71
2
72
6
73
3
74
0
42
0.000000001
43
0.0000000001
44
0.0000000001
40
0
40
0
40
0
40
1
40
1
40
1
10
145.60027502477169
20
-380.9747670032084
30
7.3929881230677943e-18
10
145.66303081810474
20
-381.06480792164803
30
-1.1319212276197566e-17
10
145.66303081810474
20
-381.16371652111411
30
-2.3432022250626479e-17
0
SPLINE
5
562
100
AcDbEntity
8
0
100
AcDbSpline
70
0
71
2
72
6
73
3
74
0
42
0.000000001
43
0.0000000001
44
0.0000000001
40
0
40
0
40
0
40
1
40
1
40
1
10
145.66303081810474
20
-381.16371652111411
30
-2.3432022250626479e-17
10
145.66303081810474
20
-381.29468513652682
30
-3.9471051816020339e-17
10
145.57230778038502
20
-381.38472603634
30
-3.9387514015636832e-17
0
SPLINE
5
563
100
AcDbEntity
8
0
100
AcDbSpline
70
0
71
2
72
6
73
3
74
0
42
0.000000001
43
0.0000000001
44
0.0000000001
40
0
40
0
40
0
40
1
40
1
40
1
10
145.57230778038502
20
-381.38472603634
30
-3.9387514015636832e-17
10
145.48158466815948
20
-381.47476697340608
30
-3.9303971653088477e-17
10
145.33901989459991
20
-381.47476697340608
30
-2.1844822291998973e-17
0
SPLINE
5
564
100
AcDbEntity
8
0
100
AcDbSpline
70
0
71
2
72
6
73
3
74
0
42
0.000000001
43
0.0000000001
44
0.0000000001
40
0
40
0
40
0
40
1
40
1
40
1
10
145.33901989459991
20
-381.47476697340608
30
-2.1844822291998973e-17
10
145.20327635109425
20
-381.47476697340608
30
-5.2210326860853085e-18
10
145.10436780750751
20
-381.39564009383321
30
1.6582018424639472e-17
0
SPLINE
5
565
100
AcDbEntity
8
0
100
AcDbSpline
70
0
71
2
72
6
73
3
74
0
42
0.000000001
43
0.0000000001
44
0.0000000001
40
0
40
0
40
0
40
1
40
1
40
1
10
145.10436780750751
20
-381.39564009383321
30
1.6582018424639472e-17
10
144.98294897377491
20
-381.29946002736688
30
4.3230198087300686e-17
10
144.98294897377491
20
-381.13302076235414
30
6.3613129402329831e-17
0
SPLINE
5
566
100
AcDbEntity
8
0
100
AcDbSpline
70
0
71
2
72
6
73
3
74
0
42
0.000000001
43
0.0000000001
44
0.0000000001
40
0
40
0
40
0
40
1
40
1
40
1
10
144.98294897377491
20
-381.13302076235414
30
6.3613129402329831e-17
10
144.98294897377491
20
-380.99659509956837
30
8.0320454527544581e-17
10
145.05934730172157
20
-380.91030588373542
30
8.153173894661108e-17
0
SPLINE
5
567
100
AcDbEntity
8
0
100
AcDbSpline
70
0
71
2
72
6
73
3
74
0
42
0.000000001
43
0.0000000001
44
0.0000000001
40
0
40
0
40
0
40
1
40
1
40
1
10
145.05934730172157
20
-380.91030588373542
30
8.153173894661108e-17
10
145.13574570417404
20
-380.82401665858924
30
8.2743015381889143e-17
10
145.2619393914938
20
-380.811738348566
30
6.8792405163906058e-17
0
ENDSEC
0
SECTION
2
OBJECTS
0
DICTIONARY
5
C
100
AcDbDictionary
3
ACAD_GROUP
350
D
3
ACAD_MLINESTYLE
350
17
0
DICTIONARY
5
D
100
AcDbDictionary
0
DICTIONARY
5
1A
330
C
100
AcDbDictionary
0
DICTIONARY
5
17
100
AcDbDictionary
0
ENDSEC
0
EOF
