0
SECTION
2
HEADER
9
$INSUNITS
70
4
9
$ACADVER
1
AC1014
9
$HANDSEED
5
FFFF
0
ENDSEC
0
SECTION
2
TABLES
0
TABLE
2
VPORT
5
8
100
AcDbSymbolTable
0
ENDTAB
0
TABLE
2
LTYPE
5
5
100
AcDbSymbolTable
0
LTYPE
5
14
100
AcDbSymbolTableRecord
100
AcDbLinetypeTableRecord
2
BYBLOCK
70
0
0
LTYPE
5
15
100
AcDbSymbolTableRecord
100
AcDbLinetypeTableRecord
2
BYLAYER
70
0
0
ENDTAB
0
TABLE
2
LAYER
5
2
100
AcDbSymbolTable
70
2
0
LAYER
5
50
100
AcDbSymbolTableRecord
100
AcDbLayerTableRecord
2
0
70
0
6
CONTINUOUS
0
ENDTAB
0
TABLE
2
STYLE
5
3
100
AcDbSymbolTable
70
1
0
STYLE
5
11
100
AcDbSymbolTableRecord
100
AcDbTextStyleTableRecord
2
STANDARD
70
0
0
ENDTAB
0
TABLE
2
VIEW
5
6
100
AcDbSymbolTable
70
0
0
ENDTAB
0
TABLE
2
UCS
5
7
100
AcDbSymbolTable
70
0
0
ENDTAB
0
TABLE
2
APPID
5
9
100
AcDbSymbolTable
70
2
0
APPID
5
12
100
AcDbSymbolTableRecord
100
AcDbRegAppTableRecord
2
ACAD
70
0
0
ENDTAB
0
TABLE
2
DIMSTYLE
5
A
100
AcDbSymbolTable
70
1
0
ENDTAB
0
TABLE
2
BLOCK_RECORD
5
1
100
AcDbSymbolTable
70
1
0
BLOCK_RECORD
5
1F
100
AcDbSymbolTableRecord
100
AcDbBlockTableRecord
2
*MODEL_SPACE
0
BLOCK_RECORD
5
1B
100
AcDbSymbolTableRecord
100
AcDbBlockTableRecord
2
*PAPER_SPACE
0
ENDTAB
0
ENDSEC
0
SECTION
2
BLOCKS
0
BLOCK
5
20
100
AcDbEntity
100
AcDbBlockBegin
2
*MODEL_SPACE
0
ENDBLK
5
21
100
AcDbEntity
100
AcDbBlockEnd
0
BLOCK
5
1C
100
AcDbEntity
100
AcDbBlockBegin
2
*PAPER_SPACE
0
ENDBLK
5
1D
100
AcDbEntity
100
AcDbBlockEnd
0
ENDSEC
0
SECTION
2
ENTITIES
0
LWPOLYLINE
5
100
100
AcDbEntity
8
0
100
AcDbPolyline
90
4
70
1
43
0.0
10
0
20
-100
10
300
20
-100
10
300
20
-200
10
0
20
-200
0
LINE
5
101
100
AcDbEntity
8
0
100
AcDbLine
10
178.13835906982422
20
-111.97362597831381
30
0
11
177.48383894470498
21
-112.01420647316269
31
0
0
LINE
5
102
100
AcDbEntity
8
0
100
AcDbLine
10
177.48383894470498
20
-112.01420647316269
30
0
11
173.22108856376838
21
-113.29059471589703
31
0
0
LINE
5
103
100
AcDbEntity
8
0
100
AcDbLine
10
173.22108856376838
20
-113.29059471589703
30
0
11
176.48202685918224
21
-113.62197525832241
31
0
0
LINE
5
104
100
AcDbEntity
8
0
100
AcDbLine
10
176.48202685918224
20
-113.62197525832241
30
0
11
178.13835906982422
21
-113.71927474697976
31
0
0
LINE
5
105
100
AcDbEntity
8
0
100
AcDbLine
10
178.13835906982422
20
-113.71927474697976
30
0
11
183.57976217596715
21
-114.35269247441616
31
0
0
LINE
5
106
100
AcDbEntity
8
0
100
AcDbLine
10
183.57976217596715
20
-114.35269247441616
30
0
11
188.66536903381348
21
-114.69089283938678
31
0
0
LINE
5
107
100
AcDbEntity
8
0
100
AcDbLine
10
188.66536903381348
20
-114.69089283938678
30
0
11
191.12395829315233
21
-115.02257133271571
31
0
0
LINE
5
108
100
AcDbEntity
8
0
100
AcDbLine
10
191.12395829315233
20
-115.02257133271571
30
0
11
198.7253318180274
21
-115.600882446719
31
0
0
LINE
5
109
100
AcDbEntity
8
0
100
AcDbLine
10
198.7253318180274
20
-115.600882446719
30
0
11
199.09500865833778
21
-115.63018758091843
31
0
0
LINE
5
110
100
AcDbEntity
8
0
100
AcDbLine
10
199.09500865833778
20
-115.63018758091843
30
0
11
199.19135856628418
21
-115.63200309965849
31
0
0
LINE
5
111
100
AcDbEntity
8
0
100
AcDbLine
10
199.19135856628418
20
-115.63200309965849
30
0
11
203.12763473010264
21
-119.13832748243985
31
0
0
LINE
5
112
100
AcDbEntity
8
0
100
AcDbLine
10
203.12763473010264
20
-119.13832748243985
30
0
11
206.01222777173257
21
-121.73610044157169
31
0
0
LINE
5
113
100
AcDbEntity
8
0
100
AcDbLine
10
206.01222777173257
20
-121.73610044157169
30
0
11
207.60650559587111
21
-123.19009636482926
31
0
0
LINE
5
114
100
AcDbEntity
8
0
100
AcDbLine
10
207.60650559587111
20
-123.19009636482926
30
0
11
209.71736717224121
21
-124.46047220521947
31
0
0
LINE
5
115
100
AcDbEntity
8
0
100
AcDbLine
10
209.71736717224121
20
-124.46047220521947
30
0
11
212.69657753461763
21
-127.57200030776247
31
0
0
LINE
5
116
100
AcDbEntity
8
0
100
AcDbLine
10
212.69657753461763
20
-127.57200030776247
30
0
11
216.70343709454875
21
-130.5464405989195
31
0
0
LINE
5
117
100
AcDbEntity
8
0
100
AcDbLine
10
216.70343709454875
20
-130.5464405989195
30
0
11
218.55994442318922
21
-132.09435638864954
31
0
0
LINE
5
118
100
AcDbEntity
8
0
100
AcDbLine
10
218.55994442318922
20
-132.09435638864954
30
0
11
220.24406242370605
21
-132.95987860667788
31
0
0
LINE
5
119
100
AcDbEntity
8
0
100
AcDbLine
10
220.24406242370605
20
-132.95987860667788
30
0
11
227.45708293388347
21
-134.57825220427824
31
0
0
LINE
5
120
100
AcDbEntity
8
0
100
AcDbLine
10
227.45708293388347
20
-134.57825220427824
30
0
11
230.77046203613281
21
-134.93839628872888
31
0
0
LINE
5
121
100
AcDbEntity
8
0
100
AcDbLine
10
230.77046203613281
20
-134.93839628872888
30
0
11
238.23702921007626
21
-135.78168936076457
31
0
0
LINE
5
122
100
AcDbEntity
8
0
100
AcDbLine
10
238.23702921007626
20
-135.78168936076457
30
0
11
241.29676151275635
21
-135.79708369464379
31
0
0
LINE
5
123
100
AcDbEntity
8
0
100
AcDbLine
10
241.29676151275635
20
-135.79708369464379
30
0
11
249.57183114681288
21
-136.74323466968158
31
0
0
LINE
5
124
100
AcDbEntity
8
0
100
AcDbLine
10
249.57183114681288
20
-136.74323466968158
30
0
11
251.82306575775146
21
-136.69686622140148
31
0
0
LINE
5
125
100
AcDbEntity
8
0
100
AcDbLine
10
251.82306575775146
20
-136.69686622140148
30
0
11
261.22165358255199
21
-137.71340996965563
31
0
0
LINE
5
126
100
AcDbEntity
8
0
100
AcDbLine
10
261.22165358255199
20
-137.71340996965563
30
0
11
262.349365234375
21
-137.64286147438324
31
0
0
SPLINE
5
127
100
AcDbEntity
8
0
100
AcDbSpline
70
0
71
3
72
18
73
14
74
0
42
0.000000001
43
0.0000000001
44
0.0000000001
40
-1.109845101441812
40
-1.109845101441812
40
-1.109845101441812
40
-1.109845101441812
40
-0.80785848669393889
40
-0.80785848669393889
40
-0.49823641026041621
40
-0.49823641026041621
40
-0.30031726839700656
40
-0.30031726839700656
40
-0.18275935372104335
40
-0.18275935372104335
40
-0.096814085120033089
40
-0.096814085120033089
40
0
40
0
40
0
40
0
10
272.349365234375
20
-137.64286147438324
30
0
10
271.49321555181859
20
-137.62765272515847
30
0
10
270.56342102264307
20
-137.61154343926265
30
0
10
268.77547494778986
20
-137.58399255041664
30
0
10
267.80456281364093
20
-137.57084210517758
30
0
10
266.32068659558865
20
-137.55802478387378
30
0
10
265.67653069733376
20
-137.55440730436771
30
0
10
264.743750127608
20
-137.55710613696436
30
0
10
264.36950973324798
20
-137.56009877668274
30
0
10
263.75780236918354
20
-137.57271136783126
30
0
10
263.50292801421699
20
-137.58044267072745
30
0
10
262.9405923831211
20
-137.60587490459758
30
0
10
262.67144920870004
20
-137.62271222816122
30
0
10
262.349365234375
20
-137.64286147438324
30
0
0
SPLINE
5
128
100
AcDbEntity
8
0
100
AcDbSpline
70
0
71
3
72
16
73
12
74
0
42
0.000000001
43
0.0000000001
44
0.0000000001
40
-0.87270313968404722
40
-0.87270313968404722
40
-0.87270313968404722
40
-0.87270313968404722
40
-0.52465065761766283
40
-0.52465065761766283
40
-0.21572914211693367
40
-0.21572914211693367
40
-0.11123535350525962
40
-0.11123535350525962
40
-0.042903961354126524
40
-0.042903961354126524
40
0
40
0
40
0
40
0
10
285.37580595773954
20
-138.50780708220063
30
0
10
283.57875429145349
20
-138.87128301418505
30
0
10
281.84422100561204
20
-138.81039752656352
30
0
10
279.01644117105542
20
-138.52988458698135
30
0
10
277.61508391949019
20
-138.30364258419559
30
0
10
275.3382605933038
20
-137.97230800554959
30
0
10
274.7258384015505
20
-137.88575700054818
30
0
10
273.78796186170968
20
-137.76494780082569
30
0
10
273.25903007375859
20
-137.70015652898093
30
0
10
272.6028795076657
20
-137.64786706854736
30
0
10
272.49235587931088
20
-137.64540157794761
30
0
10
272.349365234375
20
-137.64286147438324
30
0
0
SPLINE
5
129
100
AcDbEntity
8
0
100
AcDbSpline
70
0
71
3
72
10
73
6
74
0
42
0.000000001
43
0.0000000001
44
0.0000000001
40
-0.5428978333822182
40
-0.5428978333822182
40
-0.5428978333822182
40
-0.5428978333822182
40
-0.20248948063032704
40
-0.20248948063032704
40
0
40
0
40
0
40
0
10
289.88267215857178
20
-136.79074149843416
30
0
10
289.21484927289561
20
-137.11429411126491
30
0
10
288.35839591327596
20
-137.63756703530919
30
0
10
286.65895149754016
20
-138.2601219258942
30
0
10
286.04384002767392
20
-138.41132835152388
30
0
10
285.3758059577396
20
-138.50780708220063
30
0
0
ARC
5
130
100
AcDbEntity
8
0
100
AcDbCircle
10
312.34936523443571
20
-125.82498931881514
30
0
40
25.000000372597842
210
0
220
0
230
1
100
AcDbArc
50
206.0165075191241
51
207.00017617234707
0
ARC
5
131
100
AcDbEntity
8
0
100
AcDbCircle
10
312.34936523443571
20
-125.82498931881514
30
0
40
25.000000372597899
210
0
220
0
230
1
100
AcDbArc
50
207.00017617234707
51
210.00000147877373
0
LINE
5
132
100
AcDbEntity
8
0
100
AcDbLine
10
290.69873013976394
20
-138.32499006390549
30
0
11
290.69873013976394
21
-130.92498931884765
31
0
0
LINE
5
133
100
AcDbEntity
8
0
100
AcDbLine
10
290.69873013976394
20
-130.92498931884765
30
0
11
296.19799145379494
21
-134.09998931884766
31
0
0
LINE
5
134
100
AcDbEntity
8
0
100
AcDbLine
10
296.19799145379494
20
-134.09998931884766
30
0
11
296.19799145379494
21
-117.54998931884768
31
0
0
LINE
5
135
100
AcDbEntity
8
0
100
AcDbLine
10
296.19799145379494
20
-117.54998931884768
30
0
11
290.69873013976394
21
-120.72498931884766
31
0
0
LINE
5
136
100
AcDbEntity
8
0
100
AcDbLine
10
290.69873013976394
20
-120.72498931884766
30
0
11
290.69873013976394
21
-113.32498857378987
31
0
0
ARC
5
137
100
AcDbEntity
8
0
100
AcDbCircle
10
312.34936523443571
20
-125.82498931881514
30
0
40
25.000000372565339
210
0
220
0
230
1
100
AcDbArc
50
149.99999852135542
51
153.3040494284171
0
ARC
5
138
100
AcDbEntity
8
0
100
AcDbCircle
10
312.34936523443571
20
-125.82498931881514
30
0
40
25.000000372568639
210
0
220
0
230
1
100
AcDbArc
50
153.3040494284171
51
154.09560192246354
0
SPLINE
5
139
100
AcDbEntity
8
0
100
AcDbSpline
70
0
71
3
72
10
73
6
74
0
42
0.000000001
43
0.0000000001
44
0.0000000001
40
-0.30944166806278828
40
-0.30944166806278828
40
-0.30944166806278828
40
-0.30944166806278828
40
-0.11869745725537699
40
-0.11869745725537699
40
-0.017302669628843321
40
-0.017302669628843321
40
-0.017302669628843321
40
-0.017302669628843321
10
287.18600875475522
20
-113.0972535975345
30
0
10
287.82236165009806
20
-113.61066445157354
30
0
10
288.40596898084402
20
-114.05232177709038
30
0
10
289.22661506200097
20
-114.57812809912448
30
0
10
289.54497362443487
20
-114.76295951231936
30
0
10
289.86125872450401
20
-114.90321820665389
30
0
0
SPLINE
5
140
100
AcDbEntity
8
0
100
AcDbSpline
70
0
71
3
72
8
73
4
74
0
42
0.000000001
43
0.0000000001
44
0.0000000001
40
-0.71079289801080747
40
-0.71079289801080747
40
-0.71079289801080747
40
-0.71079289801080747
40
-0.30104753784253219
40
-0.30104753784253219
40
-0.30104753784253219
40
-0.30104753784253219
10
282.04673322478266
20
-109.69639356446633
30
0
10
284.23013479386032
20
-111.11538112954557
30
0
10
285.85292984867124
20
-112.24908620627093
30
0
10
287.18600875475528
20
-113.09725359753455
30
0
0
SPLINE
5
141
100
AcDbEntity
8
0
100
AcDbSpline
70
0
71
3
72
10
73
6
74
0
42
0.000000001
43
0.0000000001
44
0.0000000001
40
-3.3502648878323185
40
-3.3502648878323185
40
-3.3502648878323185
40
-3.3502648878323185
40
-0.61642331253488691
40
-0.61642331253488691
40
0
40
0
40
0
40
0
10
272.608176455803
20
-104.12093732954126
30
0
10
272.98851514900764
20
-104.33140674553383
30
0
10
273.48878073409742
20
-104.6290101036185
30
0
10
277.50416759450576
20
-106.98496333685813
30
0
10
280.29497490098601
20
-108.62246748596655
30
0
10
282.04673322478249
20
-109.69639356446621
30
0
0
SPLINE
5
142
100
AcDbEntity
8
0
100
AcDbSpline
70
0
71
3
72
10
73
6
74
0
42
0.000000001
43
0.0000000001
44
0.0000000001
40
-0.02734893351547445
40
-0.02734893351547445
40
-0.02734893351547445
40
-0.02734893351547445
40
-0.015640233710915937
40
-0.015640233710915937
40
0
40
0
40
0
40
0
10
272.349365234375
20
-104.04053172529281
30
0
10
272.40071749612719
20
-104.05473897474255
30
0
10
272.42170795420685
20
-104.06076947581488
30
0
10
272.50981926781174
20
-104.08751165553247
30
0
10
272.55898295187001
20
-104.10367567135418
30
0
10
272.608176455803
20
-104.12093732954126
30
0
0
SPLINE
5
143
100
AcDbEntity
8
0
100
AcDbSpline
70
0
71
3
72
10
73
6
74
0
42
0.000000001
43
0.0000000001
44
0.0000000001
40
-0.69764747332335242
40
-0.69764747332335242
40
-0.69764747332335242
40
-0.69764747332335242
40
-0.38025017551232149
40
-0.38025017551232149
40
0
40
0
40
0
40
0
10
262.349365234375
20
-104.04053172529281
30
0
10
264.58631883077908
20
-103.80385688010021
30
0
10
266.4721729979326
20
-103.60432916357341
30
0
10
269.99807973718816
20
-103.51496579428287
30
0
10
271.12775505750159
20
-103.70255789666291
30
0
10
272.349365234375
20
-104.04053172529281
30
0
0
LINE
5
144
100
AcDbEntity
8
0
100
AcDbLine
10
262.349365234375
20
-104.04053172529281
30
0
11
253.8240113185912
21
-104.94253381486402
31
0
0
LINE
5
145
100
AcDbEntity
8
0
100
AcDbLine
10
253.8240113185912
20
-104.94253381486402
30
0
11
251.82306575775146
21
-104.85957125067776
31
0
0
LINE
5
146
100
AcDbEntity
8
0
100
AcDbLine
10
251.82306575775146
20
-104.85957125067776
30
0
11
245.32099957721533
21
-105.56779731463246
31
0
0
LINE
5
147
100
AcDbEntity
8
0
100
AcDbLine
10
245.32099957721533
20
-105.56779731463246
30
0
11
241.29676151275635
21
-105.59815679342921
31
0
0
LINE
5
148
100
AcDbEntity
8
0
100
AcDbLine
10
241.29676151275635
20
-105.59815679342921
30
0
11
236.91442299985525
21
-106.06231294491494
31
0
0
LINE
5
149
100
AcDbEntity
8
0
100
AcDbLine
10
236.91442299985525
20
-106.06231294491494
30
0
11
230.77046203613281
21
-106.26922170526555
31
0
0
LINE
5
150
100
AcDbEntity
8
0
100
AcDbLine
10
230.77046203613281
20
-106.26922170526555
30
0
11
228.4977645243174
21
-106.53608763001782
31
0
0
LINE
5
151
100
AcDbEntity
8
0
100
AcDbLine
10
228.4977645243174
20
-106.53608763001782
30
0
11
220.24406242370605
21
-107.11578818239303
31
0
0
LINE
5
152
100
AcDbEntity
8
0
100
AcDbLine
10
220.24406242370605
20
-107.11578818239303
30
0
11
219.80799776594137
21
-107.19740059908794
31
0
0
LINE
5
153
100
AcDbEntity
8
0
100
AcDbLine
10
219.80799776594137
20
-107.19740059908794
30
0
11
209.71736717224121
21
-108.91182152117113
31
0
0
LINE
5
154
100
AcDbEntity
8
0
100
AcDbLine
10
209.71736717224121
20
-108.91182152117113
30
0
11
209.63178342801467
21
-108.92488930049612
31
0
0
LINE
5
155
100
AcDbEntity
8
0
100
AcDbLine
10
209.63178342801467
20
-108.92488930049612
30
0
11
208.49170994663623
21
-109.07523537665821
31
0
0
LINE
5
156
100
AcDbEntity
8
0
100
AcDbLine
10
208.49170994663623
20
-109.07523537665821
30
0
11
199.71269554135023
21
-110.38756271772056
31
0
0
LINE
5
157
100
AcDbEntity
8
0
100
AcDbLine
10
199.71269554135023
20
-110.38756271772056
30
0
11
199.19135856628418
21
-110.46414090399773
31
0
0
LINE
5
158
100
AcDbEntity
8
0
100
AcDbLine
10
199.19135856628418
20
-110.46414090399773
30
0
11
190.38579687147447
21
-111.15001349345535
31
0
0
LINE
5
159
100
AcDbEntity
8
0
100
AcDbLine
10
190.38579687147447
20
-111.15001349345535
30
0
11
188.66536903381348
21
-111.26672067008801
31
0
0
LINE
5
160
100
AcDbEntity
8
0
100
AcDbLine
10
188.66536903381348
20
-111.26672067008801
30
0
11
181.04496614817828
21
-111.79500313722342
31
0
0
LINE
5
161
100
AcDbEntity
8
0
100
AcDbLine
10
181.04496614817828
20
-111.79500313722342
30
0
11
178.13835906982422
21
-111.97362597831381
31
0
0
ARC
5
162
100
AcDbEntity
8
0
100
AcDbCircle
10
312.34936523443571
20
-125.82498931881514
30
0
40
25.000000372597881
210
0
220
0
230
1
100
AcDbArc
50
206.0165075191241
51
207.00017617234707
0
SPLINE
5
163
100
AcDbEntity
8
0
100
AcDbSpline
70
0
71
3
72
10
73
6
74
0
42
0.000000001
43
0.0000000001
44
0.0000000001
40
0
40
0
40
0
40
0
40
0.17807314571836977
40
0.17807314571836977
40
0.37141673049581186
40
0.37141673049581186
40
0.37141673049581186
40
0.37141673049581186
10
289.88267215861106
20
-136.79074149851533
30
0
10
289.3484876291152
20
-137.04954784366953
30
0
10
288.69198218635131
20
-137.43581027666141
30
0
10
287.07094485209376
20
-138.14744732335495
30
0
10
286.28628281662822
20
-138.37631431018562
30
0
10
285.37580595773966
20
-138.50780708220063
30
0
0
SPLINE
5
164
100
AcDbEntity
8
0
100
AcDbSpline
70
0
71
3
72
12
73
8
74
0
42
0.000000001
43
0.0000000001
44
0.0000000001
40
0
40
0
40
0
40
0
40
0.49869784452094718
40
0.49869784452094718
40
0.95496773896963871
40
0.95496773896963871
40
1.2642895191666756
40
1.2642895191666756
40
1.2642895191666756
40
1.2642895191666756
10
285.37580595773954
20
-138.50780708220063
30
0
10
283.74647378932553
20
-138.83735967077502
30
0
10
282.18766580462523
20
-138.81437431059661
30
0
10
279.67413843943683
20
-138.61323399085879
30
0
10
278.42758556441549
20
-138.42815640709566
30
0
10
275.99264964723255
20
-138.06669927974033
30
0
10
273.3437752285401
20
-137.66052629694403
30
0
10
272.349365234375
20
-137.64286147438324
30
0
0
SPLINE
5
165
100
AcDbEntity
8
0
100
AcDbSpline
70
0
71
3
72
10
73
6
74
0
42
0.000000001
43
0.0000000001
44
0.0000000001
40
0
40
0
40
0
40
0
40
0.43684984440060037
40
0.43684984440060037
40
1.3480440801070783
40
1.3480440801070783
40
1.3480440801070783
40
1.3480440801070783
10
272.349365234375
20
-137.64286147438324
30
0
10
270.89342878889408
20
-137.61699803865741
30
0
10
268.98644423591941
20
-137.58430116049635
30
0
10
264.0981219374417
20
-137.53346103163753
30
0
10
263.38656865936741
20
-137.57797508183214
30
0
10
262.349365234375
20
-137.64286147438324
30
0
0
LINE
5
166
100
AcDbEntity
8
0
100
AcDbLine
10
262.349365234375
20
-137.64286147438321
30
0
11
261.22165358255199
21
-137.71340996965563
31
0
0
LINE
5
167
100
AcDbEntity
8
0
100
AcDbLine
10
261.22165358255199
20
-137.71340996965563
30
0
11
251.82306575775146
21
-136.69686622140148
31
0
0
LINE
5
168
100
AcDbEntity
8
0
100
AcDbLine
10
251.82306575775146
20
-136.69686622140148
30
0
11
249.57183114681288
21
-136.74323466968158
31
0
0
LINE
5
169
100
AcDbEntity
8
0
100
AcDbLine
10
249.57183114681288
20
-136.74323466968158
30
0
11
241.29676151275635
21
-135.79708369464379
31
0
0
LINE
5
170
100
AcDbEntity
8
0
100
AcDbLine
10
241.29676151275635
20
-135.79708369464379
30
0
11
238.23702921007626
21
-135.78168936076457
31
0
0
LINE
5
171
100
AcDbEntity
8
0
100
AcDbLine
10
238.23702921007626
20
-135.78168936076457
30
0
11
230.77046203613281
21
-134.93839628872888
31
0
0
LINE
5
172
100
AcDbEntity
8
0
100
AcDbLine
10
230.77046203613281
20
-134.93839628872888
30
0
11
227.45708293388347
21
-134.57825220427824
31
0
0
LINE
5
173
100
AcDbEntity
8
0
100
AcDbLine
10
227.45708293388347
20
-134.57825220427824
30
0
11
220.24406242370605
21
-132.95987860667788
31
0
0
LINE
5
174
100
AcDbEntity
8
0
100
AcDbLine
10
220.24406242370605
20
-132.95987860667788
30
0
11
218.55994442318922
21
-132.09435638864954
31
0
0
LINE
5
175
100
AcDbEntity
8
0
100
AcDbLine
10
218.55994442318922
20
-132.09435638864954
30
0
11
216.70343709454875
21
-130.5464405989195
31
0
0
LINE
5
176
100
AcDbEntity
8
0
100
AcDbLine
10
216.70343709454875
20
-130.5464405989195
30
0
11
212.69657753461763
21
-127.57200030776247
31
0
0
LINE
5
177
100
AcDbEntity
8
0
100
AcDbLine
10
212.69657753461763
20
-127.57200030776247
30
0
11
209.71736717224121
21
-124.46047220521947
31
0
0
LINE
5
178
100
AcDbEntity
8
0
100
AcDbLine
10
209.71736717224121
20
-124.46047220521947
30
0
11
207.60650559587111
21
-123.19009636482926
31
0
0
LINE
5
179
100
AcDbEntity
8
0
100
AcDbLine
10
207.60650559587111
20
-123.19009636482926
30
0
11
206.01222777173257
21
-121.73610044157169
31
0
0
LINE
5
180
100
AcDbEntity
8
0
100
AcDbLine
10
206.01222777173257
20
-121.73610044157169
30
0
11
203.12763473010264
21
-119.13832748243985
31
0
0
LINE
5
181
100
AcDbEntity
8
0
100
AcDbLine
10
203.12763473010264
20
-119.13832748243985
30
0
11
199.19135856628418
21
-115.63200309965849
31
0
0
LINE
5
182
100
AcDbEntity
8
0
100
AcDbLine
10
199.19135856628418
20
-115.63200309965849
30
0
11
199.09500865833778
21
-115.63018758091843
31
0
0
LINE
5
183
100
AcDbEntity
8
0
100
AcDbLine
10
199.09500865833778
20
-115.63018758091843
30
0
11
198.7253318180274
21
-115.600882446719
31
0
0
LINE
5
184
100
AcDbEntity
8
0
100
AcDbLine
10
198.7253318180274
20
-115.600882446719
30
0
11
191.12395829315233
21
-115.02257133271571
31
0
0
LINE
5
185
100
AcDbEntity
8
0
100
AcDbLine
10
191.12395829315233
20
-115.02257133271571
30
0
11
188.66536903381348
21
-114.69089283938678
31
0
0
LINE
5
186
100
AcDbEntity
8
0
100
AcDbLine
10
188.66536903381348
20
-114.69089283938678
30
0
11
183.57976217596715
21
-114.35269247441616
31
0
0
LINE
5
187
100
AcDbEntity
8
0
100
AcDbLine
10
183.57976217596715
20
-114.35269247441616
30
0
11
178.13835906982422
21
-113.71927474697976
31
0
0
LINE
5
188
100
AcDbEntity
8
0
100
AcDbLine
10
178.13835906982422
20
-113.71927474697976
30
0
11
176.48202685918224
21
-113.62197525832241
31
0
0
LINE
5
189
100
AcDbEntity
8
0
100
AcDbLine
10
176.48202685918224
20
-113.62197525832241
30
0
11
173.22108856376838
21
-113.29059471589703
31
0
0
LINE
5
190
100
AcDbEntity
8
0
100
AcDbLine
10
173.22108856376838
20
-113.29059471589703
30
0
11
177.48383894470496
21
-112.01420647316269
31
0
0
LINE
5
191
100
AcDbEntity
8
0
100
AcDbLine
10
177.48383894470496
20
-112.01420647316269
30
0
11
171.65258238861978
21
-112.37574658102969
31
0
0
LINE
5
192
100
AcDbEntity
8
0
100
AcDbLine
10
171.65258238861978
20
-112.37574658102969
30
0
11
167.61236000061035
21
-112.6010049356683
31
0
0
LINE
5
193
100
AcDbEntity
8
0
100
AcDbLine
10
167.61236000061035
20
-112.6010049356683
30
0
11
162.20798638274124
21
-112.9021275893063
31
0
0
LINE
5
194
100
AcDbEntity
8
0
100
AcDbLine
10
162.20798638274124
20
-112.9021275893063
30
0
11
157.08636093139648
21
-113.16154498943246
31
0
0
LINE
5
195
100
AcDbEntity
8
0
100
AcDbLine
10
157.08636093139648
20
-113.16154498943246
30
0
11
152.71225524080893
21
-113.38152925394618
31
0
0
LINE
5
196
100
AcDbEntity
8
0
100
AcDbLine
10
152.71225524080893
20
-113.38152925394618
30
0
11
147.349365234375
21
-113.62895126734907
31
0
0
LINE
5
197
100
AcDbEntity
8
0
100
AcDbLine
10
147.349365234375
20
-113.62895126734907
30
0
11
147.349365234375
21
-120.19233397478565
31
0
0
LINE
5
198
100
AcDbEntity
8
0
100
AcDbLine
10
147.349365234375
20
-120.19233397478565
30
0
11
150.91159907938388
21
-120.35223462446584
31
0
0
LINE
5
199
100
AcDbEntity
8
0
100
AcDbLine
10
150.91159907938388
20
-120.35223462446584
30
0
11
157.08636093139648
21
-120.42056423581661
31
0
0
LINE
5
200
100
AcDbEntity
8
0
100
AcDbLine
10
157.08636093139648
20
-120.42056423581661
30
0
11
160.43156242258681
21
-120.59113650238262
31
0
0
LINE
5
201
100
AcDbEntity
8
0
100
AcDbLine
10
160.43156242258681
20
-120.59113650238262
30
0
11
167.61236000061035
21
-120.68072917338198
31
0
0
LINE
5
202
100
AcDbEntity
8
0
100
AcDbLine
10
167.61236000061035
20
-120.68072917338198
30
0
11
170.04016242763925
21
-120.82262318254338
31
0
0
LINE
5
203
100
AcDbEntity
8
0
100
AcDbLine
10
170.04016242763925
20
-120.82262318254338
30
0
11
178.13835906982422
21
-120.93747279387603
31
0
0
LINE
5
204
100
AcDbEntity
8
0
100
AcDbLine
10
178.13835906982422
20
-120.93747279387603
30
0
11
179.73651309587285
21
-121.04561691751152
31
0
0
LINE
5
205
100
AcDbEntity
8
0
100
AcDbLine
10
179.73651309587285
20
-121.04561691751152
30
0
11
188.66536903381348
21
-121.19082225558735
31
0
0
LINE
5
206
100
AcDbEntity
8
0
100
AcDbLine
10
188.66536903381348
20
-121.19082225558735
30
0
11
189.52024615104369
21
-121.2585903327637
31
0
0
LINE
5
207
100
AcDbEntity
8
0
100
AcDbLine
10
189.52024615104369
20
-121.2585903327637
30
0
11
199.19135856628418
21
-121.44082284549995
31
0
0
LINE
5
208
100
AcDbEntity
8
0
100
AcDbLine
10
199.19135856628418
20
-121.44082284549995
30
0
11
199.28707242433586
21
-121.52608206520141
31
0
0
LINE
5
209
100
AcDbEntity
8
0
100
AcDbLine
10
199.28707242433586
20
-121.52608206520141
30
0
11
199.35721372475101
21
-121.58924909462539
31
0
0
LINE
5
210
100
AcDbEntity
8
0
100
AcDbLine
10
199.35721372475101
20
-121.58924909462539
30
0
11
203.81506567324698
21
-125.65485074915571
31
0
0
LINE
5
211
100
AcDbEntity
8
0
100
AcDbLine
10
203.81506567324698
20
-125.65485074915571
30
0
11
209.71736717224121
21
-129.20702172567013
31
0
0
LINE
5
212
100
AcDbEntity
8
0
100
AcDbLine
10
209.71736717224121
20
-129.20702172567013
30
0
11
209.98802430824597
21
-129.48969974514404
31
0
0
LINE
5
213
100
AcDbEntity
8
0
100
AcDbLine
10
209.98802430824597
20
-129.48969974514404
30
0
11
210.3520419508267
21
-129.75992352678381
31
0
0
LINE
5
214
100
AcDbEntity
8
0
100
AcDbLine
10
210.3520419508267
20
-129.75992352678381
30
0
11
215.53886823027744
21
-134.08458746572342
31
0
0
LINE
5
215
100
AcDbEntity
8
0
100
AcDbLine
10
215.53886823027744
20
-134.08458746572342
30
0
11
220.24406242370605
21
-136.50273756761686
31
0
0
LINE
5
216
100
AcDbEntity
8
0
100
AcDbLine
10
220.24406242370605
20
-136.50273756761686
30
0
11
223.88355190705852
21
-137.31932386184559
31
0
0
LINE
5
217
100
AcDbEntity
8
0
100
AcDbLine
10
223.88355190705852
20
-137.31932386184559
30
0
11
230.77046203613281
21
-138.06788895705171
31
0
0
LINE
5
218
100
AcDbEntity
8
0
100
AcDbLine
10
230.77046203613281
20
-138.06788895705171
30
0
11
234.93363063878931
21
-138.53808779924367
31
0
0
LINE
5
219
100
AcDbEntity
8
0
100
AcDbLine
10
234.93363063878931
20
-138.53808779924367
30
0
11
241.29676151275635
21
-138.57010241735429
31
0
0
LINE
5
220
100
AcDbEntity
8
0
100
AcDbLine
10
241.29676151275635
20
-138.57010241735429
30
0
11
246.81547824571146
21
-139.20109882569309
31
0
0
LINE
5
221
100
AcDbEntity
8
0
100
AcDbLine
10
246.81547824571146
20
-139.20109882569309
30
0
11
251.82306575775146
21
-139.09795805954104
31
0
0
LINE
5
222
100
AcDbEntity
8
0
100
AcDbLine
10
251.82306575775146
20
-139.09795805954104
30
0
11
258.94718474542464
21
-139.86849707601203
31
0
0
LINE
5
223
100
AcDbEntity
8
0
100
AcDbLine
10
258.94718474542464
20
-139.86849707601203
30
0
11
262.349365234375
21
-139.65566012096892
31
0
0
SPLINE
5
224
100
AcDbEntity
8
0
100
AcDbSpline
70
0
71
3
72
14
73
10
74
0
42
0.000000001
43
0.0000000001
44
0.0000000001
40
-0.82828768912831119
40
-0.82828768912831119
40
-0.82828768912831119
40
-0.82828768912831119
40
-0.77242499552852584
40
-0.77242499552852584
40
-0.6891452934341189
40
-0.6891452934341189
40
-0.40952959614424433
40
-0.40952959614424433
40
0
40
0
40
0
40
0
10
262.349365234375
20
-139.65566012096892
30
0
10
262.53004714183464
20
-139.64435684439675
30
0
10
262.69397985682565
20
-139.63410138028956
30
0
10
263.1049552103396
20
-139.61121369758627
30
0
10
263.3198961364734
20
-139.60174558899544
30
0
10
264.3602155918245
20
-139.56895517130408
30
0
10
265.4712430338696
20
-139.56914664633609
30
0
10
268.45206689298192
20
-139.59164450605562
30
0
10
270.98445416806192
20
-139.63303014745341
30
0
10
272.349365234375
20
-139.65566012096892
30
0
0
SPLINE
5
225
100
AcDbEntity
8
0
100
AcDbSpline
70
0
71
3
72
16
73
12
74
0
42
0.000000001
43
0.0000000001
44
0.0000000001
40
-1.3513353434026327
40
-1.3513353434026327
40
-1.3513353434026327
40
-1.3513353434026327
40
-1.2830784066196419
40
-1.2830784066196419
40
-1.1990011968338901
40
-1.1990011968338901
40
-1.0216213708421451
40
-1.0216213708421451
40
-0.50223378206290903
40
-0.50223378206290903
40
0
40
0
40
0
40
0
10
272.349365234375
20
-139.65566012096892
30
0
10
272.4608898395764
20
-139.6575091783356
30
0
10
272.56100339082815
20
-139.65937813623646
30
0
10
272.98697731981292
20
-139.68634426951749
30
0
10
273.24263877625577
20
-139.71103054367907
30
0
10
273.95897626073952
20
-139.78845889253159
30
0
10
274.55195346407186
20
-139.86672521523664
30
0
10
276.29711648836178
20
-140.10192019553739
30
0
10
277.58297467159741
20
-140.28935304810761
30
0
10
280.10993290485726
20
-140.50078930584039
30
0
10
281.73267486899385
20
-140.56097204483001
30
0
10
283.38512115754594
20
-140.29250550324107
30
0
0
SPLINE
5
226
100
AcDbEntity
8
0
100
AcDbSpline
70
0
71
3
72
14
73
10
74
0
42
0.000000001
43
0.0000000001
44
0.0000000001
40
-2.0364362363954522
40
-2.0364362363954522
40
-2.0364362363954522
40
-2.0364362363954522
40
-1.1623301609507655
40
-1.1623301609507655
40
-0.37585941726316729
40
-0.37585941726316729
40
-0.017223014801904128
40
-0.017223014801904128
40
0
40
0
40
0
40
0
10
283.38512115754594
20
-140.29250550324105
30
0
10
284.16462048882812
20
-140.21690571168259
30
0
10
284.89679804649558
20
-140.07169937573298
30
0
10
286.30344909877294
20
-139.58279797257376
30
0
10
286.92157222164207
20
-139.27972188786961
30
0
10
287.80556303682738
20
-138.75523210945974
30
0
10
288.31974313921569
20
-138.43479387999514
30
0
10
289.32932288970443
20
-137.71059292767669
30
0
10
289.37591336959304
20
-137.67705724802386
30
0
10
289.42242711207075
20
-137.64340631154505
30
0
0
SPLINE
5
227
100
AcDbEntity
8
0
100
AcDbSpline
70
0
71
3
72
8
73
4
74
0
42
0.000000001
43
0.0000000001
44
0.0000000001
40
-0.077422455888376179
40
-0.077422455888376179
40
-0.077422455888376179
40
-0.077422455888376179
40
-0.011027295816378457
40
-0.011027295816378457
40
-0.011027295816378457
40
-0.011027295816378457
10
289.42242711207075
20
-137.64340631154505
30
0
10
289.66198022930405
20
-137.4647487020074
30
0
10
289.87824672484697
20
-137.3018715360447
30
0
10
290.07423669595312
20
-137.17482047280029
30
0
0
LINE
5
228
100
AcDbEntity
8
0
100
AcDbLine
10
7.8320886380440946
20
-120.34558323859622
30
0
11
1.9999999999999885
21
-120.56419229416866
31
0
0
LINE
5
229
100
AcDbEntity
8
0
100
AcDbLine
10
1.9999999999999885
20
-120.56419229416866
30
0
11
1.9999999999999929
21
-125.17260054583056
31
0
0
LINE
5
230
100
AcDbEntity
8
0
100
AcDbLine
10
1.9999999999999929
20
-125.17260054583056
30
0
11
5.5622338450088549
21
-125.33250119551076
31
0
0
LINE
5
231
100
AcDbEntity
8
0
100
AcDbLine
10
5.5622338450088549
20
-125.33250119551076
30
0
11
11.736995697021477
21
-125.40083080686152
31
0
0
LINE
5
232
100
AcDbEntity
8
0
100
AcDbLine
10
11.736995697021477
20
-125.40083080686152
30
0
11
15.082197188211808
21
-125.57140307342755
31
0
0
LINE
5
233
100
AcDbEntity
8
0
100
AcDbLine
10
15.082197188211808
20
-125.57140307342755
30
0
11
22.262994766235344
21
-125.66099574442688
31
0
0
LINE
5
234
100
AcDbEntity
8
0
100
AcDbLine
10
22.262994766235344
20
-125.66099574442688
30
0
11
24.690797193264249
21
-125.80288975358829
31
0
0
LINE
5
235
100
AcDbEntity
8
0
100
AcDbLine
10
24.690797193264249
20
-125.80288975358829
30
0
11
32.788993835449212
21
-125.91773936492095
31
0
0
LINE
5
236
100
AcDbEntity
8
0
100
AcDbLine
10
32.788993835449212
20
-125.91773936492095
30
0
11
34.387147861497844
21
-126.02588348855645
31
0
0
LINE
5
237
100
AcDbEntity
8
0
100
AcDbLine
10
34.387147861497844
20
-126.02588348855645
30
0
11
43.316003799438469
21
-126.17108882663226
31
0
0
LINE
5
238
100
AcDbEntity
8
0
100
AcDbLine
10
43.316003799438469
20
-126.17108882663226
30
0
11
44.170880916668708
21
-126.23885690380861
31
0
0
LINE
5
239
100
AcDbEntity
8
0
100
AcDbLine
10
44.170880916668708
20
-126.23885690380861
30
0
11
53.841993331909173
21
-126.42108941654486
31
0
0
LINE
5
240
100
AcDbEntity
8
0
100
AcDbLine
10
53.841993331909173
20
-126.42108941654486
30
0
11
53.93770718996084
21
-126.50634863624632
31
0
0
LINE
5
241
100
AcDbEntity
8
0
100
AcDbLine
10
53.93770718996084
20
-126.50634863624632
30
0
11
54.007848490375977
21
-126.56951566567029
31
0
0
LINE
5
242
100
AcDbEntity
8
0
100
AcDbLine
10
54.007848490375977
20
-126.56951566567029
30
0
11
58.465700438871977
21
-130.63511732020064
31
0
0
LINE
5
243
100
AcDbEntity
8
0
100
AcDbLine
10
58.465700438871977
20
-130.63511732020064
30
0
11
64.368001937866211
21
-134.18728829671505
31
0
0
LINE
5
244
100
AcDbEntity
8
0
100
AcDbLine
10
64.368001937866211
20
-134.18728829671505
30
0
11
64.638659073870969
21
-134.46996631618896
31
0
0
LINE
5
245
100
AcDbEntity
8
0
100
AcDbLine
10
64.638659073870969
20
-134.46996631618896
30
0
11
65.002676716451688
21
-134.7401900978287
31
0
0
LINE
5
246
100
AcDbEntity
8
0
100
AcDbLine
10
65.002676716451688
20
-134.7401900978287
30
0
11
70.189502995902444
21
-139.06485403676834
31
0
0
LINE
5
247
100
AcDbEntity
8
0
100
AcDbLine
10
70.189502995902444
20
-139.06485403676834
30
0
11
74.894697189331055
21
-141.48300413866173
31
0
0
LINE
5
248
100
AcDbEntity
8
0
100
AcDbLine
10
74.894697189331055
20
-141.48300413866173
30
0
11
78.534186672683489
21
-142.29959043289051
31
0
0
LINE
5
249
100
AcDbEntity
8
0
100
AcDbLine
10
78.534186672683489
20
-142.29959043289051
30
0
11
85.421096801757812
21
-143.04815552809663
31
0
0
LINE
5
250
100
AcDbEntity
8
0
100
AcDbLine
10
85.421096801757812
20
-143.04815552809663
30
0
11
89.584265404414296
21
-143.51835437028859
31
0
0
LINE
5
251
100
AcDbEntity
8
0
100
AcDbLine
10
89.584265404414296
20
-143.51835437028859
30
0
11
95.947396278381348
21
-143.55036898839921
31
0
0
LINE
5
252
100
AcDbEntity
8
0
100
AcDbLine
10
95.947396278381348
20
-143.55036898839921
30
0
11
101.46611301133647
21
-144.18136539673799
31
0
0
LINE
5
253
100
AcDbEntity
8
0
100
AcDbLine
10
101.46611301133647
20
-144.18136539673799
30
0
11
106.47370052337646
21
-144.07822463058596
31
0
0
LINE
5
254
100
AcDbEntity
8
0
100
AcDbLine
10
106.47370052337646
20
-144.07822463058596
30
0
11
113.59781951104964
21
-144.8487636470569
31
0
0
LINE
5
255
100
AcDbEntity
8
0
100
AcDbLine
10
113.59781951104964
20
-144.8487636470569
30
0
11
117
21
-144.63592669201381
31
0
0
SPLINE
5
256
100
AcDbEntity
8
0
100
AcDbSpline
70
0
71
3
72
14
73
10
74
0
42
0.000000001
43
0.0000000001
44
0.0000000001
40
0
40
0
40
0
40
0
40
0.40952959614424433
40
0.40952959614424433
40
0.6891452934341189
40
0.6891452934341189
40
0.77242499552852584
40
0.77242499552852584
40
0.82828768912831119
40
0.82828768912831119
40
0.82828768912831119
40
0.82828768912831119
10
127
20
-144.63592669201381
30
0
10
125.63508893368692
20
-144.6132967184983
30
0
10
123.10270165860689
20
-144.57191107710054
30
0
10
120.1218777994946
20
-144.54941321738102
30
0
10
119.0108503574495
20
-144.54922174234898
30
0
10
117.97053090209836
20
-144.58201216004034
30
0
10
117.7555899759646
20
-144.59148026863116
30
0
10
117.34461462245065
20
-144.61436795133446
30
0
10
117.1806819074596
20
-144.62462341544165
30
0
10
117
20
-144.63592669201381
30
0
0
SPLINE
5
257
100
AcDbEntity
8
0
100
AcDbSpline
70
0
71
3
72
16
73
12
74
0
42
0.000000001
43
0.0000000001
44
0.0000000001
40
0
40
0
40
0
40
0
40
0.50223378206290903
40
0.50223378206290903
40
1.0216213708421451
40
1.0216213708421451
40
1.1990011968338901
40
1.1990011968338901
40
1.2830784066196419
40
1.2830784066196419
40
1.3513353434026327
40
1.3513353434026327
40
1.3513353434026327
40
1.3513353434026327
10
138.03575592317091
20
-145.27277207428597
30
0
10
136.3833096346188
20
-145.54123861587493
30
0
10
134.76056767048226
20
-145.48105587688531
30
0
10
132.23360943722241
20
-145.26961961915251
30
0
10
130.94775125398675
20
-145.08218676658231
30
0
10
129.20258822969686
20
-144.84699178628154
30
0
10
128.60961102636449
20
-144.76872546357652
30
0
10
127.89327354188073
20
-144.69129711472397
30
0
10
127.63761208543791
20
-144.66661084056238
30
0
10
127.21163815645315
20
-144.63964470728138
30
0
10
127.11152460520138
20
-144.63777574938052
30
0
10
127
20
-144.63592669201381
30
0
0
SPLINE
5
258
100
AcDbEntity
8
0
100
AcDbSpline
70
0
71
3
72
14
73
10
74
0
42
0.000000001
43
0.0000000001
44
0.0000000001
40
0
40
0
40
0
40
0
40
0.017223014801904128
40
0.017223014801904128
40
0.37585941726316729
40
0.37585941726316729
40
1.1623301609507655
40
1.1623301609507655
40
2.0364362363954522
40
2.0364362363954522
40
2.0364362363954522
40
2.0364362363954522
10
144.07306187769572
20
-142.62367288258997
30
0
10
144.02654813521798
20
-142.65732381906875
30
0
10
143.97995765532943
20
-142.69085949872161
30
0
10
142.97037790484066
20
-143.41506045104006
30
0
10
142.45619780245238
20
-143.73549868050463
30
0
10
141.57220698726707
20
-144.25998845891453
30
0
10
140.95408386439794
20
-144.56306454361868
30
0
10
139.54743281212058
20
-145.0519659467779
30
0
10
138.81525525445315
20
-145.19717228272751
30
0
10
138.03575592317091
20
-145.27277207428597
30
0
0
SPLINE
5
259
100
AcDbEntity
8
0
100
AcDbSpline
70
0
71
3
72
8
73
4
74
0
42
0.000000001
43
0.0000000001
44
0.0000000001
40
0.011027295816378457
40
0.011027295816378457
40
0.011027295816378457
40
0.011027295816378457
40
0.077422455888376179
40
0.077422455888376179
40
0.077422455888376179
40
0.077422455888376179
10
144.72487146157809
20
-142.15508704384521
30
0
10
144.52888149047195
20
-142.28213810708959
30
0
10
144.31261499492902
20
-142.44501527305229
30
0
10
144.07306187769572
20
-142.62367288258994
30
0
0
ARC
5
260
100
AcDbEntity
8
0
100
AcDbCircle
10
166.99999999968139
20
-130.80525589005245
30
0
40
25.000000372172572
210
0
220
0
230
1
100
AcDbArc
50
207.0001761723488
51
207.42106117560292
0
ARC
5
261
100
AcDbEntity
8
0
100
AcDbCircle
10
166.99999999968139
20
-130.80525589005245
30
0
40
25.00000037217259
210
0
220
0
230
1
100
AcDbArc
50
207.42106117560292
51
210.00000147882633
0
LINE
5
262
100
AcDbEntity
8
0
100
AcDbLine
10
145.34936490538885
20
-143.30525663495035
30
0
11
145.34936490538888
21
-135.9052558898926
31
0
0
LINE
5
263
100
AcDbEntity
8
0
100
AcDbLine
10
145.34936490538888
20
-135.9052558898926
30
0
11
150.84862621941988
21
-139.08025588989258
31
0
0
LINE
5
264
100
AcDbEntity
8
0
100
AcDbLine
10
150.84862621941988
20
-139.08025588989258
30
0
11
150.84862621941988
21
-122.53025588989259
31
0
0
LINE
5
265
100
AcDbEntity
8
0
100
AcDbLine
10
150.84862621941988
20
-122.53025588989259
30
0
11
145.34936490538888
21
-125.70525588989257
31
0
0
LINE
5
266
100
AcDbEntity
8
0
100
AcDbLine
10
145.34936490538888
20
-125.70525588989257
30
0
11
145.34936490538888
21
-118.30525514483476
31
0
0
ARC
5
267
100
AcDbEntity
8
0
100
AcDbCircle
10
166.99999999968139
20
-130.80525589005245
30
0
40
25.000000372333041
210
0
220
0
230
1
100
AcDbArc
50
149.99999852053895
51
153.00290037770793
0
ARC
5
268
100
AcDbEntity
8
0
100
AcDbCircle
10
166.99999999968139
20
-130.80525589005245
30
0
40
25.0000003723177
210
0
220
0
230
1
100
AcDbArc
50
153.00290037770793
51
153.30404942763076
0
SPLINE
5
269
100
AcDbEntity
8
0
100
AcDbSpline
70
0
71
3
72
10
73
6
74
0
42
0.000000001
43
0.0000000001
44
0.0000000001
40
1.1045406163532376
40
1.1045406163532376
40
1.1045406163532376
40
1.1045406163532376
40
1.1267052078786026
40
1.1267052078786026
40
1.3831305304341253
40
1.3831305304341253
40
1.3831305304341253
40
1.3831305304341253
10
143.39088189450581
20
-119.00110607030145
30
0
10
143.42281307505388
20
-119.01822029725733
30
0
10
143.45457316317066
20
-119.03508866879659
30
0
10
143.85169034430106
20
-119.24400331135911
30
0
10
144.26963925255097
20
-119.44243418951538
30
0
10
144.66492111464066
20
-119.57385927988773
30
0
0
SPLINE
5
270
100
AcDbEntity
8
0
100
AcDbSpline
70
0
71
3
72
14
73
10
74
0
42
0.000000001
43
0.0000000001
44
0.0000000001
40
-2.4580655329701186
40
-2.4580655329701186
40
-2.4580655329701186
40
-2.4580655329701186
40
-1.0738062729764499
40
-1.0738062729764499
40
-0.49558985228334312
40
-0.49558985228334312
40
-0.19785801991904634
40
-0.19785801991904634
40
-0.12364179480752346
40
-0.12364179480752346
40
-0.12364179480752346
40
-0.12364179480752346
10
127
20
-111.22539260212265
30
0
10
128.34681200458957
20
-111.85325597933397
30
0
10
128.34369161134933
20
-111.94118970193023
30
0
10
133.67687357263773
20
-114.47664679725821
30
0
10
134.54768511651631
20
-114.87269519976421
30
0
10
140.06512218799762
20
-117.50250514433574
30
0
10
141.440983338324
20
-118.16323397800693
30
0
10
142.82299651265762
20
-118.76714797919144
30
0
10
143.10830363383243
20
-118.88818052930574
30
0
10
143.39088189450584
20
-119.00110607030143
30
0
0
SPLINE
5
271
100
AcDbEntity
8
0
100
AcDbSpline
70
0
71
3
72
10
73
6
74
0
42
0.000000001
43
0.0000000001
44
0.0000000001
40
-0.76893114710895583
40
-0.76893114710895583
40
-0.76893114710895583
40
-0.76893114710895583
40
-0.34165584396969595
40
-0.34165584396969595
40
0
40
0
40
0
40
0
10
117
20
-111.22539260212264
30
0
10
119.6536507005444
20
-110.69531091757879
30
0
10
121.84176872062991
20
-110.25822200989788
30
0
10
125.07144850063467
20
-110.37896557340343
30
0
10
125.96780028676022
20
-110.74419671457279
30
0
10
127
20
-111.22539260212265
30
0
0
LINE
5
272
100
AcDbEntity
8
0
100
AcDbLine
10
117
20
-111.22539260212264
30
0
11
114.88922622397675
21
-111.64703156110691
31
0
0
LINE
5
273
100
AcDbEntity
8
0
100
AcDbLine
10
114.88922622397675
20
-111.64703156110691
30
0
11
106.83329129747707
21
-111.65513629171555
31
0
0
LINE
5
274
100
AcDbEntity
8
0
100
AcDbLine
10
106.83329129747707
20
-111.65513629171555
30
0
11
106.53646257291165
21
-111.68654145476772
31
0
0
LINE
5
275
100
AcDbEntity
8
0
100
AcDbLine
10
106.53646257291165
20
-111.68654145476772
30
0
11
106.47370052337646
21
-111.68393923476488
31
0
0
LINE
5
276
100
AcDbEntity
8
0
100
AcDbLine
10
106.47370052337646
20
-111.68393923476488
30
0
11
97.408353846910927
21
-112.67136609521076
31
0
0
LINE
5
277
100
AcDbEntity
8
0
100
AcDbLine
10
97.408353846910927
20
-112.67136609521076
30
0
11
95.947396278381348
21
-112.68238778667489
31
0
0
LINE
5
278
100
AcDbEntity
8
0
100
AcDbLine
10
95.947396278381348
20
-112.68238778667489
30
0
11
88.278869045297625
21
-113.49460119227858
31
0
0
LINE
5
279
100
AcDbEntity
8
0
100
AcDbLine
10
88.278869045297625
20
-113.49460119227858
30
0
11
85.421096801757812
21
-113.59084173087682
31
0
0
LINE
5
280
100
AcDbEntity
8
0
100
AcDbLine
10
85.421096801757812
20
-113.59084173087682
30
0
11
78.948015174484155
21
-114.35092744641022
31
0
0
LINE
5
281
100
AcDbEntity
8
0
100
AcDbLine
10
78.948015174484155
20
-114.35092744641022
30
0
11
74.894697189331055
21
-114.63561311186109
31
0
0
LINE
5
282
100
AcDbEntity
8
0
100
AcDbLine
10
74.894697189331055
20
-114.63561311186109
30
0
11
68.633220911411769
21
-115.80749026819478
31
0
0
LINE
5
283
100
AcDbEntity
8
0
100
AcDbLine
10
68.633220911411769
20
-115.80749026819478
30
0
11
64.368001937866211
21
-116.53216060248272
31
0
0
LINE
5
284
100
AcDbEntity
8
0
100
AcDbLine
10
64.368001937866211
20
-116.53216060248272
30
0
11
57.682097048767993
21
-117.55303121836954
31
0
0
LINE
5
285
100
AcDbEntity
8
0
100
AcDbLine
10
57.682097048767993
20
-117.55303121836954
30
0
11
53.841993331909173
21
-118.05944114309401
31
0
0
LINE
5
286
100
AcDbEntity
8
0
100
AcDbLine
10
53.841993331909173
20
-118.05944114309401
30
0
11
47.584705810721331
21
-118.46594272261939
31
0
0
LINE
5
287
100
AcDbEntity
8
0
100
AcDbLine
10
47.584705810721331
20
-118.46594272261939
30
0
11
43.316003799438469
21
-118.64718278947635
31
0
0
LINE
5
288
100
AcDbEntity
8
0
100
AcDbLine
10
43.316003799438469
20
-118.64718278947635
30
0
11
37.774896079595202
21
-118.98032348533206
31
0
0
LINE
5
289
100
AcDbEntity
8
0
100
AcDbLine
10
37.774896079595202
20
-118.98032348533206
30
0
11
32.788993835449212
21
-119.18984514997227
31
0
0
LINE
5
290
100
AcDbEntity
8
0
100
AcDbLine
10
32.788993835449212
20
-119.18984514997227
30
0
11
27.877587882147292
21
-119.46307798257789
31
0
0
LINE
5
291
100
AcDbEntity
8
0
100
AcDbLine
10
27.877587882147292
20
-119.46307798257789
30
0
11
22.262994766235344
21
-119.69238049463299
31
0
0
LINE
5
292
100
AcDbEntity
8
0
100
AcDbLine
10
22.262994766235344
20
-119.69238049463299
30
0
11
17.895573703067313
21
-119.91733127836153
31
0
0
LINE
5
293
100
AcDbEntity
8
0
100
AcDbLine
10
17.895573703067313
20
-119.91733127836153
30
0
11
11.736995697021477
21
-120.15913979787175
31
0
0
LINE
5
294
100
AcDbEntity
8
0
100
AcDbLine
10
11.736995697021477
20
-120.15913979787175
30
0
11
7.8320886380440946
21
-120.34558323859622
31
0
0
LINE
5
295
100
AcDbEntity
8
0
100
AcDbLine
10
5.5622338450088549
20
-125.33250119551076
30
0
11
1.9999999999999929
21
-125.17260054583056
31
0
0
LINE
5
296
100
AcDbEntity
8
0
100
AcDbLine
10
1.9999999999999929
20
-125.17260054583056
30
0
11
1.9999999999999929
21
-127.43923034131544
31
0
0
LINE
5
297
100
AcDbEntity
8
0
100
AcDbLine
10
1.9999999999999929
20
-127.43923034131544
30
0
11
21.999999999999993
21
-127.43923034131544
31
0
0
LINE
5
298
100
AcDbEntity
8
0
100
AcDbLine
10
21.999999999999993
20
-127.43923034131544
30
0
11
21.999999999999993
21
-129.17128136396397
31
0
0
LINE
5
299
100
AcDbEntity
8
0
100
AcDbLine
10
21.999999999999993
20
-129.17128136396397
30
0
11
1.9999999999999929
21
-129.17128136396397
31
0
0
LINE
5
300
100
AcDbEntity
8
0
100
AcDbLine
10
1.9999999999999929
20
-129.17128136396397
30
0
11
1.9999999999999929
21
-134.127618377879
31
0
0
LINE
5
301
100
AcDbEntity
8
0
100
AcDbLine
10
1.9999999999999929
20
-134.127618377879
30
0
11
8.727518050998242
21
-133.94834978161029
31
0
0
LINE
5
302
100
AcDbEntity
8
0
100
AcDbLine
10
8.727518050998242
20
-133.94834978161029
30
0
11
11.736995697021477
21
-133.76846957682557
31
0
0
LINE
5
303
100
AcDbEntity
8
0
100
AcDbLine
10
11.736995697021477
20
-133.76846957682557
30
0
11
20.763950356820793
21
-133.49643347031989
31
0
0
LINE
5
304
100
AcDbEntity
8
0
100
AcDbLine
10
20.763950356820793
20
-133.49643347031989
30
0
11
22.262994766235344
21
-133.39584547218553
31
0
0
LINE
5
305
100
AcDbEntity
8
0
100
AcDbLine
10
22.262994766235344
20
-133.39584547218553
30
0
11
32.710916092613388
21
-133.03653430773983
31
0
0
LINE
5
306
100
AcDbEntity
8
0
100
AcDbLine
10
32.710916092613388
20
-133.03653430773983
30
0
11
32.788993835449212
21
-133.03060596388912
31
0
0
LINE
5
307
100
AcDbEntity
8
0
100
AcDbLine
10
32.788993835449212
20
-133.03060596388912
30
0
11
33.324531067207573
21
-133.00937237151754
31
0
0
LINE
5
308
100
AcDbEntity
8
0
100
AcDbLine
10
33.324531067207573
20
-133.00937237151754
30
0
11
43.316003799438469
21
-132.68244860694227
31
0
0
LINE
5
309
100
AcDbEntity
8
0
100
AcDbLine
10
43.316003799438469
20
-132.68244860694227
30
0
11
44.241564937865277
21
-132.7039337030206
31
0
0
LINE
5
310
100
AcDbEntity
8
0
100
AcDbLine
10
44.241564937865277
20
-132.7039337030206
30
0
11
53.841993331909173
21
-132.34083643804632
31
0
0
LINE
5
311
100
AcDbEntity
8
0
100
AcDbLine
10
53.841993331909173
20
-132.34083643804632
30
0
11
54.674260516247806
21
-133.09987170452706
31
0
0
LINE
5
312
100
AcDbEntity
8
0
100
AcDbLine
10
54.674260516247806
20
-133.09987170452706
30
0
11
55.905781469228835
21
-133.84103563640926
31
0
0
LINE
5
313
100
AcDbEntity
8
0
100
AcDbLine
10
55.905781469228835
20
-133.84103563640926
30
0
11
60.350579332722504
21
-137.11355743568828
31
0
0
LINE
5
314
100
AcDbEntity
8
0
100
AcDbLine
10
60.350579332722504
20
-137.11355743568828
30
0
11
64.368001937866211
21
-138.72015123030445
31
0
0
LINE
5
315
100
AcDbEntity
8
0
100
AcDbLine
10
64.368001937866211
20
-138.72015123030445
30
0
11
67.16842680299068
21
-141.05508511384221
31
0
0
LINE
5
316
100
AcDbEntity
8
0
100
AcDbLine
10
67.16842680299068
20
-141.05508511384221
30
0
11
74.894697189331055
21
-145.02586309960071
31
0
0
LINE
5
317
100
AcDbEntity
8
0
100
AcDbLine
10
74.894697189331055
20
-145.02586309960071
30
0
11
74.960655645858537
21
-145.04066209045786
31
0
0
LINE
5
318
100
AcDbEntity
8
0
100
AcDbLine
10
74.960655645858537
20
-145.04066209045786
30
0
11
85.421096801757812
21
-146.17764819641945
31
0
0
LINE
5
319
100
AcDbEntity
8
0
100
AcDbLine
10
85.421096801757812
20
-146.17764819641945
30
0
11
86.280866833127362
21
-146.27475280876769
31
0
0
LINE
5
320
100
AcDbEntity
8
0
100
AcDbLine
10
86.280866833127362
20
-146.27475280876769
30
0
11
95.947396278381348
21
-146.32338771110972
31
0
0
LINE
5
321
100
AcDbEntity
8
0
100
AcDbLine
10
95.947396278381348
20
-146.32338771110972
30
0
11
98.709760110235081
21
-146.6392295527495
31
0
0
LINE
5
322
100
AcDbEntity
8
0
100
AcDbLine
10
98.709760110235081
20
-146.6392295527495
30
0
11
106.47370052337646
21
-146.4793164687255
31
0
0
LINE
5
323
100
AcDbEntity
8
0
100
AcDbLine
10
106.47370052337646
20
-146.4793164687255
30
0
11
111.32335067392225
21
-147.0038507534133
31
0
0
LINE
5
324
100
AcDbEntity
8
0
100
AcDbLine
10
111.32335067392225
20
-147.0038507534133
30
0
11
117
21
-146.64872533859952
31
0
0
SPLINE
5
325
100
AcDbEntity
8
0
100
AcDbSpline
70
0
71
3
72
10
73
6
74
0
42
0.000000001
43
0.0000000001
44
0.0000000001
40
-0.52473096501202365
40
-0.52473096501202365
40
-0.52473096501202365
40
-0.52473096501202365
40
-0.16326326378355585
40
-0.16326326378355585
40
0
40
0
40
0
40
0
10
127
20
-146.64872533859952
30
0
10
124.28035622769265
20
-146.60676144497512
30
0
10
120.66901636020056
20
-146.55050069349664
30
0
10
117.9611686859846
20
-146.58859560207551
30
0
10
117.54314907583424
20
-146.61474648421174
30
0
10
117
20
-146.64872533859952
30
0
0
SPLINE
5
326
100
AcDbEntity
8
0
100
AcDbSpline
70
0
71
3
72
14
73
10
74
0
42
0.000000001
43
0.0000000001
44
0.0000000001
40
-0.60461513517800225
40
-0.60461513517800225
40
-0.60461513517800225
40
-0.60461513517800225
40
-0.31914007548612522
40
-0.31914007548612522
40
-0.13337459014012526
40
-0.13337459014012526
40
-0.042922543718261624
40
-0.042922543718261624
40
0
40
0
40
0
40
0
10
135.99132988844877
20
-147.09117071427815
30
0
10
134.29325102069697
20
-147.28264855098598
30
0
10
132.58264227685191
20
-147.17879898494232
30
0
10
130.35078045032475
20
-146.96831180759145
30
0
10
129.46385431538903
20
-146.85939508684274
30
0
10
128.32207581703901
20
-146.7364674400356
30
0
10
127.82434860883441
20
-146.68606391985418
30
0
10
127.22352330001539
20
-146.65256686936777
30
0
10
127.14305811692257
20
-146.65093271430874
30
0
10
127
20
-146.64872533859952
30
0
0
SPLINE
5
327
100
AcDbEntity
8
0
100
AcDbSpline
70
0
71
3
72
14
73
10
74
0
42
0.000000001
43
0.0000000001
44
0.0000000001
40
-0.77409710266324194
40
-0.77409710266324194
40
-0.77409710266324194
40
-0.77409710266324194
40
-0.70147041990309056
40
-0.70147041990309056
40
-0.59634437969746434
40
-0.59634437969746434
40
-0.32348772181411256
40
-0.32348772181411256
40
0
40
0
40
0
40
0
10
142.95858174641918
20
-144.12887259261012
30
0
10
142.7670194214154
20
-144.28991245926585
30
0
10
142.53012743554362
20
-144.47618275744392
30
0
10
142.0638902082475
20
-144.83377351806891
30
0
10
141.77549615446787
20
-145.04536574395152
30
0
10
140.72643679870356
20
-145.7599233573994
30
0
10
139.94904054831773
20
-146.18934142842392
30
0
10
138.07523716350232
20
-146.87639254821119
30
0
10
137.06843578663867
20
-147.04060000118054
30
0
10
135.99132988844875
20
-147.09117071427815
30
0
0
SPLINE
5
328
100
AcDbEntity
8
0
100
AcDbSpline
70
0
71
3
72
10
73
6
74
0
42
0.000000001
43
0.0000000001
44
0.0000000001
40
-0.2835754112677924
40
-0.2835754112677924
40
-0.2835754112677924
40
-0.2835754112677924
40
-0.11075806201478382
40
-0.11075806201478382
40
0
40
0
40
0
40
0
10
144.80884562517051
20
-142.31840863529374
30
0
10
144.51093352094904
20
-142.56088988502023
30
0
10
144.1652529735924
20
-142.94137457925618
30
0
10
143.48861210664427
20
-143.63520765249959
30
0
10
143.23520414030671
20
-143.88436508513021
30
0
10
142.95858174641918
20
-144.12887259261012
30
0
0
ARC
5
329
100
AcDbEntity
8
0
100
AcDbCircle
10
167.00000000086393
20
-130.80525588944812
30
0
40
25.000000373500598
210
0
220
0
230
1
100
AcDbArc
50
207.00017617235244
51
207.42106117558498
0
SPLINE
5
330
100
AcDbEntity
8
0
100
AcDbSpline
70
0
71
3
72
10
73
6
74
0
42
0.000000001
43
0.0000000001
44
0.0000000001
40
0
40
0
40
0
40
0
40
0.037098603791533118
40
0.037098603791533118
40
0.079381744264181431
40
0.079381744264181431
40
0.079381744264181431
40
0.079381744264181431
10
144.72487146157806
20
-142.15508704384521
30
0
10
144.62110507475532
20
-142.22235390296279
30
0
10
144.51343464125532
20
-142.29863840003736
30
0
10
144.30345281049657
20
-142.4513873309927
30
0
10
144.20241626079323
20
-142.52720098051526
30
0
10
144.07306187769572
20
-142.62367288258994
30
0
0
SPLINE
5
331
100
AcDbEntity
8
0
100
AcDbSpline
70
0
71
3
72
10
73
6
74
0
42
0.000000001
43
0.0000000001
44
0.0000000001
40
0
40
0
40
0
40
0
40
0.76736134085217167
40
0.76736134085217167
40
2.0793108000930354
40
2.0793108000930354
40
2.0793108000930354
40
2.0793108000930354
10
144.07306187769572
20
-142.62367288258994
30
0
10
142.00066931423967
20
-144.12297065561691
30
0
10
141.15044176435464
20
-144.46184119066794
30
0
10
139.79299858818192
20
-144.99933993335395
30
0
10
138.95420758097842
20
-145.18369598262009
30
0
10
138.03575592317091
20
-145.27277207428597
30
0
0
SPLINE
5
332
100
AcDbEntity
8
0
100
AcDbSpline
70
0
71
3
72
12
73
8
74
0
42
0.000000001
43
0.0000000001
44
0.0000000001
40
0
40
0
40
0
40
0
40
0.50894284550766211
40
0.50894284550766211
40
0.92163713951202975
40
0.92163713951202975
40
1.1877077782424945
40
1.1877077782424945
40
1.1877077782424945
40
1.1877077782424945
10
138.03575592317091
20
-145.272772074286
30
0
10
136.36123551817167
20
-145.54482491198772
30
0
10
134.7132457201032
20
-145.48002520452653
30
0
10
132.41615777487434
20
-145.28235988781728
30
0
10
131.34299866561091
20
-145.13770638423603
30
0
10
129.66202724179001
20
-144.90868497655009
30
0
10
127.75806128965714
20
-144.64849520825746
30
0
10
127
20
-144.63592669201381
30
0
0
SPLINE
5
333
100
AcDbEntity
8
0
100
AcDbSpline
70
0
71
3
72
10
73
6
74
0
42
0.000000001
43
0.0000000001
44
0.0000000001
40
0
40
0
40
0
40
0
40
0.40701861956073676
40
0.40701861956073676
40
1.0249950755656774
40
1.0249950755656774
40
1.0249950755656774
40
1.0249950755656774
10
127
20
-144.63592669201381
30
0
10
125.64345770546397
20
-144.61343547118949
30
0
10
123.05693293002363
20
-144.5711448942821
30
0
10
118.56075606712692
20
-144.53828737805881
30
0
10
117.91988046791573
20
-144.57837990446666
30
0
10
117.00000000000001
20
-144.63592669201384
30
0
0
LINE
5
334
100
AcDbEntity
8
0
100
AcDbLine
10
117
20
-144.63592669201384
30
0
11
113.59781951104964
21
-144.8487636470569
31
0
0
LINE
5
335
100
AcDbEntity
8
0
100
AcDbLine
10
113.59781951104964
20
-144.8487636470569
30
0
11
106.47370052337646
21
-144.07822463058596
31
0
0
LINE
5
336
100
AcDbEntity
8
0
100
AcDbLine
10
106.47370052337646
20
-144.07822463058596
30
0
11
101.46611301133647
21
-144.18136539673799
31
0
0
LINE
5
337
100
AcDbEntity
8
0
100
AcDbLine
10
101.46611301133647
20
-144.18136539673799
30
0
11
95.947396278381348
21
-143.55036898839921
31
0
0
LINE
5
338
100
AcDbEntity
8
0
100
AcDbLine
10
95.947396278381348
20
-143.55036898839921
30
0
11
89.584265404414296
21
-143.51835437028859
31
0
0
LINE
5
339
100
AcDbEntity
8
0
100
AcDbLine
10
89.584265404414296
20
-143.51835437028859
30
0
11
85.421096801757812
21
-143.04815552809663
31
0
0
LINE
5
340
100
AcDbEntity
8
0
100
AcDbLine
10
85.421096801757812
20
-143.04815552809663
30
0
11
78.534186672683489
21
-142.29959043289051
31
0
0
LINE
5
341
100
AcDbEntity
8
0
100
AcDbLine
10
78.534186672683489
20
-142.29959043289051
30
0
11
74.894697189331055
21
-141.48300413866173
31
0
0
LINE
5
342
100
AcDbEntity
8
0
100
AcDbLine
10
74.894697189331055
20
-141.48300413866173
30
0
11
70.189502995902444
21
-139.06485403676834
31
0
0
LINE
5
343
100
AcDbEntity
8
0
100
AcDbLine
10
70.189502995902444
20
-139.06485403676834
30
0
11
65.002676716451688
21
-134.7401900978287
31
0
0
LINE
5
344
100
AcDbEntity
8
0
100
AcDbLine
10
65.002676716451688
20
-134.7401900978287
30
0
11
64.638659073870969
21
-134.46996631618896
31
0
0
LINE
5
345
100
AcDbEntity
8
0
100
AcDbLine
10
64.638659073870969
20
-134.46996631618896
30
0
11
64.368001937866211
21
-134.18728829671505
31
0
0
LINE
5
346
100
AcDbEntity
8
0
100
AcDbLine
10
64.368001937866211
20
-134.18728829671505
30
0
11
58.465700438871977
21
-130.63511732020064
31
0
0
LINE
5
347
100
AcDbEntity
8
0
100
AcDbLine
10
58.465700438871977
20
-130.63511732020064
30
0
11
54.007848490375977
21
-126.56951566567029
31
0
0
LINE
5
348
100
AcDbEntity
8
0
100
AcDbLine
10
54.007848490375977
20
-126.56951566567029
30
0
11
53.93770718996084
21
-126.50634863624632
31
0
0
LINE
5
349
100
AcDbEntity
8
0
100
AcDbLine
10
53.93770718996084
20
-126.50634863624632
30
0
11
53.841993331909173
21
-126.42108941654486
31
0
0
LINE
5
350
100
AcDbEntity
8
0
100
AcDbLine
10
53.841993331909173
20
-126.42108941654486
30
0
11
44.170880916668708
21
-126.23885690380861
31
0
0
LINE
5
351
100
AcDbEntity
8
0
100
AcDbLine
10
44.170880916668708
20
-126.23885690380861
30
0
11
43.316003799438469
21
-126.17108882663226
31
0
0
LINE
5
352
100
AcDbEntity
8
0
100
AcDbLine
10
43.316003799438469
20
-126.17108882663226
30
0
11
34.387147861497844
21
-126.02588348855645
31
0
0
LINE
5
353
100
AcDbEntity
8
0
100
AcDbLine
10
34.387147861497844
20
-126.02588348855645
30
0
11
32.788993835449212
21
-125.91773936492095
31
0
0
LINE
5
354
100
AcDbEntity
8
0
100
AcDbLine
10
32.788993835449212
20
-125.91773936492095
30
0
11
24.690797193264249
21
-125.80288975358829
31
0
0
LINE
5
355
100
AcDbEntity
8
0
100
AcDbLine
10
24.690797193264249
20
-125.80288975358829
30
0
11
22.262994766235344
21
-125.66099574442688
31
0
0
LINE
5
356
100
AcDbEntity
8
0
100
AcDbLine
10
22.262994766235344
20
-125.66099574442688
30
0
11
15.082197188211808
21
-125.57140307342755
31
0
0
LINE
5
357
100
AcDbEntity
8
0
100
AcDbLine
10
15.082197188211808
20
-125.57140307342755
30
0
11
11.736995697021477
21
-125.40083080686152
31
0
0
LINE
5
358
100
AcDbEntity
8
0
100
AcDbLine
10
11.736995697021477
20
-125.40083080686152
30
0
11
5.5622338450088549
21
-125.33250119551076
31
0
0
LINE
5
359
100
AcDbEntity
8
0
100
AcDbLine
10
250.73713016510013
20
-148.63425318120747
30
0
11
250.45452892580607
21
-148.46279377749266
31
0
0
LINE
5
360
100
AcDbEntity
8
0
100
AcDbLine
10
250.45452892580607
20
-148.46279377749266
30
0
11
250.73713016510013
21
-149.96470295812759
31
0
0
LINE
5
361
100
AcDbEntity
8
0
100
AcDbLine
10
250.73713016510013
20
-149.96470295812759
30
0
11
251.1691268074276
21
-152.9536273447136
31
0
0
LINE
5
362
100
AcDbEntity
8
0
100
AcDbLine
10
251.1691268074276
20
-152.9536273447136
30
0
11
251.42626233191766
21
-153.59857766138757
31
0
0
LINE
5
363
100
AcDbEntity
8
0
100
AcDbLine
10
251.42626233191766
20
-153.59857766138757
30
0
11
253.7602240570663
21
-162.41318614755201
31
0
0
LINE
5
364
100
AcDbEntity
8
0
100
AcDbLine
10
253.7602240570663
20
-162.41318614755201
30
0
11
259.73241008352409
21
-172.0808936656191
31
0
0
LINE
5
365
100
AcDbEntity
8
0
100
AcDbLine
10
259.73241008352409
20
-172.0808936656191
30
0
11
260.56079266632531
21
-173.67984225228992
31
0
0
LINE
5
366
100
AcDbEntity
8
0
100
AcDbLine
10
260.56079266632531
20
-173.67984225228992
30
0
11
261.26343441009521
21
-174.29109107837075
31
0
0
LINE
5
367
100
AcDbEntity
8
0
100
AcDbLine
10
261.26343441009521
20
-174.29109107837075
30
0
11
262.5726701692783
21
-175.31820640543958
31
0
0
LINE
5
368
100
AcDbEntity
8
0
100
AcDbLine
10
262.5726701692783
20
-175.31820640543958
30
0
11
271.78973388671875
21
-183.78321713426121
31
0
0
SPLINE
5
369
100
AcDbEntity
8
0
100
AcDbSpline
70
0
71
3
72
8
73
4
74
0
42
0.000000001
43
0.0000000001
44
0.0000000001
40
-0.31868132850317815
40
-0.31868132850317815
40
-0.31868132850317815
40
-0.31868132850317815
40
0
40
0
40
0
40
0
10
274.11017783477479
20
-185.74718491448891
30
0
10
273.33961722224041
20
-185.20663997973719
30
0
10
272.57211305788201
20
-184.50175920806413
30
0
10
271.78973388671875
20
-183.78321713426121
30
0
0
SPLINE
5
370
100
AcDbEntity
8
0
100
AcDbSpline
70
0
71
3
72
12
73
8
74
0
42
0.000000001
43
0.0000000001
44
0.0000000001
40
-0.51668403165024968
40
-0.51668403165024968
40
-0.51668403165024968
40
-0.51668403165024968
40
-0.32931836507150353
40
-0.32931836507150353
40
-0.17547094978702724
40
-0.17547094978702724
40
0
40
0
40
0
40
0
10
279.14858769343596
20
-185.74718491448894
30
0
10
278.55469262157919
20
-185.93922402481695
30
0
10
277.95625844138391
20
-186.09452281963013
30
0
10
276.81991081946779
20
-186.22156107925261
30
0
10
276.32098326375598
20
-186.21802172501805
30
0
10
275.22806896094676
20
-186.08170430640763
30
0
10
274.66420802228527
20
-185.93470095346535
30
0
10
274.11017783477484
20
-185.74718491448894
30
0
0
SPLINE
5
371
100
AcDbEntity
8
0
100
AcDbSpline
70
0
71
3
72
8
73
4
74
0
42
0.000000001
43
0.0000000001
44
0.0000000001
40
-0.28494400350096888
40
-0.28494400350096888
40
-0.28494400350096888
40
-0.28494400350096888
40
0
40
0
40
0
40
0
10
281.78973388671875
20
-183.78321713426121
30
0
10
280.75489558590868
20
-184.49908325295283
30
0
10
279.92790912341457
20
-185.20422681378295
30
0
10
279.14858769343596
20
-185.74718491448891
30
0
0
SPLINE
5
372
100
AcDbEntity
8
0
100
AcDbSpline
70
0
71
3
72
14
73
10
74
0
42
0.000000001
43
0.0000000001
44
0.0000000001
40
-0.35793294449235191
40
-0.35793294449235191
40
-0.35793294449235191
40
-0.35793294449235191
40
-0.27036358568983787
40
-0.27036358568983787
40
-0.14605746422458277
40
-0.14605746422458277
40
-0.061276727398279968
40
-0.061276727398279968
40
0
40
0
40
0
40
0
10
291.74139485381636
20
-182.24025566341365
30
0
10
291.01667199563121
20
-182.57431019738289
30
0
10
290.14194398280068
20
-182.69745439885304
30
0
10
288.10512120818254
20
-182.82002971165468
30
0
10
286.79203298579233
20
-182.75726489058843
30
0
10
284.63164394797565
20
-182.86480514670251
30
0
10
283.68963369332067
20
-182.9712976794072
30
0
10
282.25856777255837
20
-183.46124994091866
30
0
10
281.95771393707668
20
-183.66701421968685
30
0
10
281.78973388671875
20
-183.78321713426121
30
0
0
SPLINE
5
373
100
AcDbEntity
8
0
100
AcDbSpline
70
0
71
3
72
12
73
8
74
0
42
0.000000001
43
0.0000000001
44
0.0000000001
40
-0.71344786746294397
40
-0.71344786746294397
40
-0.71344786746294397
40
-0.71344786746294397
40
-0.37589791429850616
40
-0.37589791429850616
40
-0.17328064905709145
40
-0.17328064905709145
40
0
40
0
40
0
40
0
10
293.53878986710322
20
-174.46687174289511
30
0
10
293.50334070576838
20
-175.07584584424444
30
0
10
293.37875837091167
20
-177.42419973504866
30
0
10
293.0945467891849
20
-179.52470069361343
30
0
10
292.94015988697168
20
-180.23187444283059
30
0
10
292.45452533159823
20
-181.3811362922176
30
0
10
292.15548677107853
20
-181.83757447020326
30
0
10
291.74139485381636
20
-182.24025566341362
30
0
0
SPLINE
5
374
100
AcDbEntity
8
0
100
AcDbSpline
70
0
71
3
72
10
73
6
74
0
42
0.000000001
43
0.0000000001
44
0.0000000001
40
-1.9747154079162823
40
-1.9747154079162823
40
-1.9747154079162823
40
-1.9747154079162823
40
-0.80669024005401202
40
-0.80669024005401202
40
0
40
0
40
0
40
0
10
293.514352298414
20
-166.63424389992372
30
0
10
293.39020886206464
20
-167.30633849260408
30
0
10
293.26460267793288
20
-167.95041324627104
30
0
10
293.36840302749204
20
-171.19710898485084
30
0
10
293.46014354262104
20
-171.77905463724869
30
0
10
293.53878986710322
20
-174.46687174289508
30
0
0
SPLINE
5
375
100
AcDbEntity
8
0
100
AcDbSpline
70
0
71
3
72
12
73
8
74
0
42
0.000000001
43
0.0000000001
44
0.0000000001
40
-0.57001837327904159
40
-0.57001837327904159
40
-0.57001837327904159
40
-0.57001837327904159
40
-0.5023412294717895
40
-0.5023412294717895
40
-0.31964625614637943
40
-0.31964625614637943
40
0
40
0
40
0
40
0
10
293.40960539373032
20
-161.31219908312471
30
0
10
293.41706666251883
20
-161.5176506970862
30
0
10
293.4240524339852
20
-161.72197218344311
30
0
10
293.44823999975938
20
-162.46740545573391
30
0
10
293.46400602405674
20
-163.03337779874485
30
0
10
293.4990269754914
20
-164.53152527760949
30
0
10
293.51551112007155
20
-165.56875700960177
30
0
10
293.514352298414
20
-166.63424389992369
30
0
0
SPLINE
5
376
100
AcDbEntity
8
0
100
AcDbSpline
70
0
71
3
72
12
73
8
74
0
42
0.000000001
43
0.0000000001
44
0.0000000001
40
-0.24877701014978665
40
-0.24877701014978665
40
-0.24877701014978665
40
-0.24877701014978665
40
-0.17693930123696724
40
-0.17693930123696724
40
-0.1057806973630144
40
-0.1057806973630144
40
-0.036028931756165131
40
-0.036028931756165131
40
-0.036028931756165131
40
-0.036028931756165131
10
291.97310544552215
20
-160.58404090343376
30
0
10
292.16103815670897
20
-160.70385960882035
30
0
10
292.34992999229087
20
-160.84524252567891
30
0
10
292.70799393772518
20
-161.08555656047341
30
0
10
292.8583516931717
20
-161.17218444333872
30
0
10
293.17029984710746
20
-161.28157628097742
30
0
10
293.26545162143157
20
-161.28865435258626
30
0
10
293.40960539373032
20
-161.31219908312471
30
0
0
SPLINE
5
377
100
AcDbEntity
8
0
100
AcDbSpline
70
0
71
3
72
10
73
6
74
0
42
0.000000001
43
0.0000000001
44
0.0000000001
40
-0.5279268333206103
40
-0.5279268333206103
40
-0.5279268333206103
40
-0.5279268333206103
40
-0.26276726982087734
40
-0.26276726982087734
40
0
40
0
40
0
40
0
10
286.16874599673486
20
-158.16347041062244
30
0
10
287.28966766733294
20
-158.28910642132436
30
0
10
288.32976953654031
20
-158.56221396056003
30
0
10
290.37649585214996
20
-159.45469863072327
30
0
10
291.29249083793627
20
-160.03272554576841
30
0
10
291.97310544552209
20
-160.58404090343376
30
0
0
SPLINE
5
378
100
AcDbEntity
8
0
100
AcDbSpline
70
0
71
3
72
10
73
6
74
0
42
0.000000001
43
0.0000000001
44
0.0000000001
40
-0.54275493418340881
40
-0.54275493418340881
40
-0.54275493418340881
40
-0.54275493418340881
40
-0.23488625086523743
40
-0.23488625086523743
40
0
40
0
40
0
40
0
10
281.78973388671875
20
-157.76379473797843
30
0
10
282.04853307258736
20
-157.74300065073004
30
0
10
282.75359767950562
20
-157.68583927495047
30
0
10
284.59152289680827
20
-157.83859779331164
30
0
10
285.40848491159716
20
-157.97633325759779
30
0
10
286.16874599673491
20
-158.16347041062244
30
0
0
SPLINE
5
379
100
AcDbEntity
8
0
100
AcDbSpline
70
0
71
3
72
10
73
6
74
0
42
0.000000001
43
0.0000000001
44
0.0000000001
40
-1.678485053474668
40
-1.678485053474668
40
-1.678485053474668
40
-1.678485053474668
40
-0.59647821781034227
40
-0.59647821781034227
40
0
40
0
40
0
40
0
10
271.78973388671875
20
-157.76379473797843
30
0
10
272.81639111206812
20
-158.02769437715855
30
0
10
273.21945989488489
20
-158.16680639042625
30
0
10
278.21610458877973
20
-158.02090184781028
30
0
10
279.80786021544617
20
-157.9230350149422
30
0
10
281.78973388671875
20
-157.76379473797843
30
0
0
LINE
5
380
100
AcDbEntity
8
0
100
AcDbLine
10
271.78973388671875
20
-157.76379473797843
30
0
11
265.84820646485252
21
-156.23654016450018
31
0
0
LINE
5
381
100
AcDbEntity
8
0
100
AcDbLine
10
265.84820646485252
20
-156.23654016450018
30
0
11
261.26343441009521
21
-153.9603164813156
31
0
0
LINE
5
382
100
AcDbEntity
8
0
100
AcDbLine
10
261.26343441009521
20
-153.9603164813156
30
0
11
253.6469517308868
21
-151.09002335069516
31
0
0
LINE
5
383
100
AcDbEntity
8
0
100
AcDbLine
10
253.6469517308868
20
-151.09002335069516
30
0
11
250.73713016510013
21
-148.63425318120747
31
0
0
LINE
5
384
100
AcDbEntity
8
0
100
AcDbLine
10
250.73713016510013
20
-149.96470295812759
30
0
11
250.45452892580607
21
-148.46279377749266
31
0
0
LINE
5
385
100
AcDbEntity
8
0
100
AcDbLine
10
250.45452892580607
20
-148.46279377749266
30
0
11
247.67364851943114
21
-146.77558215212844
31
0
0
LINE
5
386
100
AcDbEntity
8
0
100
AcDbLine
10
247.67364851943114
20
-146.77558215212844
30
0
11
247.20506041583104
21
-145.84758525324492
31
0
0
LINE
5
387
100
AcDbEntity
8
0
100
AcDbLine
10
247.20506041583104
20
-145.84758525324492
30
0
11
245.89485912565476
21
-143.96749970813534
31
0
0
LINE
5
388
100
AcDbEntity
8
0
100
AcDbLine
10
245.89485912565476
20
-143.96749970813534
30
0
11
245.84436621764351
21
-146.11991144505157
31
0
0
LINE
5
389
100
AcDbEntity
8
0
100
AcDbLine
10
245.84436621764351
20
-146.11991144505157
30
0
11
245.57282328306019
21
-147.87776330173895
31
0
0
LINE
5
390
100
AcDbEntity
8
0
100
AcDbLine
10
245.57282328306019
20
-147.87776330173895
30
0
11
246.32246970688902
21
-151.86182525769911
31
0
0
LINE
5
391
100
AcDbEntity
8
0
100
AcDbLine
10
246.32246970688902
20
-151.86182525769911
30
0
11
246.42736504637895
21
-154.59641372370282
31
0
0
LINE
5
392
100
AcDbEntity
8
0
100
AcDbLine
10
246.42736504637895
20
-154.59641372370282
30
0
11
248.80288969537929
21
-162.02184133128253
31
0
0
LINE
5
393
100
AcDbEntity
8
0
100
AcDbLine
10
248.80288969537929
20
-162.02184133128253
30
0
11
249.06374060445137
21
-163.61696175897924
31
0
0
LINE
5
394
100
AcDbEntity
8
0
100
AcDbLine
10
249.06374060445137
20
-163.61696175897924
30
0
11
250.73713016510013
21
-166.58922987658713
31
0
0
LINE
5
395
100
AcDbEntity
8
0
100
AcDbLine
10
250.73713016510013
20
-166.58922987658713
30
0
11
254.79256019557647
21
-174.41704307570683
31
0
0
LINE
5
396
100
AcDbEntity
8
0
100
AcDbLine
10
254.79256019557647
20
-174.41704307570683
30
0
11
261.26343441009521
21
-180.04624786237349
31
0
0
LINE
5
397
100
AcDbEntity
8
0
100
AcDbLine
10
261.26343441009521
20
-180.04624786237349
30
0
11
270.68889893531269
21
-187.44066785945273
31
0
0
LINE
5
398
100
AcDbEntity
8
0
100
AcDbLine
10
270.68889893531269
20
-187.44066785945273
30
0
11
271.78973388671875
21
-187.9314646016395
31
0
0
SPLINE
5
399
100
AcDbEntity
8
0
100
AcDbSpline
70
0
71
3
72
16
73
12
74
0
42
0.000000001
43
0.0000000001
44
0.0000000001
40
-1.2642692047803392
40
-1.2642692047803392
40
-1.2642692047803392
40
-1.2642692047803392
40
-1.0768099121983408
40
-1.0768099121983408
40
-0.80347436707243125
40
-0.80347436707243125
40
-0.60389176569715097
40
-0.60389176569715097
40
-0.34985906721011978
40
-0.34985906721011978
40
0
40
0
40
0
40
0
10
271.78973388671875
20
-187.9314646016395
30
0
10
272.31383983767648
20
-188.16513223088964
30
0
10
272.81809801341745
20
-188.38995091924855
30
0
10
274.03368929402637
20
-188.88515668602116
30
0
10
274.73659077709834
20
-189.1304092311662
30
0
10
275.95813982879463
20
-189.38286355664889
30
0
10
276.47160741865173
20
-189.43561818849557
30
0
10
277.6708840798758
20
-189.39601032351842
30
0
10
278.29654929279752
20
-189.26309386133227
30
0
10
279.82048448004167
20
-188.77520001561453
30
0
10
280.70669428014349
20
-188.36394627578142
30
0
10
281.78973388671875
20
-187.9314646016395
30
0
0
SPLINE
5
400
100
AcDbEntity
8
0
100
AcDbSpline
70
0
71
3
72
8
73
4
74
0
42
0.000000001
43
0.0000000001
44
0.0000000001
40
-0.067003541090733129
40
-0.067003541090733129
40
-0.067003541090733129
40
-0.067003541090733129
40
0
40
0
40
0
40
0
10
281.78973388671875
20
-187.9314646016395
30
0
10
281.91015602301741
20
-187.88337737861093
30
0
10
282.00749330646647
20
-187.84532961596329
30
0
10
282.22390404534269
20
-187.79010786022502
30
0
0
SPLINE
5
401
100
AcDbEntity
8
0
100
AcDbSpline
70
0
71
3
72
18
73
14
74
0
42
0.000000001
43
0.0000000001
44
0.0000000001
40
-0.99881041052926678
40
-0.99881041052926678
40
-0.99881041052926678
40
-0.99881041052926678
40
-0.85195764755195225
40
-0.85195764755195225
40
-0.71281202948772027
40
-0.71281202948772027
40
-0.3805036143209089
40
-0.3805036143209089
40
-0.18523543110746615
40
-0.18523543110746615
40
-0.081209107352682969
40
-0.081209107352682969
40
0
40
0
40
0
40
0
10
282.22390404534269
20
-187.79010786022499
30
0
10
282.51843103361466
20
-187.61282206323602
30
0
10
283.00987145539068
20
-187.36892425286399
30
0
10
284.52695613029778
20
-187.04063673077457
30
0
10
285.30900208306105
20
-186.99641636331882
30
0
10
287.8710928086503
20
-187.04660055362262
30
0
10
289.75883874794556
20
-187.42305178554159
30
0
10
292.36030924229726
20
-187.78490438296507
30
0
10
293.23565765030668
20
-187.86762628443057
30
0
10
294.36746565596138
20
-187.76710151266337
30
0
10
294.72803898379885
20
-187.68970939817348
30
0
10
295.29349360384958
20
-187.43994920791462
30
0
10
295.51428912673964
20
-187.29236540306084
30
0
10
295.70243813428112
20
-187.09774569686655
30
0
0
SPLINE
5
402
100
AcDbEntity
8
0
100
AcDbSpline
70
0
71
3
72
14
73
10
74
0
42
0.000000001
43
0.0000000001
44
0.0000000001
40
-1.5301601048341782
40
-1.5301601048341782
40
-1.5301601048341782
40
-1.5301601048341782
40
-1.3552735347698921
40
-1.3552735347698921
40
-1.1435016325768173
40
-1.1435016325768173
40
-0.14451240589897724
40
-0.14451240589897724
40
0
40
0
40
0
40
0
10
295.70243813428112
20
-187.09774569686655
30
0
10
295.83160760142266
20
-186.88341776288473
30
0
10
295.92748061986208
20
-186.65489666047091
30
0
10
296.08516427273707
20
-186.12544212738712
30
0
10
296.134843520407
20
-185.82102490909455
30
0
10
296.29307560509267
20
-184.10519648205639
30
0
10
295.98565283963524
20
-182.22515723515875
30
0
10
295.65300380684869
20
-179.27021907126021
30
0
10
295.62887645199828
20
-179.0446689313726
30
0
10
295.57835465636526
20
-178.56561761431578
30
0
0
SPLINE
5
403
100
AcDbEntity
8
0
100
AcDbSpline
70
0
71
3
72
12
73
8
74
0
42
0.000000001
43
0.0000000001
44
0.0000000001
40
-0.34274258358541043
40
-0.34274258358541043
40
-0.34274258358541043
40
-0.34274258358541043
40
-0.25524873071229454
40
-0.25524873071229454
40
-0.17631228414777869
40
-0.17631228414777869
40
0
40
0
40
0
40
0
10
295.57835465636526
20
-178.56561761431578
30
0
10
295.44401572544257
20
-177.68410382208546
30
0
10
295.3077503895986
20
-176.80288400465469
30
0
10
295.04786216966431
20
-175.12674219943426
30
0
10
294.89307074633666
20
-174.10982546952354
30
0
10
294.55612480713671
20
-171.27303176482633
30
0
10
294.63080094258015
20
-170.59360678836964
30
0
10
294.6932552790953
20
-170.00922703581193
30
0
0
SPLINE
5
404
100
AcDbEntity
8
0
100
AcDbSpline
70
0
71
3
72
10
73
6
74
0
42
0.000000001
43
0.0000000001
44
0.0000000001
40
-0.45507135471514859
40
-0.45507135471514859
40
-0.45507135471514859
40
-0.45507135471514859
40
-0.15668994621308571
40
-0.15668994621308571
40
0
40
0
40
0
40
0
10
294.6932552790953
20
-170.00922703581188
30
0
10
294.62003566639976
20
-168.36103081518098
30
0
10
294.51174659129623
20
-166.46039202270271
30
0
10
294.42432568302314
20
-164.98636960944611
30
0
10
294.39107349286809
20
-164.44631186705743
30
0
10
294.35613284855896
20
-163.92518208083399
30
0
0
SPLINE
5
405
100
AcDbEntity
8
0
100
AcDbSpline
70
0
71
3
72
10
73
6
74
0
42
0.000000001
43
0.0000000001
44
0.0000000001
40
-0.12076936357340731
40
-0.12076936357340731
40
-0.12076936357340731
40
-0.12076936357340731
40
-0.065314832196898528
40
-0.065314832196898528
40
0
40
0
40
0
40
0
10
294.35613284855896
20
-163.92518208083402
30
0
10
294.24917621999748
20
-163.12851040299472
30
0
10
294.13452141357845
20
-162.33289115241297
30
0
10
293.89379311774667
20
-160.59895725991879
30
0
10
293.80423569302582
20
-159.7460980488043
30
0
10
293.78144389795915
20
-159.52957821722873
30
0
0
SPLINE
5
406
100
AcDbEntity
8
0
100
AcDbSpline
70
0
71
3
72
14
73
10
74
0
42
0.000000001
43
0.0000000001
44
0.0000000001
40
-0.069806185932697815
40
-0.069806185932697815
40
-0.069806185932697815
40
-0.069806185932697815
40
-0.026986071322439339
40
-0.026986071322439339
40
-0.013166659491025908
40
-0.013166659491025908
40
-0.0073111492081861171
40
-0.0073111492081861171
40
0
40
0
40
0
40
0
10
293.78144389795915
20
-159.52957821722873
30
0
10
293.6735287225747
20
-159.96506651894458
30
0
10
293.73580181391782
20
-160.42730751575533
30
0
10
293.76641732578764
20
-161.0199740538653
30
0
10
293.7689472253208
20
-161.13763942793636
30
0
10
293.7539343351512
20
-161.25607542243034
30
0
10
293.7469738896977
20
-161.28691400562707
30
0
10
293.72131673131878
20
-161.3446604863542
30
0
10
293.70338860978808
20
-161.36132968665675
30
0
10
293.68582706070799
20
-161.37822682060047
30
0
0
SPLINE
5
407
100
AcDbEntity
8
0
100
AcDbSpline
70
0
71
3
72
8
73
4
74
0
42
0.000000001
43
0.0000000001
44
0.0000000001
40
-0.21888329252039751
40
-0.21888329252039751
40
-0.21888329252039751
40
-0.21888329252039751
40
-0.18898483900055868
40
-0.18898483900055868
40
-0.18898483900055868
40
-0.18898483900055868
10
293.68582706070799
20
-161.37822682060047
30
0
10
293.57230743224557
20
-161.34150300082709
30
0
10
293.48450052486407
20
-161.32443175420269
30
0
10
293.40960539373032
20
-161.31219908312471
30
0
0
SPLINE
5
408
100
AcDbEntity
8
0
100
AcDbSpline
70
0
71
3
72
10
73
6
74
0
42
0.000000001
43
0.0000000001
44
0.0000000001
40
0.10266862512035355
40
0.10266862512035355
40
0.10266862512035355
40
0.10266862512035355
40
0.30418787150961374
40
0.30418787150961374
40
0.61974433049374
40
0.61974433049374
40
0.61974433049374
40
0.61974433049374
10
293.40960539373032
20
-161.31219908312471
30
0
10
293.43515220288873
20
-162.01564957149787
30
0
10
293.45602783753162
20
-162.72941867939838
30
0
10
293.49632582579386
20
-164.3710200771595
30
0
10
293.51559166719557
20
-165.49469737833275
30
0
10
293.51435229841394
20
-166.63424389992369
30
0
0
SPLINE
5
409
100
AcDbEntity
8
0
100
AcDbSpline
70
0
71
3
72
12
73
8
74
0
42
0.000000001
43
0.0000000001
44
0.0000000001
40
0
40
0
40
0
40
0
40
0.16334171993954477
40
0.16334171993954477
40
0.25132161856032553
40
0.25132161856032553
40
0.40944190909416006
40
0.40944190909416006
40
0.40944190909416006
40
0.40944190909416006
10
293.514352298414
20
-166.63424389992372
30
0
10
293.41545506787236
20
-167.1696591891465
30
0
10
293.30487471513243
20
-167.74647624978184
30
0
10
293.31353721956299
20
-169.77743310167739
30
0
10
293.35154508861172
20
-170.56721718220783
30
0
10
293.45396992112603
20
-172.46411939054099
30
0
10
293.49348541347933
20
-172.91854655142603
30
0
10
293.53878986710322
20
-174.46687174289505
30
0
0
SPLINE
5
410
100
AcDbEntity
8
0
100
AcDbSpline
70
0
71
3
72
14
73
10
74
0
42
0.000000001
43
0.0000000001
44
0.0000000001
40
0
40
0
40
0
40
0
40
0.19006955009736826
40
0.19006955009736826
40
0.28482661227741096
40
0.28482661227741096
40
0.33133479855290554
40
0.33133479855290554
40
0.37793105164906693
40
0.37793105164906693
40
0.37793105164906693
40
0.37793105164906693
10
293.53878986710322
20
-174.46687174289508
30
0
10
293.50197155602859
20
-175.09936619567253
30
0
10
293.37549069317458
20
-177.59025273544663
30
0
10
293.06686062697179
20
-179.64033041495685
30
0
10
292.92308844380887
20
-180.25657942152125
30
0
10
292.58734956262219
20
-181.07354628119958
30
0
10
292.45535597456404
20
-181.33027928331725
30
0
10
292.13396277060201
20
-181.81651805660385
30
0
10
291.95048715558937
20
-182.03692511273363
30
0
10
291.74139485381636
20
-182.24025566341365
30
0
0
SPLINE
5
411
100
AcDbEntity
8
0
100
AcDbSpline
70
0
71
3
72
16
73
12
74
0
42
0.000000001
43
0.0000000001
44
0.0000000001
40
0
40
0
40
0
40
0
40
0.14997305940943079
40
0.14997305940943079
40
0.45349818355424137
40
0.45349818355424137
40
0.71837566523653495
40
0.71837566523653495
40
0.850782018257078
40
0.850782018257078
40
0.9649254732652921
40
0.9649254732652921
40
0.9649254732652921
40
0.9649254732652921
10
291.74139485381636
20
-182.24025566341365
30
0
10
291.28739355960806
20
-182.44952350841857
30
0
10
290.78253768919683
20
-182.57248917821448
30
0
10
289.28578106346919
20
-182.80056115330251
30
0
10
288.15913895456339
20
-182.78397917078809
30
0
10
285.9785538047355
20
-182.79283619549932
30
0
10
284.92694580149436
20
-182.81343298126242
30
0
10
283.46656242781017
20
-183.06707723914934
30
0
10
282.97398455596874
20
-183.19312628421835
30
0
10
282.12974628208298
20
-183.54940521486358
30
0
10
281.89807620101783
20
-183.70826958741588
30
0
10
281.78973388671875
20
-183.78321713426121
30
0
0
SPLINE
5
412
100
AcDbEntity
8
0
100
AcDbSpline
70
0
71
3
72
10
73
6
74
0
42
0.000000001
43
0.0000000001
44
0.0000000001
40
0
40
0
40
0
40
0
40
0.1868693933804742
40
0.1868693933804742
40
0.35921715738756749
40
0.35921715738756749
40
0.35921715738756749
40
0.35921715738756749
10
281.78973388671875
20
-183.78321713426121
30
0
10
281.27746223901192
20
-184.13758932542632
30
0
10
280.84760302354846
20
-184.46518803329909
30
0
10
279.93609771415674
20
-185.16675269225604
30
0
10
279.53882399316956
20
-185.47530485065479
30
0
10
279.14858769343596
20
-185.74718491448891
30
0
0
SPLINE
5
413
100
AcDbEntity
8
0
100
AcDbSpline
70
0
71
3
72
10
73
6
74
0
42
0.000000001
43
0.0000000001
44
0.0000000001
40
0
40
0
40
0
40
0
40
0.26261380155955416
40
0.26261380155955416
40
0.51624109128498219
40
0.51624109128498219
40
0.51624109128498219
40
0.51624109128498219
10
279.1485876934359
20
-185.74718491448894
30
0
10
278.31567035408352
20
-186.01651313828768
30
0
10
277.50794062085038
20
-186.20254502250685
30
0
10
275.78065660853088
20
-186.20698488178726
30
0
10
274.97087323118029
20
-186.0384942964279
30
0
10
274.11017783477484
20
-185.74718491448894
30
0
0
SPLINE
5
414
100
AcDbEntity
8
0
100
AcDbSpline
70
0
71
3
72
10
73
6
74
0
42
0.000000001
43
0.0000000001
44
0.0000000001
40
0
40
0
40
0
40
0
40
0.14602561846753262
40
0.14602561846753262
40
0.29989067891736165
40
0.29989067891736165
40
0.29989067891736165
40
0.29989067891736165
10
274.11017783477473
20
-185.74718491448891
30
0
10
273.7116952088727
20
-185.46765107702805
30
0
10
273.32006649903042
20
-185.14803133861662
30
0
10
272.56904296578756
20
-184.4989396156956
30
0
10
272.18230028026863
20
-184.14375264047521
30
0
10
271.78973388671875
20
-183.78321713426121
30
0
0
LINE
5
415
100
AcDbEntity
8
0
100
AcDbLine
10
271.78973388671881
20
-183.78321713426121
30
0
11
262.5726701692783
21
-175.31820640543958
31
0
0
LINE
5
416
100
AcDbEntity
8
0
100
AcDbLine
10
262.5726701692783
20
-175.31820640543958
30
0
11
261.26343441009521
21
-174.29109107837075
31
0
0
LINE
5
417
100
AcDbEntity
8
0
100
AcDbLine
10
261.26343441009521
20
-174.29109107837075
30
0
11
260.56079266632531
21
-173.67984225228992
31
0
0
LINE
5
418
100
AcDbEntity
8
0
100
AcDbLine
10
260.56079266632531
20
-173.67984225228992
30
0
11
259.73241008352409
21
-172.0808936656191
31
0
0
LINE
5
419
100
AcDbEntity
8
0
100
AcDbLine
10
259.73241008352409
20
-172.0808936656191
30
0
11
253.7602240570663
21
-162.41318614755201
31
0
0
LINE
5
420
100
AcDbEntity
8
0
100
AcDbLine
10
253.7602240570663
20
-162.41318614755201
30
0
11
251.42626233191766
21
-153.59857766138757
31
0
0
LINE
5
421
100
AcDbEntity
8
0
100
AcDbLine
10
251.42626233191766
20
-153.59857766138757
30
0
11
251.1691268074276
21
-152.9536273447136
31
0
0
LINE
5
422
100
AcDbEntity
8
0
100
AcDbLine
10
251.1691268074276
20
-152.9536273447136
30
0
11
250.73713016510013
21
-149.96470295812759
31
0
0
SPLINE
5
423
100
AcDbEntity
8
0
100
AcDbSpline
70
0
71
3
72
10
73
6
74
0
42
0.000000001
43
0.0000000001
44
0.0000000001
40
-0.27864513216137488
40
-0.27864513216137488
40
-0.27864513216137488
40
-0.27864513216137488
40
-0.13878189294515306
40
-0.13878189294515306
40
-0.064523415245279103
40
-0.064523415245279103
40
-0.064523415245279103
40
-0.064523415245279103
10
236.80886643435443
20
-152.64251973248503
30
0
10
237.05605380149265
20
-153.05873386407725
30
0
10
237.3324190715542
20
-153.59126381934649
30
0
10
237.64201606134503
20
-154.2202000828633
30
0
10
237.73779794253596
20
-154.42248618792183
30
0
10
237.82950855977575
20
-154.62942681380576
30
0
0
SPLINE
5
424
100
AcDbEntity
8
0
100
AcDbSpline
70
0
71
3
72
10
73
6
74
0
42
0.000000001
43
0.0000000001
44
0.0000000001
40
-0.55540583169047375
40
-0.55540583169047375
40
-0.55540583169047375
40
-0.55540583169047375
40
-0.28258931564802231
40
-0.28258931564802231
40
0
40
0
40
0
40
0
10
233.5112118212528
20
-149.34785154355995
30
0
10
234.12581567230751
20
-149.7117399565841
30
0
10
234.68981982228917
20
-150.16886191222346
30
0
10
235.72211750508674
20
-151.18416822475146
30
0
10
236.29655828846936
20
-151.85205324540425
30
0
10
236.80886643435434
20
-152.64251973248506
30
0
0
SPLINE
5
425
100
AcDbEntity
8
0
100
AcDbSpline
70
0
71
3
72
10
73
6
74
0
42
0.000000001
43
0.0000000001
44
0.0000000001
40
-0.31649912884010734
40
-0.31649912884010734
40
-0.31649912884010734
40
-0.31649912884010734
40
-0.17013069085097196
40
-0.17013069085097196
40
0
40
0
40
0
40
0
10
222.48504638671875
20
-147.10726706792559
30
0
10
224.6596569805551
20
-147.00480218720213
30
0
10
226.56079277757391
20
-146.86838983145697
30
0
10
230.9575443032179
20
-147.77443586657577
30
0
10
233.03052663710451
20
-149.04694163075735
30
0
10
233.51121182125283
20
-149.34785154355995
30
0
0
SPLINE
5
426
100
AcDbEntity
8
0
100
AcDbSpline
70
0
71
3
72
10
73
6
74
0
42
0.000000001
43
0.0000000001
44
0.0000000001
40
-0.032257850085695317
40
-0.032257850085695317
40
-0.032257850085695317
40
-0.032257850085695317
40
-0.016128928983566011
40
-0.016128928983566011
40
0
40
0
40
0
40
0
10
222.16282372288703
20
-147.12209869055872
30
0
10
222.21653263104406
20
-147.11968602536305
30
0
10
222.2702327395925
20
-147.11724352728362
30
0
10
222.37764516746768
20
-147.11229893279159
30
0
10
222.43134287263626
20
-147.10979750909075
30
0
10
222.48504638671875
20
-147.10726706792556
30
0
0
SPLINE
5
427
100
AcDbEntity
8
0
100
AcDbSpline
70
0
71
3
72
10
73
6
74
0
42
0.000000001
43
0.0000000001
44
0.0000000001
40
-1.6454785722086231
40
-1.6454785722086231
40
-1.6454785722086231
40
-1.6454785722086231
40
-0.48340112869967239
40
-0.48340112869967239
40
0
40
0
40
0
40
0
10
212.54284585515825
20
-147.12209869055874
30
0
10
213.31732644276821
20
-147.17030045848645
30
0
10
213.99428634788416
20
-147.19824499667004
30
0
10
219.04732266766138
20
-147.15818654897544
30
0
10
220.55158861788021
20
-147.14022801105949
30
0
10
222.162823722887
20
-147.12209869055872
30
0
0
LINE
5
428
100
AcDbEntity
8
0
100
AcDbLine
10
212.48504638671875
20
-147.10726706792556
30
0
11
212.54284585515825
21
-147.12209869055874
31
0
0
LINE
5
429
100
AcDbEntity
8
0
100
AcDbLine
10
212.48504638671875
20
-147.10726706792556
30
0
11
212.05286187321798
21
-146.99617513348437
31
0
0
LINE
5
430
100
AcDbEntity
8
0
100
AcDbLine
10
212.05286187321798
20
-146.99617513348437
30
0
11
201.95874691009521
21
-145.5008086071133
31
0
0
LINE
5
431
100
AcDbEntity
8
0
100
AcDbLine
10
201.95874691009521
20
-145.5008086071133
30
0
11
193.89074872546328
21
-144.12777719433788
31
0
0
LINE
5
432
100
AcDbEntity
8
0
100
AcDbLine
10
193.89074872546328
20
-144.12777719433788
30
0
11
191.4324426651001
21
-143.93806480788203
31
0
0
LINE
5
433
100
AcDbEntity
8
0
100
AcDbLine
10
191.4324426651001
20
-143.93806480788203
30
0
11
187.24400578016628
21
-143.46750856297172
31
0
0
LINE
5
434
100
AcDbEntity
8
0
100
AcDbLine
10
187.24400578016628
20
-143.46750856297172
30
0
11
180.90614318847656
21
-141.87970888744215
31
0
0
LINE
5
435
100
AcDbEntity
8
0
100
AcDbLine
10
180.90614318847656
20
-141.87970888744215
30
0
11
170.49987894351531
21
-140.42690606748488
31
0
0
LINE
5
436
100
AcDbEntity
8
0
100
AcDbLine
10
170.49987894351531
20
-140.42690606748488
30
0
11
170.3797435760498
21
-140.37205132083466
31
0
0
LINE
5
437
100
AcDbEntity
8
0
100
AcDbLine
10
170.3797435760498
20
-140.37205132083466
30
0
11
169.85184787295989
21
-140.40507579839607
31
0
0
LINE
5
438
100
AcDbEntity
8
0
100
AcDbLine
10
169.85184787295989
20
-140.40507579839607
30
0
11
165.22295077578303
21
-140.93744547733823
31
0
0
LINE
5
439
100
AcDbEntity
8
0
100
AcDbLine
10
165.22295077578303
20
-140.93744547733823
30
0
11
164.30332803193039
21
-143.07064559428568
31
0
0
LINE
5
440
100
AcDbEntity
8
0
100
AcDbLine
10
164.30332803193039
20
-143.07064559428568
30
0
11
164.63869772452261
21
-146.63423766031917
31
0
0
LINE
5
441
100
AcDbEntity
8
0
100
AcDbLine
10
164.63869772452261
20
-146.63423766031917
30
0
11
164.81538232054928
21
-150.50149694190725
31
0
0
LINE
5
442
100
AcDbEntity
8
0
100
AcDbLine
10
164.81538232054928
20
-150.50149694190725
30
0
11
170.3797435760498
21
-157.92734042390052
31
0
0
LINE
5
443
100
AcDbEntity
8
0
100
AcDbLine
10
170.3797435760498
20
-157.92734042390052
30
0
11
170.56620546968674
21
-158.43929277130943
31
0
0
LINE
5
444
100
AcDbEntity
8
0
100
AcDbLine
10
170.56620546968674
20
-158.43929277130943
30
0
11
180.90614318847656
21
-166.79134139873244
31
0
0
LINE
5
445
100
AcDbEntity
8
0
100
AcDbLine
10
180.90614318847656
20
-166.79134139873244
30
0
11
182.3851814105457
21
-167.97028409888969
31
0
0
LINE
5
446
100
AcDbEntity
8
0
100
AcDbLine
10
182.3851814105457
20
-167.97028409888969
30
0
11
191.4324426651001
21
-171.31224856419411
31
0
0
LINE
5
447
100
AcDbEntity
8
0
100
AcDbLine
10
191.4324426651001
20
-171.31224856419411
30
0
11
195.08369338705367
21
-172.16780242695251
31
0
0
LINE
5
448
100
AcDbEntity
8
0
100
AcDbLine
10
195.08369338705367
20
-172.16780242695251
30
0
11
201.95874691009521
21
-174.93727419412488
31
0
0
LINE
5
449
100
AcDbEntity
8
0
100
AcDbLine
10
201.95874691009521
20
-174.93727419412488
30
0
11
208.28934371320014
21
-176.37072685729777
31
0
0
LINE
5
450
100
AcDbEntity
8
0
100
AcDbLine
10
208.28934371320014
20
-176.37072685729777
30
0
11
212.48504638671875
21
-178.24134079512481
31
0
0
SPLINE
5
451
100
AcDbEntity
8
0
100
AcDbSpline
70
0
71
3
72
16
73
12
74
0
42
0.000000001
43
0.0000000001
44
0.0000000001
40
-1.1986672404829339
40
-1.1986672404829339
40
-1.1986672404829339
40
-1.1986672404829339
40
-0.93156541724505404
40
-0.93156541724505404
40
-0.72454207644894064
40
-0.72454207644894064
40
-0.57477572055078852
40
-0.57477572055078852
40
-0.38792153976153454
40
-0.38792153976153454
40
0
40
0
40
0
40
0
10
222.48504638671875
20
-178.24134079512481
30
0
10
221.67749385695444
20
-178.71050804514692
30
0
10
221.00104819068144
20
-179.13805740085212
30
0
10
219.76493667885893
20
-179.69747127171399
30
0
10
219.23196908259555
20
-179.86552621656242
30
0
10
218.22206413102973
20
-179.98376694529284
30
0
10
217.80136413665815
20
-179.97721096977156
30
0
10
216.85108914009589
20
-179.86715450343891
30
0
10
216.32546131313049
20
-179.74024183445329
30
0
10
214.77223287626114
20
-179.26106103239312
30
0
10
213.66605764312422
20
-178.76788337663476
30
0
10
212.48504638671875
20
-178.24134079512481
30
0
0
SPLINE
5
452
100
AcDbEntity
8
0
100
AcDbSpline
70
0
71
3
72
18
73
14
74
0
42
0.000000001
43
0.0000000001
44
0.0000000001
40
-0.7757682438527127
40
-0.7757682438527127
40
-0.7757682438527127
40
-0.7757682438527127
40
-0.7700016659011526
40
-0.7700016659011526
40
-0.70650276588153071
40
-0.70650276588153071
40
-0.54560631347327215
40
-0.54560631347327215
40
-0.20781867143302246
40
-0.20781867143302246
40
-0.11156613652110643
40
-0.11156613652110643
40
0
40
0
40
0
40
0
10
238.80317706057909
20
-179.0237138459369
30
0
10
238.75526085040903
20
-179.01749042868434
30
0
10
238.70766882972489
20
-179.01124490208278
30
0
10
238.1411368499862
20
-178.9362152548652
30
0
10
237.59920351296856
20
-178.85746411190433
30
0
10
235.77257746168885
20
-178.58158876189526
30
0
10
234.40188051255191
20
-178.3546988050889
30
0
10
230.33402541404854
20
-177.72202659753827
30
0
10
227.80229284408358
20
-177.38777112704068
30
0
10
225.0968889012083
20
-177.52193519144652
30
0
10
224.47845931436404
20
-177.58998673952561
30
0
10
223.21745277470563
20
-177.87487480738847
30
0
10
222.80660429309651
20
-178.05452392179748
30
0
10
222.48504638671875
20
-178.24134079512481
30
0
0
ARC
5
453
100
AcDbEntity
8
0
100
AcDbCircle
10
262.48504638674478
20
-171.01315307616179
30
0
40
25.000000372556919
210
0
220
0
230
1
100
AcDbArc
50
198.6884733367431
51
202.09256225462792
0
ARC
5
454
100
AcDbEntity
8
0
100
AcDbCircle
10
262.48504638674478
20
-171.01315307616179
30
0
40
25.000000372556919
210
0
220
0
230
1
100
AcDbArc
50
202.09256225462792
51
210.00000147876898
0
LINE
5
455
100
AcDbEntity
8
0
100
AcDbLine
10
240.83441129210766
20
-183.51315382122974
30
0
11
240.83441129210766
21
-176.11315307617187
31
0
0
LINE
5
456
100
AcDbEntity
8
0
100
AcDbLine
10
240.83441129210766
20
-176.11315307617187
30
0
11
246.33367260613866
21
-179.28815307617188
31
0
0
LINE
5
457
100
AcDbEntity
8
0
100
AcDbLine
10
246.33367260613866
20
-179.28815307617188
30
0
11
246.33367260613866
21
-162.73815307617187
31
0
0
LINE
5
458
100
AcDbEntity
8
0
100
AcDbLine
10
246.33367260613866
20
-162.73815307617187
30
0
11
240.83441129210766
21
-165.91315307617185
31
0
0
LINE
5
459
100
AcDbEntity
8
0
100
AcDbLine
10
240.83441129210766
20
-165.91315307617185
30
0
11
240.83441129210766
21
-158.51315233111404
31
0
0
ARC
5
460
100
AcDbEntity
8
0
100
AcDbCircle
10
262.48504638674478
20
-171.01315307616179
30
0
40
25.000000372546513
210
0
220
0
230
1
100
AcDbArc
50
149.99999852127115
51
154.96261221043878
0
ARC
5
461
100
AcDbEntity
8
0
100
AcDbCircle
10
262.48504638674478
20
-171.01315307616179
30
0
40
25.000000372548325
210
0
220
0
230
1
100
AcDbArc
50
154.96261221043878
51
156.31303356479015
0
SPLINE
5
462
100
AcDbEntity
8
0
100
AcDbSpline
70
0
71
3
72
10
73
6
74
0
42
0.000000001
43
0.0000000001
44
0.0000000001
40
-0.26110769381417587
40
-0.26110769381417587
40
-0.26110769381417587
40
-0.26110769381417587
40
-0.11929867697081528
40
-0.11929867697081528
40
-0.020473353968566463
40
-0.020473353968566463
40
-0.020473353968566463
40
-0.020473353968566463
10
238.858179596615
20
-158.64932741230913
30
0
10
238.9794207670821
20
-159.10673698598646
30
0
10
239.11332320778499
20
-159.57313865477209
30
0
10
239.35953742450974
20
-160.33772911742977
30
0
10
239.47094740100809
20
-160.65913040403206
30
0
10
239.5911959412646
20
-160.96966611159476
30
0
0
SPLINE
5
463
100
AcDbEntity
8
0
100
AcDbSpline
70
0
71
3
72
10
73
6
74
0
42
0.000000001
43
0.0000000001
44
0.0000000001
40
-0.44600676358208435
40
-0.44600676358208435
40
-0.44600676358208435
40
-0.44600676358208435
40
-0.25543467944042419
40
-0.25543467944042419
40
0
40
0
40
0
40
0
10
237.82950855977577
20
-154.62942681380579
30
0
10
237.9186862564805
20
-155.01906526330612
30
0
10
238.01976063069193
20
-155.43673176209182
30
0
10
238.32736909346735
20
-156.66398163449014
30
0
10
238.62672797395567
20
-157.82994018439643
30
0
10
238.858179596615
20
-158.64932741230919
30
0
0
ARC
5
464
100
AcDbEntity
8
0
100
AcDbCircle
10
262.48504638674478
20
-171.01315307616179
30
0
40
25.000000372556919
210
0
220
0
230
1
100
AcDbArc
50
198.6884733367431
51
202.09256225462792
0
SPLINE
5
465
100
AcDbEntity
8
0
100
AcDbSpline
70
0
71
3
72
14
73
10
74
0
42
0.000000001
43
0.0000000001
44
0.0000000001
40
0
40
0
40
0
40
0
40
0.85865579921278812
40
0.85865579921278812
40
1.2620260543719863
40
1.2620260543719863
40
1.4599351201201678
40
1.4599351201201678
40
1.6785319636688008
40
1.6785319636688008
40
1.6785319636688008
40
1.6785319636688008
10
238.80317706040267
20
-179.0237138472952
30
0
10
235.96483116866384
20
-178.6550659361057
30
0
10
232.35658482787051
20
-177.96108105454317
30
0
10
228.00612672719242
20
-177.49952705406162
30
0
10
226.65641485226328
20
-177.424053641585
30
0
10
224.83775727989266
20
-177.54846654815677
30
0
10
224.21908523920851
20
-177.63130356602329
30
0
10
223.00478387944625
20
-177.95187811518034
30
0
10
222.81125626215606
20
-178.05182124741978
30
0
10
222.48504638671875
20
-178.24134079512481
30
0
0
SPLINE
5
466
100
AcDbEntity
8
0
100
AcDbSpline
70
0
71
3
72
12
73
8
74
0
42
0.000000001
43
0.0000000001
44
0.0000000001
40
0
40
0
40
0
40
0
40
0.40395890125502049
40
0.40395890125502049
40
0.64128362745273149
40
0.64128362745273149
40
1.0985550946395826
40
1.0985550946395826
40
1.0985550946395826
40
1.0985550946395826
10
222.48504638671875
20
-178.24134079512487
30
0
10
221.32074884446538
20
-178.9177677221335
30
0
10
220.40468064707639
20
-179.52209495262491
30
0
10
218.70933072354501
20
-179.96815261025495
30
0
10
218.04958125265529
20
-180.01635071364723
30
0
10
215.81251376416247
20
-179.72486032409353
30
0
10
214.23399510812868
20
-179.02109286751622
30
0
10
212.48504638671875
20
-178.24134079512481
30
0
0
LINE
5
467
100
AcDbEntity
8
0
100
AcDbLine
10
212.48504638671875
20
-178.24134079512481
30
0
11
208.28934371320014
21
-176.37072685729777
31
0
0
LINE
5
468
100
AcDbEntity
8
0
100
AcDbLine
10
208.28934371320014
20
-176.37072685729777
30
0
11
201.95874691009521
21
-174.93727419412488
31
0
0
LINE
5
469
100
AcDbEntity
8
0
100
AcDbLine
10
201.95874691009521
20
-174.93727419412488
30
0
11
195.08369338705367
21
-172.16780242695251
31
0
0
LINE
5
470
100
AcDbEntity
8
0
100
AcDbLine
10
195.08369338705367
20
-172.16780242695251
30
0
11
191.4324426651001
21
-171.31224856419411
31
0
0
LINE
5
471
100
AcDbEntity
8
0
100
AcDbLine
10
191.4324426651001
20
-171.31224856419411
30
0
11
182.3851814105457
21
-167.97028409888969
31
0
0
LINE
5
472
100
AcDbEntity
8
0
100
AcDbLine
10
182.3851814105457
20
-167.97028409888969
30
0
11
180.90614318847656
21
-166.79134139873244
31
0
0
LINE
5
473
100
AcDbEntity
8
0
100
AcDbLine
10
180.90614318847656
20
-166.79134139873244
30
0
11
170.56620546968674
21
-158.43929277130943
31
0
0
LINE
5
474
100
AcDbEntity
8
0
100
AcDbLine
10
170.56620546968674
20
-158.43929277130943
30
0
11
170.3797435760498
21
-157.92734042390052
31
0
0
LINE
5
475
100
AcDbEntity
8
0
100
AcDbLine
10
170.3797435760498
20
-157.92734042390052
30
0
11
164.81538232054928
21
-150.50149694190725
31
0
0
LINE
5
476
100
AcDbEntity
8
0
100
AcDbLine
10
164.81538232054928
20
-150.50149694190725
30
0
11
164.63869772452261
21
-146.63423766031917
31
0
0
LINE
5
477
100
AcDbEntity
8
0
100
AcDbLine
10
164.63869772452261
20
-146.63423766031917
30
0
11
164.30332803193039
21
-143.07064559428568
31
0
0
LINE
5
478
100
AcDbEntity
8
0
100
AcDbLine
10
164.30332803193039
20
-143.07064559428568
30
0
11
165.22295077578303
21
-140.93744547733823
31
0
0
LINE
5
479
100
AcDbEntity
8
0
100
AcDbLine
10
165.22295077578303
20
-140.93744547733823
30
0
11
159.85304832458496
21
-141.55503821787221
31
0
0
LINE
5
480
100
AcDbEntity
8
0
100
AcDbLine
10
159.85304832458496
20
-141.55503821787221
30
0
11
155.35354609085527
21
-140.85227725116124
31
0
0
LINE
5
481
100
AcDbEntity
8
0
100
AcDbLine
10
155.35354609085527
20
-140.85227725116124
30
0
11
154.83432856969816
21
-139.88960047319102
31
0
0
LINE
5
482
100
AcDbEntity
8
0
100
AcDbLine
10
154.83432856969816
20
-139.88960047319102
30
0
11
153.81060848579779
21
-138.87189695264379
31
0
0
LINE
5
483
100
AcDbEntity
8
0
100
AcDbLine
10
153.81060848579779
20
-138.87189695264379
30
0
11
152.72746360182489
21
-140.2001058589864
31
0
0
LINE
5
484
100
AcDbEntity
8
0
100
AcDbLine
10
152.72746360182489
20
-140.2001058589864
30
0
11
150.13452544883893
21
-142.82366861560524
31
0
0
LINE
5
485
100
AcDbEntity
8
0
100
AcDbLine
10
150.13452544883893
20
-142.82366861560524
30
0
11
149.99331261744967
21
-143.20735656461579
31
0
0
LINE
5
486
100
AcDbEntity
8
0
100
AcDbLine
10
149.99331261744967
20
-143.20735656461579
30
0
11
149.32703971862793
21
-144.36290566762386
31
0
0
LINE
5
487
100
AcDbEntity
8
0
100
AcDbLine
10
149.32703971862793
20
-144.36290566762386
30
0
11
147.76110323930934
21
-147.43008869753587
31
0
0
LINE
5
488
100
AcDbEntity
8
0
100
AcDbLine
10
147.76110323930934
20
-147.43008869753587
30
0
11
147.23064171308965
21
-148.16334486108531
31
0
0
LINE
5
489
100
AcDbEntity
8
0
100
AcDbLine
10
147.23064171308965
20
-148.16334486108531
30
0
11
146.92125926543488
21
-153.13273027310774
31
0
0
LINE
5
490
100
AcDbEntity
8
0
100
AcDbLine
10
146.92125926543488
20
-153.13273027310774
30
0
11
146.49740801477958
21
-154.52643002506247
31
0
0
LINE
5
491
100
AcDbEntity
8
0
100
AcDbLine
10
146.49740801477958
20
-154.52643002506247
30
0
11
149.32703971862793
21
-158.21052278681864
31
0
0
LINE
5
492
100
AcDbEntity
8
0
100
AcDbLine
10
149.32703971862793
20
-158.21052278681864
30
0
11
151.95937287654098
21
-161.19496746593487
31
0
0
LINE
5
493
100
AcDbEntity
8
0
100
AcDbLine
10
151.95937287654098
20
-161.19496746593487
30
0
11
159.85304832458496
21
-164.69217424023768
31
0
0
LINE
5
494
100
AcDbEntity
8
0
100
AcDbLine
10
159.85304832458496
20
-164.69217424023768
30
0
11
166.52030673655688
21
-168.41174428840509
31
0
0
LINE
5
495
100
AcDbEntity
8
0
100
AcDbLine
10
166.52030673655688
20
-168.41174428840509
30
0
11
170.3797435760498
21
-169.62674900088845
31
0
0
LINE
5
496
100
AcDbEntity
8
0
100
AcDbLine
10
170.3797435760498
20
-169.62674900088845
30
0
11
172.47407661503416
21
-170.1651324216611
31
0
0
LINE
5
497
100
AcDbEntity
8
0
100
AcDbLine
10
172.47407661503416
20
-170.1651324216611
30
0
11
180.90614318847656
21
-173.03727229008155
31
0
0
LINE
5
498
100
AcDbEntity
8
0
100
AcDbLine
10
180.90614318847656
20
-173.03727229008155
30
0
11
187.175157827383
21
-174.51575156578986
31
0
0
LINE
5
499
100
AcDbEntity
8
0
100
AcDbLine
10
187.175157827383
20
-174.51575156578986
30
0
11
191.4324426651001
21
-176.0883484264329
31
0
0
LINE
5
500
100
AcDbEntity
8
0
100
AcDbLine
10
191.4324426651001
20
-176.0883484264329
30
0
11
200.17698386341925
21
-178.13735206107484
31
0
0
LINE
5
501
100
AcDbEntity
8
0
100
AcDbLine
10
200.17698386341925
20
-178.13735206107484
30
0
11
201.95874691009521
21
-178.85509810290884
31
0
0
LINE
5
502
100
AcDbEntity
8
0
100
AcDbLine
10
201.95874691009521
20
-178.85509810290884
30
0
11
211.84498472487022
21
-181.09366333855917
31
0
0
LINE
5
503
100
AcDbEntity
8
0
100
AcDbLine
10
211.84498472487022
20
-181.09366333855917
30
0
11
212.48504638671875
21
-181.37902871329831
31
0
0
SPLINE
5
504
100
AcDbEntity
8
0
100
AcDbSpline
70
0
71
3
72
8
73
4
74
0
42
0.000000001
43
0.0000000001
44
0.0000000001
40
-0.069194993963377444
40
-0.069194993963377444
40
-0.069194993963377444
40
-0.069194993963377444
40
0
40
0
40
0
40
0
10
212.48504638671875
20
-181.37902871329831
30
0
10
212.70130885321893
20
-181.47544726712422
30
0
10
212.91479926401917
20
-181.57062992640934
30
0
10
213.1257458314642
20
-181.66390885704669
30
0
0
SPLINE
5
505
100
AcDbEntity
8
0
100
AcDbSpline
70
0
71
3
72
14
73
10
74
0
42
0.000000001
43
0.0000000001
44
0.0000000001
40
-0.9140958282511874
40
-0.9140958282511874
40
-0.9140958282511874
40
-0.9140958282511874
40
-0.68393179066569054
40
-0.68393179066569054
40
-0.49389055768017387
40
-0.49389055768017387
40
-0.2721130071742584
40
-0.2721130071742584
40
0
40
0
40
0
40
0
10
213.12574583146426
20
-181.66390885704669
30
0
10
213.82598325539988
20
-181.80263858926284
30
0
10
214.64782113101353
20
-181.96159374508855
30
0
10
216.01844452789618
20
-182.17892859307705
30
0
10
216.65871367679813
20
-182.26212533445454
30
0
10
218.02518003980998
20
-182.35525253981456
30
0
10
218.75113279224237
20
-182.35131201915033
30
0
10
220.40520095433703
20
-182.14649951219155
30
0
10
221.18741233310814
20
-181.92270462349623
30
0
10
222.05675254452984
20
-181.66390885704669
30
0
0
SPLINE
5
506
100
AcDbEntity
8
0
100
AcDbSpline
70
0
71
3
72
8
73
4
74
0
42
0.000000001
43
0.0000000001
44
0.0000000001
40
-0.052023658136119741
40
-0.052023658136119741
40
-0.052023658136119741
40
-0.052023658136119741
40
0
40
0
40
0
40
0
10
222.05675254452981
20
-181.66390885704669
30
0
10
222.1850351817086
20
-181.57830370561777
30
0
10
222.34032934321425
20
-181.47457329071307
30
0
10
222.48504638671875
20
-181.37902871329831
30
0
0
SPLINE
5
507
100
AcDbEntity
8
0
100
AcDbSpline
70
0
71
3
72
14
73
10
74
0
42
0.000000001
43
0.0000000001
44
0.0000000001
40
-1.5533143624270493
40
-1.5533143624270493
40
-1.5533143624270493
40
-1.5533143624270493
40
-1.4159368000366896
40
-1.4159368000366896
40
-1.2551036734231333
40
-1.2551036734231333
40
-0.73995343627264232
40
-0.73995343627264232
40
-0.049653904168490665
40
-0.049653904168490665
40
-0.049653904168490665
40
-0.049653904168490665
10
222.48504638671875
20
-181.37902871329831
30
0
10
222.70941621972321
20
-181.23089605138159
30
0
10
222.85559769085165
20
-181.13950004820612
30
0
10
223.79839713084027
20
-180.74417760791275
30
0
10
224.35811140358112
20
-180.58208468406971
30
0
10
226.64633550846537
20
-180.07028614145426
30
0
10
228.67780775339429
20
-179.99371221614635
30
0
10
233.40723094882497
20
-180.05916874767314
30
0
10
236.86743970539624
20
-180.3036908960388
30
0
10
239.32060949353945
20
-180.41575282562235
30
0
0
LINE
5
508
100
AcDbEntity
8
0
100
AcDbLine
10
129.07167960448965
20
-165.78844926559239
30
0
11
125.29528455135409
21
-162.33541471980172
31
0
0
LINE
5
509
100
AcDbEntity
8
0
100
AcDbLine
10
125.29528455135409
20
-162.33541471980172
30
0
11
126.59772260936892
21
-166.27176756576569
31
0
0
LINE
5
510
100
AcDbEntity
8
0
100
AcDbLine
10
126.59772260936892
20
-166.27176756576569
30
0
11
127.15760840950679
21
-168.95913703289239
31
0
0
LINE
5
511
100
AcDbEntity
8
0
100
AcDbLine
10
127.15760840950679
20
-168.95913703289239
30
0
11
130.27351379394531
21
-176.12059469803688
31
0
0
SPLINE
5
512
100
AcDbEntity
8
0
100
AcDbSpline
70
0
71
3
72
8
73
4
74
0
42
0.000000001
43
0.0000000001
44
0.0000000001
40
-0.27204691999171321
40
-0.27204691999171321
40
-0.27204691999171321
40
-0.27204691999171321
40
0
40
0
40
0
40
0
10
131.32297057785541
20
-178.25817673247769
30
0
10
130.95423836096683
20
-177.68514161678962
30
0
10
130.6353053979258
20
-176.95212034976259
30
0
10
130.27351379394531
20
-176.12059469803688
30
0
0
SPLINE
5
513
100
AcDbEntity
8
0
100
AcDbSpline
70
0
71
3
72
16
73
12
74
0
42
0.000000001
43
0.0000000001
44
0.0000000001
40
-0.59674814931269915
40
-0.59674814931269915
40
-0.59674814931269915
40
-0.59674814931269915
40
-0.43865410698740626
40
-0.43865410698740626
40
-0.32926836515575097
40
-0.32926836515575097
40
-0.22200257010394461
40
-0.22200257010394461
40
-0.12802414685953423
40
-0.12802414685953423
40
0
40
0
40
0
40
0
10
136.90028841347936
20
-178.25817673247766
30
0
10
136.34947549737754
20
-178.50488219607973
30
0
10
135.82756423792489
20
-178.72897875104158
30
0
10
134.99538878551817
20
-179.02687416518569
30
0
10
134.63430012921563
20
-179.13823798582189
30
0
10
133.92738429023854
20
-179.2801943733744
30
0
10
133.56641889121607
20
-179.31563563067087
30
0
10
132.89675737240626
20
-179.25441050346728
30
0
10
132.601509974561
20
-179.17514260239301
30
0
10
131.93390448995984
20
-178.85144137868764
30
0
10
131.60892689394555
20
-178.57494497680094
30
0
10
131.32297057785544
20
-178.25817673247766
30
0
0
SPLINE
5
514
100
AcDbEntity
8
0
100
AcDbSpline
70
0
71
3
72
8
73
4
74
0
42
0.000000001
43
0.0000000001
44
0.0000000001
40
-0.36496224580660386
40
-0.36496224580660386
40
-0.36496224580660386
40
-0.36496224580660386
40
0
40
0
40
0
40
0
10
140.27351379394531
20
-176.12059469803685
30
0
10
139.07532169499677
20
-176.90200624492891
30
0
10
137.95489010252854
20
-177.65172241217613
30
0
10
136.90028841347936
20
-178.25817673247766
30
0
0
SPLINE
5
515
100
AcDbEntity
8
0
100
AcDbSpline
70
0
71
3
72
12
73
8
74
0
42
0.000000001
43
0.0000000001
44
0.0000000001
40
-0.27109816759768163
40
-0.27109816759768163
40
-0.27109816759768163
40
-0.27109816759768163
40
-0.11403587113156474
40
-0.11403587113156474
40
-0.033704046880920192
40
-0.033704046880920192
40
0
40
0
40
0
40
0
10
143.84657307303897
20
-171.60934601299454
30
0
10
143.29792057204068
20
-172.57454147846141
30
0
10
142.63833774432996
20
-173.65418799764785
30
0
10
141.56974096043476
20
-174.99467059530667
30
0
10
141.15234273061481
20
-175.45184298786364
30
0
10
140.51107889401067
20
-175.96577904230475
30
0
10
140.36761733317456
20
-176.05922424481685
30
0
10
140.27351379394531
20
-176.12059469803688
30
0
0
SPLINE
5
516
100
AcDbEntity
8
0
100
AcDbSpline
70
0
71
3
72
10
73
6
74
0
42
0.000000001
43
0.0000000001
44
0.0000000001
40
-0.67347117511966048
40
-0.67347117511966048
40
-0.67347117511966048
40
-0.67347117511966048
40
-0.35168228324863654
40
-0.35168228324863654
40
0
40
0
40
0
40
0
10
145.07173308275333
20
-164.94261322328373
30
0
10
144.95723806720446
20
-166.01434904317617
30
0
10
144.80695859876857
20
-167.10594495380136
30
0
10
144.41976799785903
20
-169.31496294566404
30
0
10
144.16642347664916
20
-170.4815505080434
30
0
10
143.84657307303897
20
-171.60934601299448
30
0
0
SPLINE
5
517
100
AcDbEntity
8
0
100
AcDbSpline
70
0
71
3
72
10
73
6
74
0
42
0.000000001
43
0.0000000001
44
0.0000000001
40
-0.57365693544056051
40
-0.57365693544056051
40
-0.57365693544056051
40
-0.57365693544056051
40
-0.26711565875673809
40
-0.26711565875673809
40
-0.044711954415206798
40
-0.044711954415206798
40
-0.044711954415206798
40
-0.044711954415206798
10
140.92682743797442
20
-166.54529271134319
30
0
10
141.71254762062489
20
-166.1562548226411
30
0
10
142.41833737216967
20
-165.88736922997873
30
0
10
143.48126476069874
20
-165.50833124721345
30
0
10
144.3234588364968
20
-165.22108922226403
30
0
10
145.0717330827533
20
-164.94261322328373
30
0
0
SPLINE
5
518
100
AcDbEntity
8
0
100
AcDbSpline
70
0
71
3
72
10
73
6
74
0
42
0.000000001
43
0.0000000001
44
0.0000000001
40
-0.072401342929570761
40
-0.072401342929570761
40
-0.072401342929570761
40
-0.072401342929570761
40
-0.039059670442725659
40
-0.039059670442725659
40
0
40
0
40
0
40
0
10
140.27351379394531
20
-166.72092382615978
30
0
10
140.32663214469397
20
-166.70473702435959
30
0
10
140.43968007466799
20
-166.6703433085342
30
0
10
140.67391579787375
20
-166.60550193260093
30
0
10
140.79982140902561
20
-166.57394969227556
30
0
10
140.92682743797437
20
-166.54529271134319
30
0
0
SPLINE
5
519
100
AcDbEntity
8
0
100
AcDbSpline
70
0
71
3
72
12
73
8
74
0
42
0.000000001
43
0.0000000001
44
0.0000000001
40
-1.1445871102868619
40
-1.1445871102868619
40
-1.1445871102868619
40
-1.1445871102868619
40
-0.71212270938731792
40
-0.71212270938731792
40
-0.42393196193042321
40
-0.42393196193042321
40
0
40
0
40
0
40
0
10
130.27351379394531
20
-166.72092382615978
30
0
10
131.26101872261719
20
-167.22605787034414
30
0
10
131.9578818914373
20
-167.58252121598298
30
0
10
133.37626110428437
20
-167.88159294641073
30
0
10
134.14471663998819
20
-167.95146804804492
30
0
10
137.0580668132605
20
-167.64994549208302
30
0
10
138.92177598864816
20
-167.13284007792191
30
0
10
140.27351379394534
20
-166.72092382615978
30
0
0
LINE
5
520
100
AcDbEntity
8
0
100
AcDbLine
10
130.27351379394531
20
-166.72092382615978
30
0
11
129.63731728620962
21
-166.39549303030475
31
0
0
LINE
5
521
100
AcDbEntity
8
0
100
AcDbLine
10
129.63731728620962
20
-166.39549303030475
30
0
11
129.07167960448965
21
-165.78844926559239
31
0
0
LINE
5
522
100
AcDbEntity
8
0
100
AcDbLine
10
126.59772260936892
20
-166.27176756576569
30
0
11
125.29528455135409
21
-162.33541471980172
31
0
0
LINE
5
523
100
AcDbEntity
8
0
100
AcDbLine
10
125.29528455135409
20
-162.33541471980172
30
0
11
123.94170420996826
21
-161.09773708980174
31
0
0
LINE
5
524
100
AcDbEntity
8
0
100
AcDbLine
10
123.94170420996826
20
-161.09773708980174
30
0
11
122.8961249205729
21
-158.72031374554163
31
0
0
LINE
5
525
100
AcDbEntity
8
0
100
AcDbLine
10
122.8961249205729
20
-158.72031374554163
30
0
11
122.26945561946577
21
-157.68108254605465
31
0
0
LINE
5
526
100
AcDbEntity
8
0
100
AcDbLine
10
122.26945561946577
20
-157.68108254605465
30
0
11
122.50450545535119
21
-158.89261069751964
31
0
0
LINE
5
527
100
AcDbEntity
8
0
100
AcDbLine
10
122.50450545535119
20
-158.89261069751964
30
0
11
122.74825290061017
21
-162.09583568914417
31
0
0
LINE
5
528
100
AcDbEntity
8
0
100
AcDbLine
10
122.74825290061017
20
-162.09583568914417
30
0
11
123.7707313919916
21
-165.18606796139593
31
0
0
LINE
5
529
100
AcDbEntity
8
0
100
AcDbLine
10
123.7707313919916
20
-165.18606796139593
30
0
11
124.76121625509187
21
-169.94024957859602
31
0
0
LINE
5
530
100
AcDbEntity
8
0
100
AcDbLine
10
124.76121625509187
20
-169.94024957859602
30
0
11
128.8736232411317
21
-179.39202198460424
31
0
0
LINE
5
531
100
AcDbEntity
8
0
100
AcDbLine
10
128.8736232411317
20
-179.39202198460424
30
0
11
129.32044090896315
21
-180.78347691351243
31
0
0
LINE
5
532
100
AcDbEntity
8
0
100
AcDbLine
10
129.32044090896315
20
-180.78347691351243
30
0
11
130.27351379394531
21
-182.29745483877957
31
0
0
SPLINE
5
533
100
AcDbEntity
8
0
100
AcDbSpline
70
0
71
3
72
18
73
14
74
0
42
0.000000001
43
0.0000000001
44
0.0000000001
40
-1.7527913221467628
40
-1.7527913221467628
40
-1.7527913221467628
40
-1.7527913221467628
40
-1.3208865685094549
40
-1.3208865685094549
40
-1.1541716899319323
40
-1.1541716899319323
40
-0.99285647221867679
40
-0.99285647221867679
40
-0.80961864344417767
40
-0.80961864344417767
40
-0.45306951155180081
40
-0.45306951155180081
40
0
40
0
40
0
40
0
10
130.27351379394531
20
-182.29745483877957
30
0
10
130.7691931016368
20
-183.08485267758243
30
0
10
131.27138278188983
20
-183.8825923910716
30
0
10
132.12013123018414
20
-184.66098310488607
30
0
10
132.38083573633932
20
-184.84983810718219
30
0
10
132.95359290501489
20
-185.11767642040806
30
0
10
133.24628838031225
20
-185.1920616516328
30
0
10
133.9093976346594
20
-185.23361249403777
30
0
10
134.26137971452042
20
-185.18301601907726
30
0
10
135.26496642443493
20
-184.921905863398
30
0
10
135.97977907556975
20
-184.58114848758976
30
0
10
137.7809508004944
20
-183.62227235532151
30
0
10
138.91360270496565
20
-182.95429700656328
30
0
10
140.27351379394531
20
-182.29745483877957
30
0
0
SPLINE
5
534
100
AcDbEntity
8
0
100
AcDbSpline
70
0
71
3
72
10
73
6
74
0
42
0.000000001
43
0.0000000001
44
0.0000000001
40
-0.16510638780515449
40
-0.16510638780515449
40
-0.16510638780515449
40
-0.16510638780515449
40
-0.098822983422531735
40
-0.098822983422531735
40
0
40
0
40
0
40
0
10
140.27351379394531
20
-182.29745483877957
30
0
10
140.36260712575461
20
-182.25442242462034
30
0
10
140.50490677958283
20
-182.18620143142226
30
0
10
140.9853390224157
20
-181.91754048656412
30
0
10
141.26877280552006
20
-181.73372136551467
30
0
10
141.53632771110264
20
-181.54156183753474
30
0
0
SPLINE
5
535
100
AcDbEntity
8
0
100
AcDbSpline
70
0
71
3
72
10
73
6
74
0
42
0.000000001
43
0.0000000001
44
0.0000000001
40
-0.75469580044213291
40
-0.75469580044213291
40
-0.75469580044213291
40
-0.75469580044213291
40
-0.37328246433291168
40
-0.37328246433291168
40
0
40
0
40
0
40
0
10
141.53632771110264
20
-181.54156183753472
30
0
10
142.6376358855631
20
-180.39506469701107
30
0
10
143.43447733905168
20
-179.0010014316652
30
0
10
144.57759697685253
20
-176.76006728707367
30
0
10
145.0939391150371
20
-175.62713497144279
30
0
10
145.61205106433556
20
-174.49586135831703
30
0
0
SPLINE
5
536
100
AcDbEntity
8
0
100
AcDbSpline
70
0
71
3
72
10
73
6
74
0
42
0.000000001
43
0.0000000001
44
0.0000000001
40
-0.72629859379952855
40
-0.72629859379952855
40
-0.72629859379952855
40
-0.72629859379952855
40
-0.37280400837640365
40
-0.37280400837640365
40
0
40
0
40
0
40
0
10
145.61205106433556
20
-174.49586135831703
30
0
10
145.83408258284754
20
-173.32418681357154
30
0
10
146.00694709494476
20
-172.14766890130576
30
0
10
146.28772345175682
20
-169.74227117991134
30
0
10
146.3982292128041
20
-168.45687479939372
30
0
10
146.46864794208554
20
-167.21619157859919
30
0
0
SPLINE
5
537
100
AcDbEntity
8
0
100
AcDbSpline
70
0
71
3
72
10
73
6
74
0
42
0.000000001
43
0.0000000001
44
0.0000000001
40
-0.55279396822460736
40
-0.55279396822460736
40
-0.55279396822460736
40
-0.55279396822460736
40
-0.24681514103594654
40
-0.24681514103594654
40
0
40
0
40
0
40
0
10
146.46864794208551
20
-167.21619157859919
30
0
10
146.44354737938446
20
-166.54893012710153
30
0
10
146.41340773262237
20
-165.86446244097684
30
0
10
146.32990044331603
20
-163.61240643636745
30
0
10
146.30642847434862
20
-162.89589226512277
30
0
10
146.27100511352768
20
-162.07393808594347
30
0
0
SPLINE
5
538
100
AcDbEntity
8
0
100
AcDbSpline
70
0
71
3
72
12
73
8
74
0
42
0.000000001
43
0.0000000001
44
0.0000000001
40
-0.25368766037611751
40
-0.25368766037611751
40
-0.25368766037611751
40
-0.25368766037611751
40
-0.19730045008914299
40
-0.19730045008914299
40
-0.14719791234978338
40
-0.14719791234978338
40
0
40
0
40
0
40
0
10
146.27100511352768
20
-162.07393808594347
30
0
10
146.21201850492864
20
-162.27047465387571
30
0
10
146.14957964413071
20
-162.47109045556033
30
0
10
146.01978144147196
20
-163.0126269092456
30
0
10
145.97076709846201
20
-163.26820802415631
30
0
10
145.78805022186037
20
-164.15967632246299
30
0
10
145.72297911924528
20
-164.33732978963837
30
0
10
145.50829914301534
20
-164.77853207509975
30
0
0
SPLINE
5
539
100
AcDbEntity
8
0
100
AcDbSpline
70
0
71
3
72
8
73
4
74
0
42
0.000000001
43
0.0000000001
44
0.0000000001
40
-0.45006354445777164
40
-0.45006354445777164
40
-0.45006354445777164
40
-0.45006354445777164
40
-0.41199633337348757
40
-0.41199633337348757
40
-0.41199633337348757
40
-0.41199633337348757
10
145.50829914301534
20
-164.77853207509975
30
0
10
145.36194020892015
20
-164.83426931158408
30
0
10
145.21630223419214
20
-164.88881070492891
30
0
10
145.0717330827533
20
-164.94261322328373
30
0
0
SPLINE
5
540
100
AcDbEntity
8
0
100
AcDbSpline
70
0
71
3
72
10
73
6
74
0
42
0.000000001
43
0.0000000001
44
0.0000000001
40
0.052130828766176807
40
0.052130828766176807
40
0.052130828766176807
40
0.052130828766176807
40
0.36198872399955034
40
0.36198872399955034
40
0.72343132805648769
40
0.72343132805648769
40
0.72343132805648769
40
0.72343132805648769
10
145.0717330827533
20
-164.94261322328379
30
0
10
144.96112058190738
20
-165.97800658705719
30
0
10
144.81721813668958
20
-167.0309330433233
30
0
10
144.43579796115165
20
-169.24089317538349
30
0
10
144.17646385380903
20
-170.44614804457581
30
0
10
143.846573073039
20
-171.60934601299448
30
0
0
SPLINE
5
541
100
AcDbEntity
8
0
100
AcDbSpline
70
0
71
3
72
10
73
6
74
0
42
0.000000001
43
0.0000000001
44
0.0000000001
40
0
40
0
40
0
40
0
40
0.17346655224126284
40
0.17346655224126284
40
0.41259549430909459
40
0.41259549430909459
40
0.41259549430909459
40
0.41259549430909459
10
143.84657307303897
20
-171.60934601299454
30
0
10
143.56082920218813
20
-172.11202974801506
30
0
10
142.93318999678382
20
-173.20267993665442
30
0
10
141.23433259566607
20
-175.49517499664958
30
0
10
140.57170541029333
20
-175.92612640501011
30
0
10
140.27351379394531
20
-176.12059469803688
30
0
0
SPLINE
5
542
100
AcDbEntity
8
0
100
AcDbSpline
70
0
71
3
72
10
73
6
74
0
42
0.000000001
43
0.0000000001
44
0.0000000001
40
0
40
0
40
0
40
0
40
0.2166943037810331
40
0.2166943037810331
40
0.41608770334164752
40
0.41608770334164752
40
0.41608770334164752
40
0.41608770334164752
10
140.27351379394534
20
-176.12059469803685
30
0
10
139.66849146565761
20
-176.51516534648832
30
0
10
139.10218147167893
20
-176.88937581765003
30
0
10
138.00941055668159
20
-177.59149011854942
30
0
10
137.4473922036793
20
-177.9435617829044
30
0
10
136.90028841347936
20
-178.25817673247766
30
0
0
SPLINE
5
543
100
AcDbEntity
8
0
100
AcDbSpline
70
0
71
3
72
14
73
10
74
0
42
0.000000001
43
0.0000000001
44
0.0000000001
40
0
40
0
40
0
40
0
40
0.36547822373604133
40
0.36547822373604133
40
0.53255112573401131
40
0.53255112573401131
40
0.66003532191240821
40
0.66003532191240821
40
0.78647856973049657
40
0.78647856973049657
40
0.78647856973049657
40
0.78647856973049657
10
136.90028841347942
20
-178.25817673247766
30
0
10
135.78845544907938
20
-178.75615936671147
30
0
10
134.82780263225425
20
-179.14681599295454
30
0
10
133.58165365724108
20
-179.31346705511035
30
0
10
133.18914061568756
20
-179.31108552938417
30
0
10
132.51229014273201
20
-179.1415531768445
30
0
10
132.24417137305943
20
-179.01875306976348
30
0
10
131.74456734879354
20
-178.68419500583843
30
0
10
131.52336464222822
20
-178.48016335201493
30
0
10
131.32297057785541
20
-178.25817673247769
30
0
0
SPLINE
5
544
100
AcDbEntity
8
0
100
AcDbSpline
70
0
71
3
72
10
73
6
74
0
42
0.000000001
43
0.0000000001
44
0.0000000001
40
0
40
0
40
0
40
0
40
0.10898722425950982
40
0.10898722425950982
40
0.23038935778360137
40
0.23038935778360137
40
0.23038935778360137
40
0.23038935778360137
10
131.32297057785541
20
-178.25817673247769
30
0
10
131.12638539042976
20
-177.95266988913869
30
0
10
130.9491441073979
20
-177.60835193214788
30
0
10
130.62464033485236
20
-176.92760824548697
30
0
10
130.45451219997813
20
-176.53659334444515
30
0
10
130.27351379394531
20
-176.12059469803688
30
0
0
LINE
5
545
100
AcDbEntity
8
0
100
AcDbLine
10
130.27351379394531
20
-176.12059469803688
30
0
11
127.15760840950679
21
-168.95913703289239
31
0
0
LINE
5
546
100
AcDbEntity
8
0
100
AcDbLine
10
127.15760840950679
20
-168.95913703289239
30
0
11
126.59772260936892
21
-166.27176756576569
31
0
0
LINE
5
547
100
AcDbEntity
8
0
100
AcDbLine
10
24.004682540893558
20
-153.29733355919868
30
0
11
21.857225402766357
21
-152.59431044422792
31
0
0
LINE
5
548
100
AcDbEntity
8
0
100
AcDbLine
10
21.857225402766357
20
-152.59431044422792
30
0
11
21.598902087700509
21
-156.74357011685774
31
0
0
LINE
5
549
100
AcDbEntity
8
0
100
AcDbLine
10
21.598902087700509
20
-156.74357011685774
30
0
11
21.175050837045202
21
-158.13726986881247
31
0
0
LINE
5
550
100
AcDbEntity
8
0
100
AcDbLine
10
21.175050837045202
20
-158.13726986881247
30
0
11
24.004682540893558
21
-161.82136263056864
31
0
0
LINE
5
551
100
AcDbEntity
8
0
100
AcDbLine
10
24.004682540893558
20
-161.82136263056864
30
0
11
26.637015698806614
21
-164.80580730968487
31
0
0
LINE
5
552
100
AcDbEntity
8
0
100
AcDbLine
10
26.637015698806614
20
-164.80580730968487
30
0
11
34.530691146850586
21
-168.30301408398768
31
0
0
LINE
5
553
100
AcDbEntity
8
0
100
AcDbLine
10
34.530691146850586
20
-168.30301408398768
30
0
11
41.197949558822522
21
-172.02258413215509
31
0
0
LINE
5
554
100
AcDbEntity
8
0
100
AcDbLine
10
41.197949558822522
20
-172.02258413215509
30
0
11
45.05738639831543
21
-173.23758884463845
31
0
0
LINE
5
555
100
AcDbEntity
8
0
100
AcDbLine
10
45.05738639831543
20
-173.23758884463845
30
0
11
47.151719437299789
21
-173.7759722654111
31
0
0
LINE
5
556
100
AcDbEntity
8
0
100
AcDbLine
10
47.151719437299789
20
-173.7759722654111
30
0
11
55.583786010742188
21
-176.64811213383155
31
0
0
LINE
5
557
100
AcDbEntity
8
0
100
AcDbLine
10
55.583786010742188
20
-176.64811213383155
30
0
11
61.852800649648636
21
-178.12659140953986
31
0
0
LINE
5
558
100
AcDbEntity
8
0
100
AcDbLine
10
61.852800649648636
20
-178.12659140953986
30
0
11
66.110085487365723
21
-179.6991882701829
31
0
0
LINE
5
559
100
AcDbEntity
8
0
100
AcDbLine
10
66.110085487365723
20
-179.6991882701829
30
0
11
74.854626685684877
21
-181.74819190482484
31
0
0
LINE
5
560
100
AcDbEntity
8
0
100
AcDbLine
10
74.854626685684877
20
-181.74819190482484
30
0
11
76.63638973236084
21
-182.46593794665884
31
0
0
LINE
5
561
100
AcDbEntity
8
0
100
AcDbLine
10
76.63638973236084
20
-182.46593794665884
30
0
11
86.522627547135841
21
-184.70450318230917
31
0
0
LINE
5
562
100
AcDbEntity
8
0
100
AcDbLine
10
86.522627547135841
20
-184.70450318230917
30
0
11
87.162689208984375
21
-184.98986855704831
31
0
0
SPLINE
5
563
100
AcDbEntity
8
0
100
AcDbSpline
70
0
71
3
72
8
73
4
74
0
42
0.000000001
43
0.0000000001
44
0.0000000001
40
0
40
0
40
0
40
0
40
0.069194993963377444
40
0.069194993963377444
40
0.069194993963377444
40
0.069194993963377444
10
87.803388653729826
20
-185.27474870079669
30
0
10
87.592442086284763
20
-185.18146977015934
30
0
10
87.378951675484572
20
-185.08628711087422
30
0
10
87.162689208984375
20
-184.98986855704831
30
0
0
SPLINE
5
564
100
AcDbEntity
8
0
100
AcDbSpline
70
0
71
3
72
14
73
10
74
0
42
0.000000001
43
0.0000000001
44
0.0000000001
40
0
40
0
40
0
40
0
40
0.2721130071742584
40
0.2721130071742584
40
0.49389055768017387
40
0.49389055768017387
40
0.68393179066569054
40
0.68393179066569054
40
0.9140958282511874
40
0.9140958282511874
40
0.9140958282511874
40
0.9140958282511874
10
96.734395366795454
20
-185.27474870079669
30
0
10
95.865055155373796
20
-185.53354446724623
30
0
10
95.08284377660263
20
-185.75733935594155
30
0
10
93.428775614508027
20
-185.96215186290033
30
0
10
92.702822862075621
20
-185.96609238356456
30
0
10
91.33635649906374
20
-185.87296517820454
30
0
10
90.696087350161775
20
-185.78976843682705
30
0
10
89.325463953279154
20
-185.57243358883855
30
0
10
88.50362607766553
20
-185.41347843301284
30
0
10
87.803388653729854
20
-185.27474870079669
30
0
0
SPLINE
5
565
100
AcDbEntity
8
0
100
AcDbSpline
70
0
71
3
72
8
73
4
74
0
42
0.000000001
43
0.0000000001
44
0.0000000001
40
0
40
0
40
0
40
0
40
0.052023658136119741
40
0.052023658136119741
40
0.052023658136119741
40
0.052023658136119741
10
97.162689208984375
20
-184.98986855704831
30
0
10
97.017972165479904
20
-185.08541313446307
30
0
10
96.862678003974224
20
-185.18914354936777
30
0
10
96.734395366795454
20
-185.27474870079669
30
0
0
SPLINE
5
566
100
AcDbEntity
8
0
100
AcDbSpline
70
0
71
3
72
14
73
10
74
0
42
0.000000001
43
0.0000000001
44
0.0000000001
40
0.049653904168490665
40
0.049653904168490665
40
0.049653904168490665
40
0.049653904168490665
40
0.73995343627264232
40
0.73995343627264232
40
1.2551036734231333
40
1.2551036734231333
40
1.4159368000366896
40
1.4159368000366896
40
1.5533143624270493
40
1.5533143624270493
40
1.5533143624270493
40
1.5533143624270493
10
113.99825231580509
20
-184.02659266937235
30
0
10
111.54508252766186
20
-183.9145307397888
30
0
10
108.08487377109061
20
-183.67000859142314
30
0
10
103.35545057565994
20
-183.60455205989635
30
0
10
101.32397833073101
20
-183.68112598520426
30
0
10
99.035754225846773
20
-184.19292452781971
30
0
10
98.476039953105925
20
-184.35501745166275
30
0
10
97.533240513117278
20
-184.75033989195612
30
0
10
97.387059041988806
20
-184.84173589513159
30
0
10
97.162689208984375
20
-184.98986855704831
30
0
0
ARC
5
567
100
AcDbEntity
8
0
100
AcDbCircle
10
137.16268920896943
20
-174.62399291992827
30
0
40
25.000000372512762
210
0
220
0
230
1
100
AcDbArc
50
202.09256225462826
51
204.44210275691171
0
ARC
5
568
100
AcDbEntity
8
0
100
AcDbCircle
10
137.16268920896943
20
-174.62399291992827
30
0
40
25.000000372512766
210
0
220
0
230
1
100
AcDbArc
50
204.44210275691171
51
210.00000147878313
0
LINE
5
569
100
AcDbEntity
8
0
100
AcDbLine
10
115.51205411437329
20
-187.12399366497971
30
0
11
115.51205411437326
21
-179.72399291992187
31
0
0
LINE
5
570
100
AcDbEntity
8
0
100
AcDbLine
10
115.51205411437326
20
-179.72399291992187
30
0
11
121.01131542840427
21
-182.89899291992188
31
0
0
LINE
5
571
100
AcDbEntity
8
0
100
AcDbLine
10
121.01131542840427
20
-182.89899291992188
30
0
11
121.01131542840427
21
-166.34899291992187
31
0
0
LINE
5
572
100
AcDbEntity
8
0
100
AcDbLine
10
121.01131542840427
20
-166.34899291992187
30
0
11
115.51205411437329
21
-169.52399291992185
31
0
0
LINE
5
573
100
AcDbEntity
8
0
100
AcDbLine
10
115.51205411437329
20
-169.52399291992185
30
0
11
115.51205411437329
21
-162.12399217486407
31
0
0
ARC
5
574
100
AcDbEntity
8
0
100
AcDbCircle
10
137.16268920896943
20
-174.62399291992827
30
0
40
25.000000372519274
210
0
220
0
230
1
100
AcDbArc
50
149.99999852119151
51
153.89825628666469
0
ARC
5
575
100
AcDbEntity
8
0
100
AcDbCircle
10
137.16268920896943
20
-174.62399291992827
30
0
40
25.000000372518404
210
0
220
0
230
1
100
AcDbArc
50
153.89825628666469
51
154.96261221036664
0
SPLINE
5
576
100
AcDbEntity
8
0
100
AcDbSpline
70
0
71
3
72
10
73
6
74
0
42
0.000000001
43
0.0000000001
44
0.0000000001
40
0
40
0
40
0
40
0
40
0.12162816531677305
40
0.12162816531677305
40
0.19960519322295739
40
0.19960519322295739
40
0.19960519322295739
40
0.19960519322295739
10
113.8078386157097
20
-162.19319283662077
30
0
10
113.92969623170887
20
-162.57987351921724
30
0
10
114.05901466159064
20
-162.95729343705977
30
0
10
114.2961437432961
20
-163.56426803153695
30
0
10
114.40015939903788
20
-163.81091011961001
30
0
10
114.51189340229075
20
-164.04375341649279
30
0
0
SPLINE
5
577
100
AcDbEntity
8
0
100
AcDbSpline
70
0
71
3
72
10
73
6
74
0
42
0.000000001
43
0.0000000001
44
0.0000000001
40
0.17169554038022666
40
0.17169554038022666
40
0.17169554038022666
40
0.17169554038022666
40
0.22137218598314518
40
0.22137218598314518
40
0.5837873774675042
40
0.5837873774675042
40
0.5837873774675042
40
0.5837873774675042
10
113.05419777662577
20
-159.83892708789173
30
0
10
113.07689881277049
20
-159.91799293864796
30
0
10
113.10099775375889
20
-160.00182548368102
30
0
10
113.33801436118046
20
-160.8143843330987
30
0
10
113.5660568260522
20
-161.50320924843666
30
0
10
113.8078386157097
20
-162.19319283662077
30
0
0
SPLINE
5
578
100
AcDbEntity
8
0
100
AcDbSpline
70
0
71
3
72
8
73
4
74
0
42
0.000000001
43
0.0000000001
44
0.0000000001
40
-0.32798394344834136
40
-0.32798394344834136
40
-0.32798394344834136
40
-0.32798394344834136
40
-0.18099720690457824
40
-0.18099720690457824
40
-0.18099720690457824
40
-0.18099720690457824
10
112.428772284201
20
-158.59157759905682
30
0
10
112.64496393533636
20
-158.98552548474512
30
0
10
112.85454864880433
20
-159.4063033495961
30
0
10
113.0541977766258
20
-159.83892708789176
30
0
0
SPLINE
5
579
100
AcDbEntity
8
0
100
AcDbSpline
70
0
71
3
72
10
73
6
74
0
42
0.000000001
43
0.0000000001
44
0.0000000001
40
-0.57940987656391774
40
-0.57940987656391774
40
-0.57940987656391774
40
-0.57940987656391774
40
-0.260187510691816
40
-0.260187510691816
40
0
40
0
40
0
40
0
10
109.52259948805468
20
-155.31023710587868
30
0
10
110.12145398481367
20
-155.73488777265197
30
0
10
110.66675949690179
20
-156.25871861451409
30
0
10
111.535933965328
20
-157.26252412185636
30
0
10
111.98392196498546
20
-157.84706225980398
30
0
10
112.428772284201
20
-158.59157759905682
30
0
0
SPLINE
5
580
100
AcDbEntity
8
0
100
AcDbSpline
70
0
71
3
72
10
73
6
74
0
42
0.000000001
43
0.0000000001
44
0.0000000001
40
-0.24964069469815961
40
-0.24964069469815961
40
-0.24964069469815961
40
-0.24964069469815961
40
-0.12107980274237554
40
-0.12107980274237554
40
0
40
0
40
0
40
0
10
99.469139096291229
20
-152.69096619132918
30
0
10
101.63116108506924
20
-152.56628819313883
30
0
10
103.54007699042569
20
-152.57231598633101
30
0
10
107.4266536290687
20
-153.85039317366113
30
0
10
109.19313365747584
20
-155.07711761778964
30
0
10
109.52259948805469
20
-155.31023710587868
30
0
0
SPLINE
5
581
100
AcDbEntity
8
0
100
AcDbSpline
70
0
71
3
72
10
73
6
74
0
42
0.000000001
43
0.0000000001
44
0.0000000001
40
-0.20948633311463818
40
-0.20948633311463818
40
-0.20948633311463818
40
-0.20948633311463818
40
-0.12296552606461898
40
-0.12296552606461898
40
0
40
0
40
0
40
0
10
97.162689208984375
20
-152.74212753145784
30
0
10
97.525199313253609
20
-152.73771492546206
30
0
10
97.887623041597635
20
-152.72756340749561
30
0
10
98.765080691140724
20
-152.70364743232892
30
0
10
99.059285887035685
20
-152.69607807075101
30
0
10
99.469139096291258
20
-152.69096619132918
30
0
0
SPLINE
5
582
100
AcDbEntity
8
0
100
AcDbSpline
70
0
71
3
72
10
73
6
74
0
42
0.000000001
43
0.0000000001
44
0.0000000001
40
-1.6964398713026798
40
-1.6964398713026798
40
-1.6964398713026798
40
-1.6964398713026798
40
-0.59778201931535246
40
-0.59778201931535246
40
0
40
0
40
0
40
0
10
87.162689208984361
20
-152.74212753145784
30
0
10
87.882764486448224
20
-152.7871747092766
30
0
10
88.473512037828812
20
-152.8241312759383
30
0
10
93.402780904243215
20
-152.78961682799888
30
0
10
95.170230080329702
20
-152.76638047501416
30
0
10
97.162689208984361
20
-152.74212753145784
30
0
0
LINE
5
583
100
AcDbEntity
8
0
100
AcDbLine
10
87.162689208984361
20
-152.74212753145784
30
0
11
81.843419255984585
21
-152.40935940715471
31
0
0
LINE
5
584
100
AcDbEntity
8
0
100
AcDbLine
10
81.843419255984585
20
-152.40935940715471
30
0
11
76.63638973236084
21
-151.63797749998412
31
0
0
LINE
5
585
100
AcDbEntity
8
0
100
AcDbLine
10
76.63638973236084
20
-151.63797749998412
30
0
11
72.887939027872221
21
-151.00005710774769
31
0
0
LINE
5
586
100
AcDbEntity
8
0
100
AcDbLine
10
72.887939027872221
20
-151.00005710774769
30
0
11
66.110085487365723
21
-150.47699661867756
31
0
0
LINE
5
587
100
AcDbEntity
8
0
100
AcDbLine
10
66.110085487365723
20
-150.47699661867756
30
0
11
56.267741492243474
21
-149.37124367105173
31
0
0
LINE
5
588
100
AcDbEntity
8
0
100
AcDbLine
10
56.267741492243474
20
-149.37124367105173
30
0
11
55.583786010742188
21
-149.34844459148545
31
0
0
LINE
5
589
100
AcDbEntity
8
0
100
AcDbLine
10
55.583786010742188
20
-149.34844459148545
30
0
11
53.777499703346976
21
-149.3550126284384
31
0
0
LINE
5
590
100
AcDbEntity
8
0
100
AcDbLine
10
53.777499703346976
20
-149.3550126284384
30
0
11
45.05738639831543
21
-148.56128991621731
31
0
0
LINE
5
591
100
AcDbEntity
8
0
100
AcDbLine
10
45.05738639831543
20
-148.56128991621731
30
0
11
39.84865519485318
21
-149.75875570461028
31
0
0
LINE
5
592
100
AcDbEntity
8
0
100
AcDbLine
10
39.84865519485318
20
-149.75875570461028
30
0
11
34.530691146850586
21
-151.92536400920443
31
0
0
LINE
5
593
100
AcDbEntity
8
0
100
AcDbLine
10
34.530691146850586
20
-151.92536400920443
30
0
11
27.848620197605136
21
-152.40468006821024
31
0
0
LINE
5
594
100
AcDbEntity
8
0
100
AcDbLine
10
27.848620197605136
20
-152.40468006821024
30
0
11
24.004682540893558
21
-153.29733355919868
31
0
0
LINE
5
595
100
AcDbEntity
8
0
100
AcDbLine
10
21.598902087700509
20
-156.74357011685774
30
0
11
21.85722540276636
21
-152.59431044422792
31
0
0
LINE
5
596
100
AcDbEntity
8
0
100
AcDbLine
10
21.85722540276636
20
-152.59431044422792
30
0
11
19.68898719234776
21
-151.88448413215704
31
0
0
LINE
5
597
100
AcDbEntity
8
0
100
AcDbLine
10
19.68898719234776
20
-151.88448413215704
30
0
11
16.29412731584992
21
-149.45022683423028
31
0
0
LINE
5
598
100
AcDbEntity
8
0
100
AcDbLine
10
16.29412731584992
20
-149.45022683423028
30
0
11
14.86140523551601
21
-148.55070341123098
31
0
0
LINE
5
599
100
AcDbEntity
8
0
100
AcDbLine
10
14.86140523551601
20
-148.55070341123098
30
0
11
14.502086013707256
21
-146.62318347926504
31
0
0
LINE
5
600
100
AcDbEntity
8
0
100
AcDbLine
10
14.502086013707256
20
-146.62318347926504
30
0
11
14.415553299680859
21
-146.40890295211139
31
0
0
LINE
5
601
100
AcDbEntity
8
0
100
AcDbLine
10
14.415553299680859
20
-146.40890295211139
30
0
11
14.190253212996318
21
-146.63050452448755
31
0
0
LINE
5
602
100
AcDbEntity
8
0
100
AcDbLine
10
14.190253212996318
20
-146.63050452448755
30
0
11
13.478693008422855
21
-147.23606637416887
31
0
0
LINE
5
603
100
AcDbEntity
8
0
100
AcDbLine
10
13.478693008422855
20
-147.23606637416887
30
0
11
11.155838588859641
21
-148.88490807182151
31
0
0
LINE
5
604
100
AcDbEntity
8
0
100
AcDbLine
10
11.155838588859641
20
-148.88490807182151
30
0
11
10.116888618612947
21
-149.54442145262215
31
0
0
LINE
5
605
100
AcDbEntity
8
0
100
AcDbLine
10
10.116888618612947
20
-149.54442145262215
30
0
11
8.0542982972962029
21
-152.0107231651387
31
0
0
LINE
5
606
100
AcDbEntity
8
0
100
AcDbLine
10
8.0542982972962029
20
-152.0107231651387
30
0
11
5.4308789260185186
21
-154.46223967443146
31
0
0
LINE
5
607
100
AcDbEntity
8
0
100
AcDbLine
10
5.4308789260185186
20
-154.46223967443146
30
0
11
5.024512617695347
21
-155.67887949553662
31
0
0
LINE
5
608
100
AcDbEntity
8
0
100
AcDbLine
10
5.024512617695347
20
-155.67887949553662
30
0
11
2.9516830444335973
21
-159.07926699780401
31
0
0
LINE
5
609
100
AcDbEntity
8
0
100
AcDbLine
10
2.9516830444335973
20
-159.07926699780401
30
0
11
2.3240910290609129
21
-160.02763906706878
31
0
0
LINE
5
610
100
AcDbEntity
8
0
100
AcDbLine
10
2.3240910290609129
20
-160.02763906706878
30
0
11
1.9999977626880927
21
-160.36031064244241
31
0
0
LINE
5
611
100
AcDbEntity
8
0
100
AcDbLine
10
1.9999977626880927
20
-160.36031064244241
30
0
11
2.9516830444335973
21
-162.8061173206105
31
0
0
LINE
5
612
100
AcDbEntity
8
0
100
AcDbLine
10
2.9516830444335973
20
-162.8061173206105
30
0
11
4.3600497722552234
21
-166.48111324420145
31
0
0
LINE
5
613
100
AcDbEntity
8
0
100
AcDbLine
10
4.3600497722552234
20
-166.48111324420145
30
0
11
13.478693008422855
21
-170.16388223398221
31
0
0
LINE
5
614
100
AcDbEntity
8
0
100
AcDbLine
10
13.478693008422855
20
-170.16388223398221
30
0
11
20.632663629849386
21
-172.82165107704805
31
0
0
LINE
5
615
100
AcDbEntity
8
0
100
AcDbLine
10
20.632663629849386
20
-172.82165107704805
30
0
11
24.004682540893558
21
-173.44905417815286
31
0
0
LINE
5
616
100
AcDbEntity
8
0
100
AcDbLine
10
24.004682540893558
20
-173.44905417815286
30
0
11
25.52708723450495
21
-173.86428794354217
31
0
0
LINE
5
617
100
AcDbEntity
8
0
100
AcDbLine
10
25.52708723450495
20
-173.86428794354217
30
0
11
34.530691146850586
21
-176.29074411365258
31
0
0
LINE
5
618
100
AcDbEntity
8
0
100
AcDbLine
10
34.530691146850586
20
-176.29074411365258
30
0
11
42.822410507553386
21
-179.07222928746836
31
0
0
LINE
5
619
100
AcDbEntity
8
0
100
AcDbLine
10
42.822410507553386
20
-179.07222928746836
30
0
11
45.05738639831543
21
-179.7758309662872
31
0
0
LINE
5
620
100
AcDbEntity
8
0
100
AcDbLine
10
45.05738639831543
20
-179.7758309662872
30
0
11
50.930408328003054
21
-181.28558971903615
31
0
0
LINE
5
621
100
AcDbEntity
8
0
100
AcDbLine
10
50.930408328003054
20
-181.28558971903615
30
0
11
55.583786010742188
21
-182.09011500236647
31
0
0
LINE
5
622
100
AcDbEntity
8
0
100
AcDbLine
10
55.583786010742188
20
-182.09011500236647
30
0
11
56.134802013587773
21
-182.12469216682607
31
0
0
LINE
5
623
100
AcDbEntity
8
0
100
AcDbLine
10
56.134802013587773
20
-182.12469216682607
30
0
11
66.110085487365723
21
-183.83381901149153
31
0
0
LINE
5
624
100
AcDbEntity
8
0
100
AcDbLine
10
66.110085487365723
20
-183.83381901149153
30
0
11
67.361723076034082
21
-183.88511936438329
31
0
0
LINE
5
625
100
AcDbEntity
8
0
100
AcDbLine
10
67.361723076034082
20
-183.88511936438329
30
0
11
76.63638973236084
21
-185.60653184716176
31
0
0
LINE
5
626
100
AcDbEntity
8
0
100
AcDbLine
10
76.63638973236084
20
-185.60653184716176
30
0
11
78.135375602357669
21
-185.60803991255369
31
0
0
LINE
5
627
100
AcDbEntity
8
0
100
AcDbLine
10
78.135375602357669
20
-185.60803991255369
30
0
11
87.162689208984375
21
-187.41129668727712
31
0
0
SPLINE
5
628
100
AcDbEntity
8
0
100
AcDbSpline
70
0
71
3
72
14
73
10
74
0
42
0.000000001
43
0.0000000001
44
0.0000000001
40
-1.360884831816694
40
-1.360884831816694
40
-1.360884831816694
40
-1.360884831816694
40
-1.151055546620261
40
-1.151055546620261
40
-0.71989678687227221
40
-0.71989678687227221
40
-0.3975579496889789
40
-0.3975579496889789
40
0
40
0
40
0
40
0
10
97.162689208984375
20
-187.41129668727712
30
0
10
96.729492333690928
20
-187.55456648881983
30
0
10
96.333127314030875
20
-187.68705400591583
30
0
10
95.124415536714764
20
-188.04159499746072
30
0
10
94.310420013080545
20
-188.21179238934036
30
0
10
92.488387566736293
20
-188.25379947923423
30
0
10
91.67038709966107
20
-188.18839730732162
30
0
10
89.659768590269834
20
-187.91010236829607
30
0
10
88.462209051213833
20
-187.670883100412
30
0
10
87.162689208984375
20
-187.41129668727712
30
0
0
SPLINE
5
629
100
AcDbEntity
8
0
100
AcDbSpline
70
0
71
3
72
12
73
8
74
0
42
0.000000001
43
0.0000000001
44
0.0000000001
40
-0.37107001733817524
40
-0.37107001733817524
40
-0.37107001733817524
40
-0.37107001733817524
40
-0.17672128211956886
40
-0.17672128211956886
40
-0.058083883994748682
40
-0.058083883994748682
40
0
40
0
40
0
40
0
10
101.88048415042191
20
-186.33808548657942
30
0
10
101.01755703937832
20
-186.48147713326216
30
0
10
100.12205127882635
20
-186.6483673682028
30
0
10
98.747816025604067
20
-186.95826188221761
30
0
10
98.207911793511869
20
-187.09307250266576
30
0
10
97.446693670097659
20
-187.3177109839385
30
0
10
97.346509813795237
20
-187.35050229315121
30
0
10
97.162689208984375
20
-187.41129668727712
30
0
0
SPLINE
5
630
100
AcDbEntity
8
0
100
AcDbSpline
70
0
71
3
72
10
73
6
74
0
42
0.000000001
43
0.0000000001
44
0.0000000001
40
-1.2678970271278196
40
-1.2678970271278196
40
-1.2678970271278196
40
-1.2678970271278196
40
-0.4203767010132835
40
-0.4203767010132835
40
0
40
0
40
0
40
0
10
114.40319255195085
20
-184.96833101111611
30
0
10
112.43675944301589
20
-185.05829195915609
30
0
10
108.86448620154198
20
-185.32598419966553
30
0
10
104.70972718457602
20
-185.82386044282546
30
0
10
103.24933654987193
20
-186.03848481676857
30
0
10
101.88048415042189
20
-186.33808548657942
30
0
0
ARC
5
631
100
AcDbEntity
8
0
100
AcDbCircle
10
137.16268920901899
20
-174.62399291990695
30
0
40
25.000000372566738
210
0
220
0
230
1
100
AcDbArc
50
202.09256225463076
51
204.44210275686603
0
SPLINE
5
632
100
AcDbEntity
8
0
100
AcDbSpline
70
0
71
3
72
14
73
10
74
0
42
0.000000001
43
0.0000000001
44
0.0000000001
40
0
40
0
40
0
40
0
40
0.86222356814155765
40
0.86222356814155765
40
1.2728634579083808
40
1.2728634579083808
40
1.4655450988221337
40
1.4655450988221337
40
1.6611288897997274
40
1.6611288897997274
40
1.6611288897997274
40
1.6611288897997274
10
113.99825231580509
20
-184.02659266937235
30
0
10
111.12716774696965
20
-183.89544019947959
30
0
10
107.55619807206588
20
-183.62729364674868
30
0
10
103.26947105271546
20
-183.62738074795766
30
0
10
101.76846233525256
20
-183.68798769434073
30
0
10
99.740087729008948
20
-184.02200304014204
30
0
10
99.077212819169432
20
-184.17169902320853
30
0
10
97.834392815206257
20
-184.59540584616991
30
0
10
97.459030175434748
20
-184.79421936656911
30
0
10
97.162689208984375
20
-184.98986855704831
30
0
0
SPLINE
5
633
100
AcDbEntity
8
0
100
AcDbSpline
70
0
71
3
72
10
73
6
74
0
42
0.000000001
43
0.0000000001
44
0.0000000001
40
0
40
0
40
0
40
0
40
0.026496878898568148
40
0.026496878898568148
40
0.051575738146802733
40
0.051575738146802733
40
0.051575738146802733
40
0.051575738146802733
10
97.162689208984375
20
-184.98986855704831
30
0
10
97.088981397698518
20
-185.03853166894541
30
0
10
97.016125939880297
20
-185.08691384179787
30
0
10
96.872569879318306
20
-185.18251471702069
30
0
10
96.802048451258827
20
-185.22960266492242
30
0
10
96.734395366795454
20
-185.27474870079669
30
0
0
SPLINE
5
634
100
AcDbEntity
8
0
100
AcDbSpline
70
0
71
3
72
10
73
6
74
0
42
0.000000001
43
0.0000000001
44
0.0000000001
40
0
40
0
40
0
40
0
40
0.43933481490017251
40
0.43933481490017251
40
0.76936272278488405
40
0.76936272278488405
40
0.76936272278488405
40
0.76936272278488405
10
96.734395366795454
20
-185.27474870079669
30
0
10
95.330818871734238
20
-185.69258242117172
30
0
10
94.169778830762496
20
-186.01470376561255
30
0
10
90.953182622366242
20
-185.8774221524481
30
0
10
89.467689873365671
20
-185.60447695386469
30
0
10
87.803388653729854
20
-185.27474870079672
30
0
0
SPLINE
5
635
100
AcDbEntity
8
0
100
AcDbSpline
70
0
71
3
72
10
73
6
74
0
42
0.000000001
43
0.0000000001
44
0.0000000001
40
0
40
0
40
0
40
0
40
0.034796736836114318
40
0.034796736836114318
40
0.069896877271463126
40
0.069896877271463126
40
0.069896877271463126
40
0.069896877271463126
10
87.80338865372984
20
-185.27474870079669
30
0
10
87.697307971104848
20
-185.22784064840982
30
0
10
87.590881787348636
20
-185.18058256473563
30
0
10
87.378260064841356
20
-185.0859787628788
30
0
10
87.270823266859949
20
-185.03807909329353
30
0
10
87.162689208984375
20
-184.98986855704831
30
0
0
LINE
5
636
100
AcDbEntity
8
0
100
AcDbLine
10
87.162689208984375
20
-184.98986855704831
30
0
11
86.522627547135841
21
-184.70450318230917
31
0
0
LINE
5
637
100
AcDbEntity
8
0
100
AcDbLine
10
86.522627547135841
20
-184.70450318230917
30
0
11
76.63638973236084
21
-182.46593794665884
31
0
0
LINE
5
638
100
AcDbEntity
8
0
100
AcDbLine
10
76.63638973236084
20
-182.46593794665884
30
0
11
74.854626685684877
21
-181.74819190482484
31
0
0
LINE
5
639
100
AcDbEntity
8
0
100
AcDbLine
10
74.854626685684877
20
-181.74819190482484
30
0
11
66.110085487365723
21
-179.6991882701829
31
0
0
LINE
5
640
100
AcDbEntity
8
0
100
AcDbLine
10
66.110085487365723
20
-179.6991882701829
30
0
11
61.852800649648636
21
-178.12659140953986
31
0
0
LINE
5
641
100
AcDbEntity
8
0
100
AcDbLine
10
61.852800649648636
20
-178.12659140953986
30
0
11
55.583786010742188
21
-176.64811213383155
31
0
0
LINE
5
642
100
AcDbEntity
8
0
100
AcDbLine
10
55.583786010742188
20
-176.64811213383155
30
0
11
47.151719437299789
21
-173.7759722654111
31
0
0
LINE
5
643
100
AcDbEntity
8
0
100
AcDbLine
10
47.151719437299789
20
-173.7759722654111
30
0
11
45.05738639831543
21
-173.23758884463845
31
0
0
LINE
5
644
100
AcDbEntity
8
0
100
AcDbLine
10
45.05738639831543
20
-173.23758884463845
30
0
11
41.197949558822522
21
-172.02258413215509
31
0
0
LINE
5
645
100
AcDbEntity
8
0
100
AcDbLine
10
41.197949558822522
20
-172.02258413215509
30
0
11
34.530691146850586
21
-168.30301408398768
31
0
0
LINE
5
646
100
AcDbEntity
8
0
100
AcDbLine
10
34.530691146850586
20
-168.30301408398768
30
0
11
26.637015698806614
21
-164.80580730968487
31
0
0
LINE
5
647
100
AcDbEntity
8
0
100
AcDbLine
10
26.637015698806614
20
-164.80580730968487
30
0
11
24.004682540893558
21
-161.82136263056864
31
0
0
LINE
5
648
100
AcDbEntity
8
0
100
AcDbLine
10
24.004682540893558
20
-161.82136263056864
30
0
11
21.175050837045202
21
-158.13726986881247
31
0
0
LINE
5
649
100
AcDbEntity
8
0
100
AcDbLine
10
21.175050837045202
20
-158.13726986881247
30
0
11
21.598902087700509
21
-156.74357011685774
31
0
0
ENDSEC
0
SECTION
2
OBJECTS
0
DICTIONARY
5
C
100
AcDbDictionary
3
ACAD_GROUP
350
D
3
ACAD_MLINESTYLE
350
17
0
DICTIONARY
5
D
100
AcDbDictionary
0
DICTIONARY
5
1A
330
C
100
AcDbDictionary
0
DICTIONARY
5
17
100
AcDbDictionary
0
ENDSEC
0
EOF
